<?xml version="1.0" encoding="utf-8"?>
<!-- Generator: Adobe Illustrator 21.1.0, SVG Export Plug-In . SVG Version: 6.00 Build 0)  -->
<svg version="1.1" id="Layer_1" xmlns="http://www.w3.org/2000/svg" xmlns:xlink="http://www.w3.org/1999/xlink" x="0px" y="0px"
	 viewBox="0 0 1051 599" style="enable-background:new 0 0 1051 599;" xml:space="preserve">
<style type="text/css">
	.st0{fill:#FFFFFF;}
	.st1{fill:#422524;}
</style>
<rect x="0" y="0" class="st0" width="1051" height="599"/>
<path class="st1" d="M1008.4,563.6H42.6V35.4h965.9V563.6z M47.4,558.8h956.1V40.2H47.4V558.8z"/>
<g>
	<g>
		<g>
			<g>
				<path class="st1" d="M313.4,192.2v14.3h-1.2c-0.9-3.7-2.6-6.6-5-8.6s-5.2-3-8.3-3c-2.6,0-4.9,0.7-7.1,2.2
					c-2.2,1.5-3.7,3.4-4.7,5.8c-1.3,3.1-1.9,6.5-1.9,10.2c0,3.7,0.5,7.1,1.4,10.1s2.4,5.3,4.4,6.9s4.6,2.3,7.7,2.3
					c2.6,0,5-0.6,7.1-1.7s4.4-3.1,6.8-5.9v3.6c-2.3,2.4-4.7,4.2-7.2,5.3c-2.5,1.1-5.4,1.6-8.8,1.6c-4.4,0-8.3-0.9-11.7-2.6
					c-3.4-1.8-6.1-4.3-7.9-7.6c-1.9-3.3-2.8-6.8-2.8-10.6c0-3.9,1-7.7,3.1-11.2c2.1-3.5,4.8-6.3,8.3-8.2c3.5-1.9,7.2-2.9,11.2-2.9
					c2.9,0,6,0.6,9.2,1.9c1.9,0.7,3.1,1.1,3.6,1.1c0.6,0,1.2-0.2,1.7-0.7c0.5-0.5,0.8-1.2,0.9-2.3H313.4z"/>
				<path class="st1" d="M331.9,235.5l-9.2-21.1c-1.4-3.2-2.4-5.1-3.1-5.9c-0.7-0.7-1.5-1.2-2.4-1.5v-1.1h15.1v1.1
					c-1,0-1.7,0.2-2.1,0.6c-0.4,0.3-0.6,0.8-0.6,1.2c0,0.8,0.5,2.3,1.5,4.6l4.9,11.1l3.3-8.6c1.2-3.1,1.8-5.2,1.8-6.4
					c0-0.8-0.2-1.3-0.7-1.8c-0.5-0.4-1.4-0.7-2.6-0.7v-1.1h9.5v1.1c-0.9,0.1-1.7,0.5-2.3,1.1c-0.6,0.6-1.6,2.7-3,6.3l-8.1,21.1
					c-2.1,5.3-3.6,8.5-4.6,9.7c-1.4,1.7-3.2,2.6-5.3,2.6c-1.7,0-3-0.5-4.1-1.4s-1.6-2.1-1.6-3.5c0-1.2,0.4-2.2,1.1-2.9
					c0.7-0.8,1.6-1.2,2.7-1.2c1,0,1.8,0.3,2.5,1s0.9,1.7,1,3c0,0.8,0.1,1.3,0.3,1.5c0.2,0.2,0.4,0.3,0.7,0.3c0.5,0,1-0.3,1.6-0.9
					c0.8-0.9,1.8-2.8,2.9-5.8L331.9,235.5z"/>
				<path class="st1" d="M361.7,205.9v3.7c1.5-1.6,2.9-2.7,4.2-3.5c1.3-0.7,2.8-1.1,4.3-1.1c1.8,0,3.4,0.5,4.6,1.5
					c1.2,1,2,2.3,2.4,3.8c0.3,1.2,0.5,3.4,0.5,6.7v11.1c0,2.2,0.2,3.6,0.6,4.1c0.4,0.5,1.2,0.9,2.5,1v1.1h-14.4v-1.1
					c1.1-0.1,1.8-0.6,2.3-1.3c0.3-0.5,0.5-1.8,0.5-3.8v-12.7c0-2.3-0.1-3.8-0.3-4.4s-0.5-1.1-0.9-1.4c-0.4-0.3-0.9-0.5-1.4-0.5
					c-1.7,0-3.4,1.2-4.9,3.7v15.3c0,2.1,0.2,3.5,0.6,4c0.4,0.6,1.1,0.9,2.2,1.1v1.1h-14.4v-1.1c1.2-0.1,2-0.5,2.6-1.2
					c0.3-0.4,0.5-1.8,0.5-4v-16.1c0-2.2-0.2-3.5-0.6-4c-0.4-0.5-1.2-0.9-2.5-1v-1.1H361.7z"/>
				<path class="st1" d="M396,195.5v10.4h6.8v3H396v17.6c0,1.6,0.1,2.7,0.2,3.2c0.2,0.5,0.4,0.9,0.8,1.2c0.4,0.3,0.7,0.4,1.1,0.4
					c1.3,0,2.6-1,3.7-3l0.9,0.7c-1.6,3.9-4.3,5.8-8,5.8c-1.8,0-3.3-0.5-4.6-1.5c-1.2-1-2-2.1-2.4-3.4c-0.2-0.7-0.3-2.6-0.3-5.6
					v-15.4h-3.7v-1.1c2.6-1.8,4.7-3.7,6.5-5.7s3.4-4.2,4.7-6.7H396z"/>
				<path class="st1" d="M417.1,193.1v16.5c1.6-1.6,3-2.8,4.3-3.5c1.3-0.7,2.6-1,4-1c1.8,0,3.3,0.5,4.6,1.5c1.3,1,2.1,2.2,2.5,3.6
					c0.4,1.4,0.6,3.7,0.6,6.9v11.1c0,2.2,0.2,3.5,0.6,4.1c0.4,0.5,1.2,0.9,2.5,1v1.1h-14.4v-1.1c1-0.1,1.8-0.5,2.3-1.2
					c0.4-0.5,0.5-1.8,0.5-3.9v-12.7c0-2.4-0.1-3.8-0.3-4.4c-0.2-0.6-0.5-1.1-0.9-1.4s-0.9-0.5-1.5-0.5c-0.8,0-1.6,0.3-2.4,0.8
					c-0.8,0.6-1.6,1.5-2.5,2.9v15.3c0,2,0.2,3.3,0.5,3.8c0.4,0.7,1.2,1.1,2.4,1.3v1.1h-14.4v-1.1c1.2-0.1,2-0.5,2.6-1.2
					c0.3-0.4,0.5-1.8,0.5-3.9v-28.9c0-2.2-0.2-3.5-0.6-4c-0.4-0.5-1.2-0.9-2.5-1v-1.1H417.1z"/>
				<path class="st1" d="M451.3,205.9v22.6c0,2,0.2,3.3,0.7,3.9c0.5,0.6,1.4,0.9,2.7,1v1.1h-15.4v-1.1c1.3,0,2.2-0.4,2.8-1.1
					c0.4-0.5,0.6-1.7,0.6-3.7v-16.6c0-2-0.2-3.3-0.7-3.9c-0.5-0.6-1.4-0.9-2.7-1v-1.1H451.3z M447,192.1c1.3,0,2.4,0.5,3.3,1.4
					c0.9,0.9,1.4,2,1.4,3.3s-0.5,2.4-1.4,3.3c-0.9,0.9-2,1.4-3.3,1.4c-1.3,0-2.4-0.5-3.3-1.4c-0.9-0.9-1.4-2-1.4-3.3
					s0.5-2.4,1.4-3.3C444.6,192.6,445.7,192.1,447,192.1z"/>
				<path class="st1" d="M473.2,230.2c-3.5,3.1-6.6,4.6-9.3,4.6c-1.6,0-3-0.5-4-1.6c-1.1-1.1-1.6-2.4-1.6-4c0-2.2,0.9-4.1,2.8-5.9
					c1.9-1.7,5.9-4,12.2-6.9v-2.9c0-2.2-0.1-3.5-0.4-4.1c-0.2-0.6-0.7-1-1.3-1.5c-0.6-0.4-1.4-0.6-2.2-0.6c-1.3,0-2.4,0.3-3.3,0.9
					c-0.5,0.4-0.8,0.8-0.8,1.3c0,0.4,0.3,1,0.9,1.6c0.8,0.9,1.2,1.7,1.2,2.5c0,1-0.4,1.8-1.1,2.5c-0.7,0.7-1.7,1.1-2.9,1.1
					c-1.3,0-2.3-0.4-3.2-1.2c-0.9-0.8-1.3-1.7-1.3-2.7c0-1.5,0.6-2.9,1.7-4.2c1.2-1.3,2.8-2.3,4.8-3.1s4.2-1.1,6.5-1.1
					c2.7,0,4.8,0.6,6.4,1.7c1.6,1.1,2.6,2.4,3.1,3.7c0.3,0.9,0.4,2.8,0.4,5.9v11.1c0,1.3,0.1,2.1,0.2,2.5c0.1,0.3,0.3,0.6,0.5,0.7
					c0.2,0.2,0.4,0.2,0.7,0.2c0.5,0,1.1-0.4,1.6-1.1l0.9,0.7c-1,1.5-2.1,2.6-3.2,3.3c-1.1,0.7-2.3,1-3.7,1c-1.6,0-2.9-0.4-3.8-1.1
					C474,232.9,473.4,231.7,473.2,230.2z M473.2,228v-9.5c-2.5,1.4-4.3,3-5.5,4.6c-0.8,1.1-1.2,2.2-1.2,3.3c0,0.9,0.3,1.8,1,2.5
					c0.5,0.5,1.2,0.8,2.1,0.8C470.7,229.7,471.9,229.1,473.2,228z"/>
				<path class="st1" d="M518.7,215.6v11.6c0,2.2,0.1,3.6,0.4,4.2s0.8,1,1.4,1.4c0.7,0.3,2,0.5,3.9,0.5v1.1h-21.1v-1.1
					c1.9,0,3.2-0.2,3.9-0.5c0.7-0.4,1.2-0.8,1.4-1.4c0.3-0.6,0.4-2,0.4-4.2v-26.8c0-2.2-0.1-3.6-0.4-4.2c-0.3-0.6-0.8-1-1.4-1.4
					c-0.7-0.3-2-0.5-3.9-0.5v-1.1h19.2c5,0,8.6,0.3,11,1c2.3,0.7,4.2,2,5.7,3.8c1.5,1.9,2.2,4,2.2,6.5c0,3-1.1,5.6-3.3,7.6
					c-1.4,1.3-3.4,2.2-5.9,2.8l9.9,14c1.3,1.8,2.2,2.9,2.8,3.4c0.8,0.6,1.8,1,2.9,1v1.1h-13l-13.3-18.8H518.7z M518.7,195.3v18.1
					h1.7c2.8,0,4.9-0.3,6.3-0.8s2.5-1.5,3.3-2.8c0.8-1.3,1.2-3.1,1.2-5.3c0-3.1-0.7-5.5-2.2-7c-1.5-1.5-3.8-2.3-7.1-2.3H518.7z"/>
				<path class="st1" d="M555,225c1.4,0,2.6,0.5,3.6,1.5c1,1,1.5,2.2,1.5,3.6s-0.5,2.6-1.5,3.6s-2.2,1.5-3.6,1.5s-2.6-0.5-3.6-1.5
					s-1.5-2.2-1.5-3.6s0.5-2.6,1.5-3.6C552.4,225.5,553.6,225,555,225z"/>
				<path class="st1" d="M606.1,212.5c3.9,0.9,6.7,2,8.3,3.3c2.3,1.8,3.4,4.2,3.4,7.2c0,3.1-1.2,5.7-3.7,7.7
					c-3.1,2.5-7.5,3.7-13.4,3.7h-21v-1.1c1.9,0,3.2-0.2,3.9-0.5c0.7-0.4,1.2-0.8,1.4-1.4c0.3-0.6,0.4-2,0.4-4.2v-26.8
					c0-2.2-0.1-3.6-0.4-4.2c-0.3-0.6-0.8-1-1.4-1.4c-0.7-0.3-2-0.5-3.9-0.5v-1.1h19.8c4.7,0,8.1,0.4,10,1.3s3.5,2.1,4.7,3.8
					c1.1,1.7,1.7,3.5,1.7,5.3c0,2-0.7,3.8-2.2,5.3S609.7,211.6,606.1,212.5z M595,214.1v13.2l0,1.5c0,1.1,0.3,1.9,0.8,2.5
					c0.6,0.6,1.4,0.8,2.5,0.8c1.6,0,3.1-0.4,4.5-1.1c1.4-0.7,2.4-1.8,3.2-3.1c0.7-1.4,1.1-2.9,1.1-4.6c0-1.9-0.4-3.7-1.3-5.2
					c-0.9-1.5-2.1-2.6-3.7-3.2C600.5,214.3,598.1,214,595,214.1z M595,211.7c2.9,0,5-0.3,6.4-1c1.4-0.6,2.4-1.6,3.2-2.7
					s1.1-2.7,1.1-4.5c0-1.8-0.4-3.3-1.1-4.5c-0.7-1.2-1.8-2.1-3.1-2.7c-1.3-0.6-3.5-0.9-6.5-0.9V211.7z"/>
				<path class="st1" d="M646.2,219.1h-15.6c0.2,3.8,1.2,6.8,3,9c1.4,1.7,3.1,2.5,5.1,2.5c1.2,0,2.3-0.3,3.3-1
					c1-0.7,2.1-1.9,3.2-3.7l1,0.7c-1.5,3.1-3.2,5.4-5.1,6.7c-1.9,1.3-4,2-6.5,2c-4.2,0-7.4-1.6-9.6-4.9c-1.7-2.6-2.6-5.9-2.6-9.7
					c0-4.7,1.3-8.5,3.9-11.3c2.6-2.8,5.6-4.2,9-4.2c2.9,0,5.4,1.2,7.5,3.5C644.9,211,646,214.5,646.2,219.1z M638.7,217.1
					c0-3.3-0.2-5.5-0.5-6.7s-0.9-2.1-1.7-2.8c-0.4-0.4-1-0.5-1.7-0.5c-1.1,0-1.9,0.5-2.6,1.6c-1.2,1.8-1.8,4.3-1.8,7.4v1.1H638.7z"
					/>
				<path class="st1" d="M665.4,230.2c-3.5,3.1-6.6,4.6-9.3,4.6c-1.6,0-3-0.5-4-1.6c-1.1-1.1-1.6-2.4-1.6-4c0-2.2,0.9-4.1,2.8-5.9
					c1.9-1.7,5.9-4,12.2-6.9v-2.9c0-2.2-0.1-3.5-0.4-4.1c-0.2-0.6-0.7-1-1.3-1.5c-0.7-0.4-1.4-0.6-2.2-0.6c-1.3,0-2.4,0.3-3.3,0.9
					c-0.5,0.4-0.8,0.8-0.8,1.3c0,0.4,0.3,1,0.9,1.6c0.8,0.9,1.2,1.7,1.2,2.5c0,1-0.4,1.8-1.1,2.5c-0.7,0.7-1.7,1.1-2.9,1.1
					c-1.3,0-2.3-0.4-3.2-1.2c-0.9-0.8-1.3-1.7-1.3-2.7c0-1.5,0.6-2.9,1.7-4.2c1.2-1.3,2.8-2.3,4.8-3.1s4.2-1.1,6.5-1.1
					c2.7,0,4.8,0.6,6.4,1.7c1.6,1.1,2.6,2.4,3.1,3.7c0.3,0.9,0.4,2.8,0.4,5.9v11.1c0,1.3,0.1,2.1,0.2,2.5s0.3,0.6,0.5,0.7
					c0.2,0.2,0.4,0.2,0.7,0.2c0.5,0,1.1-0.4,1.6-1.1l0.9,0.7c-1,1.5-2.1,2.6-3.2,3.3s-2.3,1-3.7,1c-1.6,0-2.9-0.4-3.8-1.1
					C666.2,232.9,665.6,231.7,665.4,230.2z M665.4,228v-9.5c-2.5,1.4-4.3,3-5.5,4.6c-0.8,1.1-1.2,2.2-1.2,3.3c0,0.9,0.3,1.8,1,2.5
					c0.5,0.5,1.2,0.8,2.1,0.8C662.9,229.7,664.1,229.1,665.4,228z"/>
				<path class="st1" d="M698.9,205.1l0.5,9.7h-1c-1.2-2.9-2.5-4.9-3.9-5.9c-1.3-1.1-2.7-1.6-4-1.6c-0.8,0-1.5,0.3-2.1,0.8
					c-0.6,0.6-0.9,1.2-0.9,1.9c0,0.5,0.2,1.1,0.6,1.6c0.6,0.8,2.5,2.3,5.5,4.3c3,2,4.9,3.7,5.9,5.1c0.9,1.4,1.4,3,1.4,4.7
					c0,1.6-0.4,3.1-1.2,4.7c-0.8,1.5-1.9,2.7-3.3,3.5c-1.4,0.8-3,1.2-4.8,1.2c-1.4,0-3.2-0.4-5.5-1.3c-0.6-0.2-1-0.3-1.2-0.3
					c-0.7,0-1.2,0.5-1.7,1.5h-1l-0.5-10.2h1c0.9,2.7,2.2,4.7,3.8,6c1.6,1.3,3.1,2,4.5,2c1,0,1.8-0.3,2.4-0.9s0.9-1.3,0.9-2.2
					c0-1-0.3-1.8-0.9-2.5c-0.6-0.7-2-1.8-4.1-3.2c-3.1-2.2-5.1-3.8-6-4.9c-1.3-1.7-2-3.5-2-5.5c0-2.2,0.8-4.2,2.3-6
					c1.5-1.8,3.7-2.7,6.6-2.7c1.5,0,3,0.4,4.5,1.1c0.5,0.3,1,0.5,1.3,0.5c0.4,0,0.7-0.1,0.9-0.2c0.2-0.2,0.6-0.6,1.1-1.3H698.9z"/>
				<path class="st1" d="M716.3,193.1v35.4c0,2,0.2,3.3,0.7,3.9c0.5,0.6,1.4,0.9,2.7,1v1.1h-15.4v-1.1c1.3,0,2.2-0.4,2.8-1.1
					c0.4-0.5,0.6-1.7,0.6-3.7V199c0-2-0.2-3.3-0.7-3.8c-0.5-0.6-1.4-0.9-2.7-1v-1.1H716.3z"/>
				<path class="st1" d="M746.6,219.1H731c0.2,3.8,1.2,6.8,3,9c1.4,1.7,3.1,2.5,5.1,2.5c1.2,0,2.3-0.3,3.3-1c1-0.7,2.1-1.9,3.2-3.7
					l1,0.7c-1.5,3.1-3.2,5.4-5.1,6.7c-1.9,1.3-4,2-6.5,2c-4.2,0-7.4-1.6-9.6-4.9c-1.7-2.6-2.6-5.9-2.6-9.7c0-4.7,1.3-8.5,3.9-11.3
					c2.6-2.8,5.6-4.2,9-4.2c2.9,0,5.4,1.2,7.5,3.5C745.3,211,746.5,214.5,746.6,219.1z M739.1,217.1c0-3.3-0.2-5.5-0.5-6.7
					s-0.9-2.1-1.7-2.8c-0.4-0.4-1-0.5-1.7-0.5c-1.1,0-1.9,0.5-2.6,1.6c-1.2,1.8-1.8,4.3-1.8,7.4v1.1H739.1z"/>
				<path class="st1" d="M763.2,235.5l-9.2-21.1c-1.4-3.2-2.4-5.1-3.1-5.9c-0.7-0.7-1.5-1.2-2.4-1.5v-1.1h15.1v1.1
					c-1,0-1.7,0.2-2.1,0.6c-0.4,0.3-0.6,0.8-0.6,1.2c0,0.8,0.5,2.3,1.5,4.6l4.9,11.1l3.3-8.6c1.2-3.1,1.8-5.2,1.8-6.4
					c0-0.8-0.2-1.3-0.7-1.8c-0.5-0.4-1.4-0.7-2.6-0.7v-1.1h9.5v1.1c-0.9,0.1-1.7,0.5-2.3,1.1c-0.6,0.6-1.6,2.7-3,6.3l-8.1,21.1
					c-2,5.3-3.6,8.5-4.6,9.7c-1.4,1.7-3.2,2.6-5.3,2.6c-1.7,0-3-0.5-4.1-1.4c-1-1-1.6-2.1-1.6-3.5c0-1.2,0.4-2.2,1.1-2.9
					c0.7-0.8,1.6-1.2,2.7-1.2c1,0,1.8,0.3,2.5,1c0.6,0.6,0.9,1.7,1,3c0,0.8,0.1,1.3,0.3,1.5c0.2,0.2,0.4,0.3,0.7,0.3
					c0.5,0,1-0.3,1.6-0.9c0.8-0.9,1.8-2.8,2.9-5.8L763.2,235.5z"/>
			</g>
		</g>
		<g>
			<rect x="132.5" y="280.5" class="st1" width="785.9" height="3.7"/>
		</g>
	</g>
	<g>
		<g>
			<g>
				<path class="st1" d="M355.2,381.1v0.6c-0.4,0-0.8,0.2-1.1,0.4c-0.3,0.2-0.6,0.5-0.8,0.9c-0.1,0.1-0.4,1-1.1,2.7l-7.3,19.1h-0.7
					l-5.7-15l-6.3,15h-0.6l-7.6-18.9c-0.8-1.9-1.3-3.1-1.6-3.5c-0.3-0.4-0.8-0.6-1.6-0.7v-0.6h10.1v0.6c-0.8,0-1.3,0.1-1.6,0.4
					c-0.3,0.2-0.4,0.5-0.4,0.8c0,0.4,0.3,1.4,0.8,2.8l4.6,11.3l3.6-8.8l-1-2.5c-0.5-1.3-0.9-2.2-1.2-2.7c-0.3-0.5-0.6-0.8-1-1
					s-0.9-0.3-1.6-0.3v-0.6h11.2v0.6c-0.8,0-1.4,0.1-1.7,0.2c-0.2,0.1-0.4,0.2-0.6,0.4c-0.1,0.2-0.2,0.4-0.2,0.6
					c0,0.3,0.3,1.1,0.8,2.4l4.2,11l3.8-9.9c0.4-1,0.6-1.7,0.7-2.1c0.1-0.4,0.1-0.7,0.1-1c0-0.5-0.2-0.8-0.5-1.1
					c-0.3-0.3-0.9-0.4-1.8-0.4v-0.6H355.2z"/>
				<path class="st1" d="M368.3,395.8h-8.8c0.1,2.1,0.7,3.8,1.7,5c0.8,0.9,1.7,1.4,2.8,1.4c0.7,0,1.3-0.2,1.9-0.6
					c0.6-0.4,1.2-1.1,1.8-2.1l0.6,0.4c-0.9,1.8-1.8,3-2.9,3.8c-1,0.7-2.3,1.1-3.6,1.1c-2.4,0-4.2-0.9-5.4-2.7
					c-1-1.5-1.5-3.3-1.5-5.5c0-2.7,0.7-4.8,2.2-6.4c1.4-1.6,3.1-2.4,5.1-2.4c1.6,0,3,0.7,4.2,2C367.6,391.2,368.2,393.2,368.3,395.8
					z M364.1,394.6c0-1.8-0.1-3.1-0.3-3.8c-0.2-0.7-0.5-1.2-0.9-1.6c-0.2-0.2-0.6-0.3-1-0.3c-0.6,0-1.1,0.3-1.5,0.9
					c-0.7,1-1,2.4-1,4.2v0.6H364.1z"/>
				<path class="st1" d="M376.5,381.1v8.8c1.3-1.4,2.8-2.1,4.4-2.1c1.1,0,2.1,0.3,3.1,1c1,0.6,1.7,1.6,2.3,2.7
					c0.5,1.2,0.8,2.6,0.8,4.1c0,1.7-0.3,3.3-1,4.8c-0.7,1.4-1.6,2.5-2.8,3.3c-1.2,0.7-2.5,1.1-4,1.1c-0.9,0-1.6-0.1-2.3-0.4
					s-1.3-0.7-2-1.3l-2.7,1.7h-0.6v-20.3c0-0.9,0-1.5-0.1-1.7c-0.1-0.3-0.3-0.6-0.5-0.7c-0.2-0.2-0.7-0.2-1.2-0.3v-0.6H376.5z
					 M376.5,391.5v7.1c0,1.4,0,2.4,0.1,2.8c0.1,0.7,0.4,1.2,0.8,1.6c0.4,0.4,1,0.6,1.7,0.6c0.6,0,1.1-0.2,1.5-0.5c0.4-0.3,0.8-1,1-2
					c0.3-1,0.4-2.7,0.4-5.3c0-2.5-0.3-4.1-0.9-5c-0.4-0.7-1-1-1.8-1C378.3,389.8,377.4,390.4,376.5,391.5z"/>
				<path class="st1" d="M399.9,387.9l0.3,5.5h-0.6c-0.7-1.6-1.4-2.7-2.2-3.3c-0.7-0.6-1.5-0.9-2.2-0.9c-0.5,0-0.9,0.2-1.2,0.5
					c-0.3,0.3-0.5,0.7-0.5,1.1c0,0.3,0.1,0.6,0.3,0.9c0.4,0.5,1.4,1.3,3.1,2.4s2.8,2.1,3.3,2.9c0.5,0.8,0.8,1.7,0.8,2.7
					c0,0.9-0.2,1.8-0.7,2.6s-1.1,1.5-1.9,2c-0.8,0.5-1.7,0.7-2.7,0.7c-0.8,0-1.8-0.2-3.1-0.7c-0.3-0.1-0.6-0.2-0.7-0.2
					c-0.4,0-0.7,0.3-0.9,0.9h-0.6l-0.3-5.7h0.6c0.5,1.5,1.2,2.6,2.1,3.4c0.9,0.8,1.7,1.1,2.5,1.1c0.5,0,1-0.2,1.3-0.5
					c0.3-0.3,0.5-0.7,0.5-1.2c0-0.5-0.2-1-0.5-1.4c-0.3-0.4-1.1-1-2.3-1.8c-1.7-1.2-2.9-2.1-3.4-2.8c-0.8-0.9-1.1-2-1.1-3.1
					c0-1.2,0.4-2.3,1.3-3.3s2.1-1.5,3.7-1.5c0.9,0,1.7,0.2,2.5,0.6c0.3,0.2,0.6,0.3,0.8,0.3c0.2,0,0.4,0,0.5-0.1
					c0.1-0.1,0.3-0.3,0.6-0.7H399.9z"/>
				<path class="st1" d="M409.7,388.3V401c0,1.1,0.1,1.9,0.4,2.2c0.3,0.3,0.8,0.5,1.5,0.5v0.6H403v-0.6c0.7,0,1.2-0.2,1.6-0.6
					c0.2-0.3,0.3-1,0.3-2.1v-9.3c0-1.1-0.1-1.8-0.4-2.2c-0.3-0.3-0.8-0.5-1.5-0.5v-0.6H409.7z M407.3,380.6c0.7,0,1.4,0.3,1.9,0.8
					c0.5,0.5,0.8,1.1,0.8,1.9c0,0.7-0.3,1.4-0.8,1.9c-0.5,0.5-1.1,0.8-1.9,0.8c-0.7,0-1.4-0.3-1.9-0.8c-0.5-0.5-0.8-1.1-0.8-1.9
					c0-0.7,0.3-1.4,0.8-1.9C405.9,380.9,406.5,380.6,407.3,380.6z"/>
				<path class="st1" d="M419.5,382.5v5.9h3.8v1.7h-3.8v9.9c0,0.9,0,1.5,0.1,1.8c0.1,0.3,0.2,0.5,0.5,0.7c0.2,0.2,0.4,0.2,0.6,0.2
					c0.7,0,1.4-0.6,2.1-1.7l0.5,0.4c-0.9,2.2-2.4,3.3-4.5,3.3c-1,0-1.9-0.3-2.6-0.8c-0.7-0.6-1.1-1.2-1.3-1.9
					c-0.1-0.4-0.2-1.4-0.2-3.1V390h-2.1v-0.6c1.4-1,2.7-2.1,3.7-3.2c1-1.1,1.9-2.4,2.6-3.7H419.5z"/>
				<path class="st1" d="M438.4,395.8h-8.8c0.1,2.1,0.7,3.8,1.7,5c0.8,0.9,1.7,1.4,2.8,1.4c0.7,0,1.3-0.2,1.9-0.6
					c0.6-0.4,1.2-1.1,1.8-2.1l0.6,0.4c-0.9,1.8-1.8,3-2.9,3.8c-1,0.7-2.3,1.1-3.6,1.1c-2.4,0-4.2-0.9-5.4-2.7
					c-1-1.5-1.5-3.3-1.5-5.5c0-2.7,0.7-4.8,2.2-6.4c1.4-1.6,3.1-2.4,5.1-2.4c1.6,0,3,0.7,4.2,2C437.6,391.2,438.3,393.2,438.4,395.8
					z M434.2,394.6c0-1.8-0.1-3.1-0.3-3.8c-0.2-0.7-0.5-1.2-0.9-1.6c-0.2-0.2-0.6-0.3-1-0.3c-0.6,0-1.1,0.3-1.5,0.9
					c-0.7,1-1,2.4-1,4.2v0.6H434.2z"/>
				<path class="st1" d="M445,399.1c0.8,0,1.5,0.3,2,0.8c0.6,0.6,0.8,1.2,0.8,2s-0.3,1.5-0.8,2c-0.6,0.6-1.2,0.8-2,0.8
					c-0.8,0-1.5-0.3-2-0.8c-0.6-0.6-0.8-1.2-0.8-2s0.3-1.5,0.8-2C443.6,399.3,444.2,399.1,445,399.1z M445,387.9
					c0.8,0,1.5,0.3,2,0.8c0.6,0.6,0.8,1.2,0.8,2s-0.3,1.5-0.8,2c-0.6,0.6-1.2,0.8-2,0.8c-0.8,0-1.5-0.3-2-0.8
					c-0.6-0.6-0.8-1.2-0.8-2s0.3-1.5,0.8-2C443.6,388.2,444.3,387.9,445,387.9z"/>
			</g>
			<g>
				<g>
					<path class="st1" d="M472.3,390h6.6v0.6c-0.6,0-1,0.2-1.2,0.3c-0.2,0.2-0.3,0.4-0.3,0.7c0,0.4,0.1,0.8,0.3,1.3l3.4,9l3.4-7.3
						l-0.9-2.3c-0.3-0.7-0.6-1.2-1.1-1.4c-0.3-0.2-0.7-0.3-1.4-0.3V390h7.5v0.6c-0.8,0-1.4,0.2-1.7,0.4c-0.2,0.2-0.3,0.5-0.3,0.9
						c0,0.2,0,0.5,0.1,0.7l3.6,9l3.3-8.7c0.2-0.6,0.3-1.1,0.3-1.5c0-0.2-0.1-0.4-0.3-0.6c-0.2-0.2-0.7-0.3-1.3-0.3V390h4.9v0.6
						c-1,0.1-1.7,0.8-2.2,2l-5.2,13.5h-0.7l-3.9-10l-4.6,10h-0.6l-5-13.2c-0.3-0.8-0.7-1.4-1-1.7c-0.3-0.3-0.8-0.5-1.5-0.7V390z"/>
					<path class="st1" d="M497.6,390h6.6v0.6c-0.6,0-1,0.2-1.2,0.3c-0.2,0.2-0.3,0.4-0.3,0.7c0,0.4,0.1,0.8,0.3,1.3l3.4,9l3.4-7.3
						l-0.9-2.3c-0.3-0.7-0.6-1.2-1.1-1.4c-0.3-0.2-0.7-0.3-1.4-0.3V390h7.5v0.6c-0.8,0-1.4,0.2-1.7,0.4c-0.2,0.2-0.3,0.5-0.3,0.9
						c0,0.2,0,0.5,0.1,0.7l3.6,9l3.3-8.7c0.2-0.6,0.3-1.1,0.3-1.5c0-0.2-0.1-0.4-0.3-0.6c-0.2-0.2-0.7-0.3-1.3-0.3V390h4.9v0.6
						c-1,0.1-1.7,0.8-2.2,2l-5.2,13.5h-0.7l-3.9-10l-4.6,10h-0.6l-5-13.2c-0.3-0.8-0.7-1.4-1-1.7c-0.3-0.3-0.8-0.5-1.5-0.7V390z"/>
					<path class="st1" d="M522.9,390h6.6v0.6c-0.6,0-1,0.2-1.2,0.3s-0.3,0.4-0.3,0.7c0,0.4,0.1,0.8,0.3,1.3l3.4,9l3.4-7.3l-0.9-2.3
						c-0.3-0.7-0.6-1.2-1.1-1.4c-0.3-0.2-0.7-0.3-1.4-0.3V390h7.5v0.6c-0.8,0-1.4,0.2-1.7,0.4c-0.2,0.2-0.3,0.5-0.3,0.9
						c0,0.2,0,0.5,0.1,0.7l3.6,9l3.3-8.7c0.2-0.6,0.3-1.1,0.3-1.5c0-0.2-0.1-0.4-0.3-0.6c-0.2-0.2-0.7-0.3-1.3-0.3V390h4.9v0.6
						c-1,0.1-1.7,0.8-2.2,2l-5.2,13.5h-0.7l-3.9-10l-4.6,10h-0.6l-5-13.2c-0.3-0.8-0.7-1.4-1-1.7c-0.3-0.3-0.8-0.5-1.5-0.7V390z"/>
					<path class="st1" d="M550,402.4c0.5,0,1,0.2,1.4,0.6c0.4,0.4,0.5,0.8,0.5,1.3s-0.2,1-0.6,1.3c-0.4,0.4-0.8,0.6-1.3,0.6
						c-0.5,0-1-0.2-1.3-0.6c-0.4-0.4-0.6-0.8-0.6-1.3c0-0.5,0.2-1,0.6-1.4C549.1,402.5,549.5,402.4,550,402.4z"/>
					<path class="st1" d="M554.6,390h6.6v0.6c-0.6,0-1,0.2-1.2,0.3c-0.2,0.2-0.3,0.4-0.3,0.7c0,0.4,0.1,0.8,0.3,1.3l3.4,9l3.4-7.3
						l-0.9-2.3c-0.3-0.7-0.6-1.2-1.1-1.4c-0.3-0.2-0.7-0.3-1.4-0.3V390h7.5v0.6c-0.8,0-1.4,0.2-1.7,0.4c-0.2,0.2-0.3,0.5-0.3,0.9
						c0,0.2,0,0.5,0.1,0.7l3.6,9l3.3-8.7c0.2-0.6,0.3-1.1,0.3-1.5c0-0.2-0.1-0.4-0.3-0.6c-0.2-0.2-0.7-0.3-1.3-0.3V390h4.9v0.6
						c-1,0.1-1.7,0.8-2.2,2l-5.2,13.5h-0.7l-3.9-10l-4.6,10h-0.6l-5-13.2c-0.3-0.8-0.7-1.4-1-1.7c-0.3-0.3-0.8-0.5-1.5-0.7V390z"/>
					<path class="st1" d="M583.5,395.9c0,2.3,0.6,4.2,1.7,5.5s2.5,2,4,2c1,0,1.9-0.3,2.7-0.8c0.8-0.6,1.4-1.5,1.9-2.9l0.5,0.3
						c-0.2,1.6-0.9,3-2.1,4.3s-2.6,1.9-4.3,1.9c-1.9,0-3.5-0.7-4.8-2.2c-1.3-1.5-2-3.4-2-5.9c0-2.7,0.7-4.8,2.1-6.3
						c1.4-1.5,3.1-2.3,5.2-2.3c1.8,0,3.2,0.6,4.3,1.7c1.1,1.2,1.7,2.7,1.7,4.6H583.5z M583.5,394.9h7.3c-0.1-1-0.2-1.7-0.4-2.1
						c-0.3-0.6-0.7-1.1-1.3-1.5s-1.2-0.5-1.8-0.5c-0.9,0-1.8,0.4-2.5,1.1C584,392.6,583.6,393.6,583.5,394.9z"/>
					<path class="st1" d="M600.7,392.7c1.5-2.1,3.2-3.2,4.9-3.2c1.6,0,3,0.7,4.2,2.1c1.2,1.4,1.8,3.3,1.8,5.6c0,2.8-0.9,5-2.8,6.7
						c-1.6,1.5-3.4,2.2-5.3,2.2c-0.9,0-1.8-0.2-2.8-0.5c-0.9-0.3-1.9-0.8-2.9-1.5v-16.2c0-1.8,0-2.9-0.1-3.3
						c-0.1-0.4-0.2-0.7-0.4-0.8c-0.2-0.1-0.4-0.2-0.7-0.2c-0.3,0-0.7,0.1-1.2,0.3l-0.2-0.6l4.7-1.9h0.8V392.7z M600.7,393.8v9.4
						c0.6,0.6,1.2,1,1.8,1.3c0.6,0.3,1.3,0.4,1.9,0.4c1,0,2-0.6,2.9-1.7s1.3-2.8,1.3-5c0-2-0.4-3.5-1.3-4.6s-1.9-1.6-3.1-1.6
						c-0.6,0-1.2,0.2-1.8,0.5C602,392.7,601.4,393.1,600.7,393.8z"/>
					<path class="st1" d="M624,389.6v5.3h-0.6c-0.4-1.7-1-2.8-1.7-3.4s-1.5-0.9-2.6-0.9c-0.8,0-1.4,0.2-1.9,0.6s-0.7,0.9-0.7,1.4
						c0,0.6,0.2,1.2,0.5,1.6c0.4,0.5,1.1,1,2.2,1.5l2.5,1.2c2.3,1.1,3.5,2.6,3.5,4.5c0,1.4-0.5,2.6-1.6,3.4
						c-1.1,0.9-2.3,1.3-3.6,1.3c-1,0-2.1-0.2-3.3-0.5c-0.4-0.1-0.7-0.2-0.9-0.2c-0.3,0-0.5,0.1-0.6,0.4h-0.6v-5.6h0.6
						c0.3,1.6,0.9,2.8,1.8,3.6c0.9,0.8,1.9,1.2,3,1.2c0.8,0,1.4-0.2,1.9-0.7s0.7-1,0.7-1.7c0-0.8-0.3-1.4-0.8-2
						c-0.6-0.5-1.7-1.2-3.3-2c-1.7-0.8-2.7-1.6-3.3-2.2c-0.5-0.7-0.8-1.5-0.8-2.5c0-1.3,0.4-2.4,1.3-3.2c0.9-0.9,2-1.3,3.4-1.3
						c0.6,0,1.4,0.1,2.2,0.4c0.6,0.2,1,0.3,1.2,0.3c0.2,0,0.3,0,0.4-0.1c0.1-0.1,0.2-0.3,0.4-0.5H624z"/>
					<path class="st1" d="M632.9,389.6v12.6c0,1,0.1,1.6,0.2,2c0.1,0.3,0.4,0.6,0.6,0.7c0.3,0.2,0.8,0.2,1.5,0.2v0.6h-7.6v-0.6
						c0.8,0,1.3-0.1,1.5-0.2s0.5-0.4,0.6-0.7c0.2-0.3,0.2-1,0.2-2v-6c0-1.7-0.1-2.8-0.2-3.3c-0.1-0.4-0.2-0.6-0.4-0.8
						s-0.4-0.2-0.7-0.2c-0.3,0-0.7,0.1-1.2,0.3l-0.2-0.6l4.7-1.9H632.9z M631.5,381.4c0.5,0,0.9,0.2,1.2,0.5
						c0.3,0.3,0.5,0.7,0.5,1.2s-0.2,0.9-0.5,1.2c-0.3,0.3-0.7,0.5-1.2,0.5s-0.9-0.2-1.2-0.5c-0.3-0.3-0.5-0.8-0.5-1.2
						s0.2-0.9,0.5-1.2C630.6,381.5,631,381.4,631.5,381.4z"/>
					<path class="st1" d="M641.8,384.9v5.1h3.7v1.2h-3.7v10.2c0,1,0.1,1.7,0.4,2.1s0.7,0.5,1.1,0.5c0.4,0,0.7-0.1,1.1-0.4
						c0.4-0.2,0.6-0.6,0.8-1h0.7c-0.4,1.1-1,2-1.7,2.5c-0.7,0.6-1.5,0.8-2.3,0.8c-0.5,0-1-0.1-1.5-0.4s-0.9-0.7-1.1-1.2
						c-0.2-0.5-0.4-1.4-0.4-2.5v-10.5h-2.5v-0.6c0.6-0.3,1.3-0.7,1.9-1.3s1.2-1.3,1.8-2.1c0.3-0.4,0.6-1.2,1.1-2.4H641.8z"/>
					<path class="st1" d="M649.6,395.9c0,2.3,0.6,4.2,1.7,5.5s2.5,2,4,2c1,0,1.9-0.3,2.7-0.8c0.8-0.6,1.4-1.5,1.9-2.9l0.5,0.3
						c-0.2,1.6-0.9,3-2.1,4.3s-2.6,1.9-4.3,1.9c-1.9,0-3.5-0.7-4.8-2.2c-1.3-1.5-2-3.4-2-5.9c0-2.7,0.7-4.8,2.1-6.3
						c1.4-1.5,3.1-2.3,5.2-2.3c1.8,0,3.2,0.6,4.3,1.7c1.1,1.2,1.7,2.7,1.7,4.6H649.6z M649.6,394.9h7.3c-0.1-1-0.2-1.7-0.4-2.1
						c-0.3-0.6-0.7-1.1-1.3-1.5s-1.2-0.5-1.8-0.5c-0.9,0-1.8,0.4-2.5,1.1C650.2,392.6,649.8,393.6,649.6,394.9z"/>
					<path class="st1" d="M665.8,402.4c0.5,0,1,0.2,1.4,0.6c0.4,0.4,0.5,0.8,0.5,1.3s-0.2,1-0.6,1.3c-0.4,0.4-0.8,0.6-1.3,0.6
						c-0.5,0-1-0.2-1.3-0.6c-0.4-0.4-0.6-0.8-0.6-1.3c0-0.5,0.2-1,0.6-1.4C664.9,402.5,665.3,402.4,665.8,402.4z"/>
					<path class="st1" d="M684.6,399.7c-0.4,2.1-1.2,3.7-2.5,4.8c-1.2,1.1-2.6,1.7-4.1,1.7c-1.8,0-3.3-0.7-4.7-2.2s-2-3.5-2-6.1
						c0-2.5,0.7-4.5,2.2-6c1.5-1.5,3.2-2.3,5.3-2.3c1.5,0,2.8,0.4,3.8,1.2s1.5,1.7,1.5,2.5c0,0.4-0.1,0.8-0.4,1.1
						c-0.3,0.3-0.7,0.4-1.2,0.4c-0.7,0-1.2-0.2-1.5-0.7c-0.2-0.2-0.3-0.7-0.4-1.4c-0.1-0.7-0.3-1.2-0.7-1.5c-0.4-0.3-1-0.5-1.7-0.5
						c-1.1,0-2.1,0.4-2.8,1.3c-0.9,1.1-1.4,2.6-1.4,4.4c0,1.9,0.5,3.5,1.4,5c0.9,1.4,2.2,2.1,3.7,2.1c1.1,0,2.1-0.4,3-1.1
						c0.6-0.5,1.2-1.5,1.8-2.9L684.6,399.7z"/>
					<path class="st1" d="M694.5,389.6c2.4,0,4.3,0.9,5.7,2.7c1.2,1.5,1.8,3.3,1.8,5.3c0,1.4-0.3,2.8-1,4.3
						c-0.7,1.4-1.6,2.5-2.8,3.3c-1.2,0.7-2.5,1.1-3.9,1.1c-2.4,0-4.2-0.9-5.6-2.8c-1.2-1.6-1.8-3.4-1.8-5.3c0-1.4,0.4-2.9,1.1-4.3
						c0.7-1.4,1.7-2.5,2.8-3.1C692,389.9,693.2,389.6,694.5,389.6z M694,390.7c-0.6,0-1.2,0.2-1.8,0.5c-0.6,0.4-1.1,1-1.5,1.9
						c-0.4,0.9-0.6,2.1-0.6,3.5c0,2.3,0.5,4.2,1.4,5.9c0.9,1.7,2.1,2.5,3.6,2.5c1.1,0,2-0.5,2.7-1.4c0.7-0.9,1.1-2.5,1.1-4.7
						c0-2.8-0.6-5-1.8-6.6C696.3,391.2,695.2,390.7,694,390.7z"/>
					<path class="st1" d="M709,392.9c1.1-1.1,1.8-1.8,2-2c0.5-0.4,1.1-0.8,1.7-1c0.6-0.2,1.2-0.4,1.8-0.4c1,0,1.8,0.3,2.5,0.9
						s1.2,1.4,1.4,2.5c1.2-1.4,2.2-2.3,3-2.7s1.6-0.6,2.5-0.6c0.8,0,1.6,0.2,2.2,0.6c0.6,0.4,1.2,1.1,1.5,2.1
						c0.3,0.7,0.4,1.7,0.4,3.1v6.7c0,1,0.1,1.7,0.2,2c0.1,0.3,0.3,0.5,0.6,0.6c0.3,0.2,0.8,0.3,1.5,0.3v0.6h-7.7v-0.6h0.3
						c0.7,0,1.2-0.1,1.6-0.4c0.3-0.2,0.5-0.5,0.6-0.9c0-0.2,0.1-0.7,0.1-1.7v-6.7c0-1.3-0.2-2.2-0.5-2.7c-0.4-0.7-1.2-1.1-2.1-1.1
						c-0.6,0-1.2,0.2-1.8,0.5c-0.6,0.3-1.3,0.9-2.2,1.7l0,0.2l0,0.7v7.5c0,1.1,0.1,1.7,0.2,2c0.1,0.3,0.3,0.5,0.7,0.7
						c0.3,0.2,0.9,0.3,1.7,0.3v0.6h-7.9v-0.6c0.9,0,1.5-0.1,1.8-0.3c0.3-0.2,0.6-0.5,0.7-0.9c0.1-0.2,0.1-0.8,0.1-1.7v-6.7
						c0-1.3-0.2-2.2-0.6-2.8c-0.5-0.7-1.2-1.1-2.1-1.1c-0.6,0-1.2,0.2-1.8,0.5c-0.9,0.5-1.7,1.1-2.2,1.7v8.4c0,1,0.1,1.7,0.2,2
						c0.1,0.3,0.4,0.5,0.6,0.7c0.3,0.2,0.8,0.2,1.7,0.2v0.6h-7.7v-0.6c0.7,0,1.2-0.1,1.5-0.2c0.3-0.2,0.5-0.4,0.7-0.7
						c0.1-0.3,0.2-1,0.2-2v-6c0-1.7-0.1-2.8-0.2-3.3c-0.1-0.4-0.2-0.6-0.4-0.8c-0.2-0.1-0.4-0.2-0.7-0.2c-0.3,0-0.7,0.1-1.1,0.3
						l-0.3-0.6l4.7-1.9h0.7V392.9z"/>
				</g>
			</g>
		</g>
	</g>
	<g>
		<g>
			<path class="st1" d="M652.5,341.3v5.6c0,1.1,0.1,1.8,0.2,2.1c0.1,0.3,0.4,0.5,0.7,0.7c0.3,0.2,1,0.3,1.9,0.3v0.6h-10.4V350
				c0.9,0,1.6-0.1,1.9-0.3c0.3-0.2,0.6-0.4,0.7-0.7c0.1-0.3,0.2-1,0.2-2.1v-13.2c0-1.1-0.1-1.8-0.2-2.1c-0.1-0.3-0.4-0.5-0.7-0.7
				c-0.3-0.2-1-0.3-1.9-0.3v-0.6h8.9c2.9,0,5,0.5,6.3,1.6c1.3,1,1.9,2.3,1.9,3.9c0,1.3-0.4,2.5-1.2,3.4s-2,1.6-3.4,1.9
				C656.4,341.2,654.8,341.3,652.5,341.3z M652.5,331.3v8.8c0.3,0,0.6,0,0.8,0c1.2,0,2.2-0.4,2.8-1.1c0.7-0.7,1-1.8,1-3.4
				c0-1.5-0.3-2.6-1-3.3s-1.6-1.1-3-1.1H652.5z"/>
			<path class="st1" d="M669.7,330.1v8.1c0.8-0.8,1.5-1.4,2.1-1.7c0.6-0.3,1.3-0.5,2-0.5c0.9,0,1.6,0.3,2.3,0.8s1,1.1,1.2,1.8
				c0.2,0.7,0.3,1.8,0.3,3.4v5.5c0,1.1,0.1,1.7,0.3,2s0.6,0.4,1.2,0.5v0.5h-7.1V350c0.5-0.1,0.9-0.3,1.1-0.6
				c0.2-0.3,0.3-0.9,0.3-1.9v-6.3c0-1.2,0-1.9-0.1-2.2c-0.1-0.3-0.2-0.5-0.5-0.7c-0.2-0.2-0.5-0.2-0.7-0.2c-0.4,0-0.8,0.1-1.2,0.4
				c-0.4,0.3-0.8,0.8-1.2,1.4v7.5c0,1,0.1,1.6,0.2,1.9c0.2,0.3,0.6,0.6,1.2,0.6v0.5H664V350c0.6-0.1,1-0.3,1.3-0.6
				c0.2-0.2,0.3-0.9,0.3-1.9v-14.3c0-1.1-0.1-1.7-0.3-2c-0.2-0.3-0.6-0.4-1.2-0.5v-0.6H669.7z"/>
			<path class="st1" d="M687.7,336c1.2,0,2.4,0.3,3.4,0.9s1.9,1.5,2.4,2.7s0.8,2.4,0.8,3.8c0,2-0.5,3.7-1.5,5
				c-1.2,1.6-2.9,2.4-5.1,2.4c-2.1,0-3.7-0.7-4.9-2.2s-1.7-3.2-1.7-5.2c0-2,0.6-3.8,1.8-5.3C684.1,336.8,685.7,336,687.7,336z
				 M687.8,337.1c-0.5,0-0.9,0.2-1.3,0.6c-0.4,0.4-0.6,1.1-0.7,2.3s-0.2,2.7-0.2,4.7c0,1.1,0.1,2.1,0.2,3c0.1,0.7,0.3,1.3,0.7,1.6
				c0.4,0.4,0.8,0.6,1.2,0.6c0.5,0,0.8-0.1,1.1-0.4c0.4-0.3,0.7-0.8,0.8-1.4c0.2-1,0.3-2.9,0.3-5.8c0-1.7-0.1-2.9-0.3-3.5
				c-0.2-0.6-0.5-1.1-0.8-1.4C688.6,337.2,688.2,337.1,687.8,337.1z"/>
			<path class="st1" d="M702.2,336.5v1.8c0.7-0.8,1.4-1.3,2.1-1.7s1.4-0.5,2.1-0.5c0.9,0,1.7,0.3,2.3,0.8s1,1.1,1.2,1.9
				c0.2,0.6,0.2,1.7,0.2,3.3v5.5c0,1.1,0.1,1.8,0.3,2s0.6,0.4,1.2,0.5v0.5h-7.1V350c0.5-0.1,0.9-0.3,1.1-0.7
				c0.2-0.3,0.2-0.9,0.2-1.9v-6.3c0-1.2,0-1.9-0.1-2.2c-0.1-0.3-0.2-0.5-0.5-0.7c-0.2-0.2-0.5-0.2-0.7-0.2c-0.9,0-1.7,0.6-2.4,1.8
				v7.5c0,1.1,0.1,1.7,0.3,2s0.6,0.5,1.1,0.5v0.5h-7.1V350c0.6-0.1,1-0.3,1.3-0.6c0.2-0.2,0.3-0.9,0.3-2v-7.9c0-1.1-0.1-1.7-0.3-2
				s-0.6-0.4-1.2-0.5v-0.6H702.2z"/>
			<path class="st1" d="M725.5,343h-7.7c0.1,1.9,0.6,3.3,1.5,4.4c0.7,0.8,1.5,1.2,2.5,1.2c0.6,0,1.1-0.2,1.6-0.5
				c0.5-0.3,1-0.9,1.6-1.8l0.5,0.3c-0.8,1.6-1.6,2.7-2.5,3.3c-0.9,0.6-2,1-3.2,1c-2.1,0-3.7-0.8-4.7-2.4c-0.9-1.3-1.3-2.9-1.3-4.8
				c0-2.3,0.6-4.2,1.9-5.6c1.3-1.4,2.8-2.1,4.5-2.1c1.4,0,2.7,0.6,3.7,1.8C724.9,339,725.4,340.7,725.5,343z M721.8,342
				c0-1.6-0.1-2.7-0.3-3.3c-0.2-0.6-0.4-1.1-0.8-1.4c-0.2-0.2-0.5-0.3-0.8-0.3c-0.5,0-0.9,0.3-1.3,0.8c-0.6,0.9-0.9,2.1-0.9,3.7v0.5
				H721.8z"/>
			<path class="st1" d="M731.4,345.9c0.7,0,1.3,0.2,1.8,0.7c0.5,0.5,0.7,1.1,0.7,1.8c0,0.7-0.2,1.3-0.7,1.8
				c-0.5,0.5-1.1,0.7-1.8,0.7s-1.3-0.2-1.8-0.7c-0.5-0.5-0.7-1.1-0.7-1.8c0-0.7,0.2-1.3,0.7-1.8
				C730.1,346.1,730.7,345.9,731.4,345.9z M731.4,336.1c0.7,0,1.3,0.2,1.8,0.7c0.5,0.5,0.7,1.1,0.7,1.8s-0.2,1.3-0.7,1.8
				c-0.5,0.5-1.1,0.7-1.8,0.7c-0.7,0-1.3-0.2-1.8-0.7c-0.5-0.5-0.7-1.1-0.7-1.8s0.2-1.3,0.7-1.8
				C730.1,336.3,730.7,336.1,731.4,336.1z"/>
		</g>
		<g>
			<g>
				<path class="st1" d="M754.2,341.4c-1.6-1.3-2.7-2.4-3.1-3.2c-0.5-0.8-0.7-1.6-0.7-2.5c0-1.3,0.5-2.5,1.5-3.4
					c1-1,2.4-1.4,4.1-1.4c1.6,0,3,0.4,4,1.3c1,0.9,1.5,1.9,1.5,3c0,0.8-0.3,1.5-0.8,2.3s-1.7,1.7-3.4,2.8c1.8,1.4,2.9,2.4,3.5,3.2
					c0.8,1,1.1,2.1,1.1,3.2c0,1.4-0.5,2.7-1.6,3.7s-2.5,1.5-4.3,1.5c-1.9,0-3.4-0.6-4.5-1.8c-0.9-1-1.3-2-1.3-3.2
					c0-0.9,0.3-1.8,0.9-2.7C751.7,343.5,752.8,342.5,754.2,341.4z M755,342c-0.8,0.7-1.4,1.5-1.8,2.3c-0.4,0.8-0.6,1.7-0.6,2.7
					c0,1.3,0.4,2.3,1.1,3.1s1.6,1.2,2.7,1.2c1.1,0,1.9-0.3,2.6-0.9c0.7-0.6,1-1.4,1-2.2c0-0.7-0.2-1.4-0.6-1.9
					C758.6,345.1,757.1,343.7,755,342z M756.6,339.8c1.2-1.1,2-1.9,2.3-2.6c0.3-0.6,0.5-1.3,0.5-2.1c0-1.1-0.3-1.9-0.9-2.5
					s-1.4-0.9-2.4-0.9c-1,0-1.9,0.3-2.5,0.9c-0.6,0.6-1,1.3-1,2.1c0,0.5,0.1,1,0.4,1.6c0.3,0.5,0.6,1,1.1,1.5L756.6,339.8z"/>
				<path class="st1" d="M767.3,333.3l5-2.4h0.5v17.2c0,1.1,0,1.9,0.1,2.1c0.1,0.3,0.3,0.5,0.6,0.6c0.3,0.2,0.9,0.2,1.8,0.3v0.6
					h-7.7v-0.6c1,0,1.6-0.1,1.9-0.2s0.5-0.3,0.6-0.6s0.2-1,0.2-2.2v-11c0-1.5,0-2.4-0.2-2.9c-0.1-0.3-0.2-0.6-0.4-0.7
					s-0.4-0.2-0.7-0.2c-0.4,0-0.9,0.2-1.5,0.5L767.3,333.3z"/>
				<path class="st1" d="M785,341.4c-1.6-1.3-2.7-2.4-3.1-3.2c-0.5-0.8-0.7-1.6-0.7-2.5c0-1.3,0.5-2.5,1.5-3.4c1-1,2.4-1.4,4.1-1.4
					c1.6,0,3,0.4,4,1.3c1,0.9,1.5,1.9,1.5,3c0,0.8-0.3,1.5-0.8,2.3s-1.7,1.7-3.4,2.8c1.8,1.4,2.9,2.4,3.5,3.2c0.8,1,1.1,2.1,1.1,3.2
					c0,1.4-0.5,2.7-1.6,3.7s-2.5,1.5-4.3,1.5c-1.9,0-3.4-0.6-4.5-1.8c-0.9-1-1.3-2-1.3-3.2c0-0.9,0.3-1.8,0.9-2.7
					C782.5,343.5,783.5,342.5,785,341.4z M785.7,342c-0.8,0.7-1.4,1.5-1.8,2.3c-0.4,0.8-0.6,1.7-0.6,2.7c0,1.3,0.4,2.3,1.1,3.1
					s1.6,1.2,2.7,1.2c1.1,0,1.9-0.3,2.6-0.9c0.7-0.6,1-1.4,1-2.2c0-0.7-0.2-1.4-0.6-1.9C789.3,345.1,787.9,343.7,785.7,342z
					 M787.4,339.8c1.2-1.1,2-1.9,2.3-2.6c0.3-0.6,0.5-1.3,0.5-2.1c0-1.1-0.3-1.9-0.9-2.5s-1.4-0.9-2.4-0.9c-1,0-1.9,0.3-2.5,0.9
					c-0.6,0.6-1,1.3-1,2.1c0,0.5,0.1,1,0.4,1.6c0.3,0.5,0.6,1,1.1,1.5L787.4,339.8z"/>
				<path class="st1" d="M795.7,343.7h7.8v2.3h-7.8V343.7z"/>
				<path class="st1" d="M818.5,330.9v0.6c-1.3,0.1-2.4,0.4-3.2,0.8c-0.8,0.4-1.7,1-2.5,1.8s-1.5,1.7-2,2.7c-0.5,1-1,2.2-1.3,3.6
					c1.4-1,2.9-1.5,4.3-1.5c1.4,0,2.6,0.6,3.6,1.7c1,1.1,1.5,2.6,1.5,4.3c0,1.7-0.5,3.3-1.5,4.7c-1.2,1.7-2.9,2.6-4.9,2.6
					c-1.4,0-2.6-0.5-3.5-1.4c-1.9-1.8-2.9-4.1-2.9-7c0-1.8,0.4-3.6,1.1-5.2c0.7-1.6,1.8-3.1,3.1-4.4c1.4-1.3,2.7-2.1,3.9-2.6
					c1.2-0.4,2.4-0.7,3.5-0.7H818.5z M809.2,341.4c-0.2,1.4-0.3,2.4-0.3,3.3c0,1,0.2,2,0.5,3.1c0.4,1.1,0.9,2,1.6,2.7
					c0.5,0.5,1.1,0.7,1.9,0.7c0.9,0,1.6-0.4,2.3-1.2c0.7-0.8,1-2,1-3.5c0-1.7-0.3-3.2-1-4.4c-0.7-1.3-1.6-1.9-2.9-1.9
					c-0.4,0-0.8,0.1-1.2,0.2C810.7,340.5,810,340.9,809.2,341.4z"/>
				<path class="st1" d="M823.7,333.3l5-2.4h0.5v17.2c0,1.1,0,1.9,0.1,2.1c0.1,0.3,0.3,0.5,0.6,0.6c0.3,0.2,0.9,0.2,1.8,0.3v0.6
					h-7.7v-0.6c1,0,1.6-0.1,1.9-0.2s0.5-0.3,0.6-0.6s0.2-1,0.2-2.2v-11c0-1.5,0-2.4-0.2-2.9c-0.1-0.3-0.2-0.6-0.4-0.7
					s-0.4-0.2-0.7-0.2c-0.4,0-0.9,0.2-1.5,0.5L823.7,333.3z"/>
				<path class="st1" d="M836.6,341.6c0-2.3,0.4-4.3,1.1-6s1.6-2.9,2.8-3.7c0.9-0.7,1.8-1,2.8-1c1.6,0,3,0.8,4.2,2.4
					c1.6,2,2.3,4.6,2.3,8c0,2.4-0.3,4.4-1,6c-0.7,1.7-1.5,2.9-2.6,3.6s-2.1,1.1-3.1,1.1c-1.9,0-3.6-1.1-4.9-3.4
					C837.2,346.7,836.6,344.4,836.6,341.6z M839.6,342c0,2.8,0.3,5.1,1,6.9c0.6,1.5,1.4,2.2,2.6,2.2c0.5,0,1.1-0.2,1.7-0.7
					c0.6-0.5,1-1.3,1.3-2.4c0.5-1.7,0.7-4.2,0.7-7.3c0-2.3-0.2-4.3-0.7-5.8c-0.4-1.2-0.8-2-1.4-2.4c-0.4-0.3-0.9-0.5-1.5-0.5
					c-0.7,0-1.3,0.3-1.8,0.9c-0.7,0.8-1.2,2.1-1.5,3.9C839.7,338.5,839.6,340.3,839.6,342z"/>
				<path class="st1" d="M852.1,343.7h7.8v2.3h-7.8V343.7z"/>
				<path class="st1" d="M864.7,333.3l5-2.4h0.5v17.2c0,1.1,0,1.9,0.1,2.1c0.1,0.3,0.3,0.5,0.6,0.6c0.3,0.2,0.9,0.2,1.8,0.3v0.6
					h-7.7v-0.6c1,0,1.6-0.1,1.9-0.2s0.5-0.3,0.6-0.6s0.2-1,0.2-2.2v-11c0-1.5,0-2.4-0.2-2.9c-0.1-0.3-0.2-0.6-0.4-0.7
					s-0.4-0.2-0.7-0.2c-0.4,0-0.9,0.2-1.5,0.5L864.7,333.3z"/>
				<path class="st1" d="M882.4,341.4c-1.6-1.3-2.7-2.4-3.1-3.2c-0.5-0.8-0.7-1.6-0.7-2.5c0-1.3,0.5-2.5,1.5-3.4
					c1-1,2.4-1.4,4.1-1.4c1.6,0,3,0.4,4,1.3c1,0.9,1.5,1.9,1.5,3c0,0.8-0.3,1.5-0.8,2.3s-1.7,1.7-3.4,2.8c1.8,1.4,2.9,2.4,3.5,3.2
					c0.8,1,1.1,2.1,1.1,3.2c0,1.4-0.5,2.7-1.6,3.7s-2.5,1.5-4.3,1.5c-1.9,0-3.4-0.6-4.5-1.8c-0.9-1-1.3-2-1.3-3.2
					c0-0.9,0.3-1.8,0.9-2.7C879.9,343.5,880.9,342.5,882.4,341.4z M883.1,342c-0.8,0.7-1.4,1.5-1.8,2.3c-0.4,0.8-0.6,1.7-0.6,2.7
					c0,1.3,0.4,2.3,1.1,3.1s1.6,1.2,2.7,1.2c1.1,0,1.9-0.3,2.6-0.9c0.7-0.6,1-1.4,1-2.2c0-0.7-0.2-1.4-0.6-1.9
					C886.7,345.1,885.3,343.7,883.1,342z M884.8,339.8c1.2-1.1,2-1.9,2.3-2.6c0.3-0.6,0.5-1.3,0.5-2.1c0-1.1-0.3-1.9-0.9-2.5
					s-1.4-0.9-2.4-0.9c-1,0-1.9,0.3-2.5,0.9c-0.6,0.6-1,1.3-1,2.1c0,0.5,0.1,1,0.4,1.6c0.3,0.5,0.6,1,1.1,1.5L884.8,339.8z"/>
				<path class="st1" d="M893.5,335.2c0.6-1.4,1.3-2.4,2.2-3.2c0.9-0.7,2-1.1,3.3-1.1c1.6,0,2.9,0.5,3.8,1.6c0.7,0.8,1,1.6,1,2.5
					c0,1.5-0.9,3-2.8,4.6c1.3,0.5,2.2,1.2,2.8,2.1c0.6,0.9,1,2,1,3.2c0,1.8-0.6,3.3-1.7,4.6c-1.5,1.7-3.6,2.5-6.4,2.5
					c-1.4,0-2.3-0.2-2.8-0.5c-0.5-0.3-0.7-0.7-0.7-1.1c0-0.3,0.1-0.5,0.4-0.8c0.2-0.2,0.5-0.3,0.8-0.3c0.3,0,0.5,0,0.8,0.1
					c0.2,0.1,0.6,0.2,1.2,0.5c0.6,0.3,1,0.5,1.2,0.6c0.4,0.1,0.8,0.2,1.2,0.2c1,0,1.9-0.4,2.7-1.2c0.8-0.8,1.1-1.7,1.1-2.8
					c0-0.8-0.2-1.6-0.5-2.3c-0.3-0.6-0.5-1-0.9-1.3c-0.4-0.4-1-0.8-1.8-1.1c-0.8-0.3-1.5-0.5-2.3-0.5h-0.5v-0.5
					c0.8-0.1,1.6-0.4,2.4-0.9s1.4-1,1.7-1.7c0.4-0.7,0.5-1.4,0.5-2.2c0-1-0.3-1.9-1-2.5c-0.6-0.6-1.4-1-2.4-1
					c-1.6,0-2.8,0.8-3.9,2.5L893.5,335.2z"/>
				<path class="st1" d="M921.6,344.2v2.1h-2.7v5.4h-2.5v-5.4h-8.6v-1.9l9.5-13.5h1.7v13.3H921.6z M916.4,344.2v-10.1l-7.2,10.1
					H916.4z"/>
			</g>
		</g>
		<g>
			<path class="st1" d="M141.1,344.7h-7.2l-0.9,2c-0.3,0.7-0.4,1.2-0.4,1.6c0,0.6,0.2,1,0.7,1.3c0.3,0.2,0.9,0.3,2,0.4v0.6h-6.8V350
				c0.7-0.1,1.3-0.4,1.8-0.9c0.5-0.5,1.1-1.5,1.7-3.1l7.3-16.3h0.3l7.3,16.7c0.7,1.6,1.3,2.6,1.7,3c0.3,0.3,0.8,0.5,1.4,0.5v0.6
				h-9.9V350h0.4c0.8,0,1.3-0.1,1.7-0.3c0.2-0.2,0.3-0.4,0.3-0.7c0-0.2,0-0.4-0.1-0.6c0-0.1-0.2-0.5-0.5-1.1L141.1,344.7z
				 M140.6,343.6l-3-7l-3.1,7H140.6z"/>
			<path class="st1" d="M165.2,330.1v16.2c0,1.1,0,1.7,0.1,1.9c0.1,0.3,0.2,0.6,0.5,0.7c0.2,0.2,0.6,0.3,1.2,0.3v0.5l-5.9,1.2v-2.2
				c-0.7,0.9-1.3,1.4-1.9,1.8c-0.6,0.3-1.2,0.5-1.9,0.5c-1.8,0-3.2-0.8-4.3-2.4c-0.8-1.3-1.3-2.9-1.3-4.8c0-1.5,0.3-2.9,0.8-4.1
				c0.5-1.2,1.2-2.1,2.1-2.7c0.9-0.6,1.9-0.9,2.9-0.9c0.7,0,1.3,0.1,1.8,0.4c0.5,0.3,1.1,0.7,1.7,1.4v-4.2c0-1.1,0-1.7-0.1-1.9
				c-0.1-0.3-0.3-0.5-0.5-0.6c-0.2-0.1-0.7-0.2-1.4-0.2v-0.6H165.2z M161,339.7c-0.7-1.4-1.6-2.1-2.7-2.1c-0.4,0-0.7,0.1-0.9,0.3
				c-0.4,0.3-0.7,0.9-0.9,1.6s-0.4,2-0.4,3.6c0,1.8,0.1,3.1,0.4,3.9c0.3,0.9,0.6,1.5,1.1,1.8c0.2,0.2,0.5,0.3,0.9,0.3
				c0.9,0,1.7-0.7,2.5-2.1V339.7z"/>
			<path class="st1" d="M182.3,330.1v16.2c0,1.1,0,1.7,0.1,1.9c0.1,0.3,0.2,0.6,0.5,0.7c0.2,0.2,0.6,0.3,1.2,0.3v0.5l-5.9,1.2v-2.2
				c-0.7,0.9-1.3,1.4-1.9,1.8c-0.6,0.3-1.2,0.5-1.9,0.5c-1.8,0-3.2-0.8-4.3-2.4c-0.8-1.3-1.3-2.9-1.3-4.8c0-1.5,0.3-2.9,0.8-4.1
				c0.5-1.2,1.2-2.1,2.1-2.7c0.9-0.6,1.9-0.9,2.9-0.9c0.7,0,1.3,0.1,1.8,0.4c0.5,0.3,1.1,0.7,1.7,1.4v-4.2c0-1.1,0-1.7-0.1-1.9
				c-0.1-0.3-0.3-0.5-0.5-0.6c-0.2-0.1-0.7-0.2-1.4-0.2v-0.6H182.3z M178.1,339.7c-0.7-1.4-1.6-2.1-2.7-2.1c-0.4,0-0.7,0.1-0.9,0.3
				c-0.4,0.3-0.7,0.9-0.9,1.6s-0.4,2-0.4,3.6c0,1.8,0.1,3.1,0.4,3.9c0.3,0.9,0.6,1.5,1.1,1.8c0.2,0.2,0.5,0.3,0.9,0.3
				c0.9,0,1.7-0.7,2.5-2.1V339.7z"/>
			<path class="st1" d="M191.6,336.5v3.2c0.9-1.5,1.7-2.4,2.4-2.9s1.4-0.7,2-0.7c0.6,0,1,0.2,1.3,0.5s0.5,0.8,0.5,1.5
				c0,0.7-0.2,1.2-0.5,1.6c-0.3,0.4-0.7,0.6-1.2,0.6c-0.5,0-1-0.2-1.4-0.5s-0.6-0.5-0.7-0.6c-0.1-0.1-0.2-0.1-0.3-0.1
				c-0.3,0-0.6,0.1-0.8,0.3c-0.4,0.3-0.7,0.8-0.9,1.5c-0.3,1-0.5,2-0.5,3.2v3.2l0,0.8c0,0.6,0,0.9,0.1,1.1c0.1,0.3,0.3,0.5,0.5,0.6
				c0.2,0.1,0.6,0.2,1.2,0.2v0.5h-7.6V350c0.6,0,1-0.2,1.2-0.5c0.2-0.3,0.3-1,0.3-2.3v-7.8c0-0.8,0-1.3-0.1-1.5
				c-0.1-0.3-0.2-0.5-0.4-0.6s-0.5-0.2-1-0.3v-0.6H191.6z"/>
			<path class="st1" d="M210.8,343h-7.7c0.1,1.9,0.6,3.3,1.5,4.4c0.7,0.8,1.5,1.2,2.5,1.2c0.6,0,1.1-0.2,1.6-0.5s1-0.9,1.6-1.8
				l0.5,0.3c-0.8,1.6-1.6,2.7-2.5,3.3c-0.9,0.6-2,1-3.2,1c-2.1,0-3.7-0.8-4.7-2.4c-0.9-1.3-1.3-2.9-1.3-4.8c0-2.3,0.6-4.2,1.9-5.6
				c1.3-1.4,2.8-2.1,4.5-2.1c1.4,0,2.7,0.6,3.7,1.8C210.2,339,210.7,340.7,210.8,343z M207.1,342c0-1.6-0.1-2.7-0.3-3.3
				c-0.2-0.6-0.4-1.1-0.8-1.4c-0.2-0.2-0.5-0.3-0.8-0.3c-0.5,0-0.9,0.3-1.3,0.8c-0.6,0.9-0.9,2.1-0.9,3.7v0.5H207.1z"/>
			<path class="st1" d="M221.4,336.1l0.2,4.8h-0.5c-0.6-1.4-1.2-2.4-1.9-2.9c-0.7-0.5-1.3-0.8-2-0.8c-0.4,0-0.8,0.1-1.1,0.4
				s-0.4,0.6-0.4,1c0,0.3,0.1,0.5,0.3,0.8c0.3,0.4,1.2,1.1,2.7,2.1c1.5,1,2.4,1.8,2.9,2.5s0.7,1.5,0.7,2.3c0,0.8-0.2,1.5-0.6,2.3
				s-0.9,1.3-1.7,1.7c-0.7,0.4-1.5,0.6-2.4,0.6c-0.7,0-1.6-0.2-2.7-0.6c-0.3-0.1-0.5-0.2-0.6-0.2c-0.3,0-0.6,0.3-0.8,0.8h-0.5
				l-0.2-5h0.5c0.5,1.3,1.1,2.3,1.9,3c0.8,0.7,1.5,1,2.2,1c0.5,0,0.9-0.1,1.2-0.4c0.3-0.3,0.5-0.7,0.5-1.1c0-0.5-0.2-0.9-0.5-1.2
				s-1-0.9-2-1.6c-1.5-1.1-2.5-1.9-3-2.4c-0.7-0.8-1-1.7-1-2.7c0-1.1,0.4-2.1,1.1-2.9c0.7-0.9,1.8-1.3,3.2-1.3
				c0.8,0,1.5,0.2,2.2,0.6c0.3,0.2,0.5,0.2,0.7,0.2c0.2,0,0.3,0,0.4-0.1c0.1-0.1,0.3-0.3,0.5-0.6H221.4z"/>
			<path class="st1" d="M233.4,336.1l0.2,4.8h-0.5c-0.6-1.4-1.2-2.4-1.9-2.9c-0.7-0.5-1.3-0.8-2-0.8c-0.4,0-0.8,0.1-1.1,0.4
				s-0.4,0.6-0.4,1c0,0.3,0.1,0.5,0.3,0.8c0.3,0.4,1.2,1.1,2.7,2.1c1.5,1,2.4,1.8,2.9,2.5s0.7,1.5,0.7,2.3c0,0.8-0.2,1.5-0.6,2.3
				s-0.9,1.3-1.7,1.7c-0.7,0.4-1.5,0.6-2.4,0.6c-0.7,0-1.6-0.2-2.7-0.6c-0.3-0.1-0.5-0.2-0.6-0.2c-0.3,0-0.6,0.3-0.8,0.8h-0.5
				l-0.2-5h0.5c0.5,1.3,1.1,2.3,1.9,3c0.8,0.7,1.5,1,2.2,1c0.5,0,0.9-0.1,1.2-0.4c0.3-0.3,0.5-0.7,0.5-1.1c0-0.5-0.2-0.9-0.5-1.2
				s-1-0.9-2-1.6c-1.5-1.1-2.5-1.9-3-2.4c-0.7-0.8-1-1.7-1-2.7c0-1.1,0.4-2.1,1.1-2.9c0.7-0.9,1.8-1.3,3.2-1.3
				c0.8,0,1.5,0.2,2.2,0.6c0.3,0.2,0.5,0.2,0.7,0.2c0.2,0,0.3,0,0.4-0.1c0.1-0.1,0.3-0.3,0.5-0.6H233.4z"/>
			<path class="st1" d="M240.6,345.9c0.7,0,1.3,0.2,1.8,0.7c0.5,0.5,0.7,1.1,0.7,1.8c0,0.7-0.2,1.3-0.7,1.8
				c-0.5,0.5-1.1,0.7-1.8,0.7s-1.3-0.2-1.8-0.7c-0.5-0.5-0.7-1.1-0.7-1.8c0-0.7,0.2-1.3,0.7-1.8
				C239.3,346.1,239.9,345.9,240.6,345.9z M240.6,336.1c0.7,0,1.3,0.2,1.8,0.7c0.5,0.5,0.7,1.1,0.7,1.8s-0.2,1.3-0.7,1.8
				c-0.5,0.5-1.1,0.7-1.8,0.7c-0.7,0-1.3-0.2-1.8-0.7c-0.5-0.5-0.7-1.1-0.7-1.8s0.2-1.3,0.7-1.8
				C239.3,336.3,239.9,336.1,240.6,336.1z"/>
		</g>
		<g>
			<g>
				<path class="st1" d="M275.5,347.8l-1.4,3.9h-12v-0.6c3.5-3.2,6-5.9,7.5-7.9c1.4-2,2.2-3.9,2.2-5.6c0-1.3-0.4-2.4-1.2-3.2
					c-0.8-0.8-1.7-1.2-2.8-1.2c-1,0-1.9,0.3-2.7,0.9c-0.8,0.6-1.4,1.4-1.8,2.6h-0.6c0.3-1.9,0.9-3.3,1.9-4.3c1-1,2.3-1.5,3.9-1.5
					c1.7,0,3,0.5,4.1,1.6c1.1,1.1,1.7,2.3,1.7,3.8c0,1-0.2,2.1-0.7,3.1c-0.7,1.6-1.9,3.3-3.6,5.2c-2.5,2.7-4.1,4.4-4.7,4.9h5.3
					c1.1,0,1.8,0,2.3-0.1s0.8-0.2,1.2-0.5s0.7-0.6,0.9-1H275.5z"/>
				<path class="st1" d="M291.1,344.2v2.1h-2.7v5.4h-2.5v-5.4h-8.6v-1.9l9.4-13.5h1.7v13.3H291.1z M285.9,344.2v-10.1l-7.2,10.1
					H285.9z"/>
				<path class="st1" d="M305.5,331.3l-1.2,2.6h-6.1l-1.3,2.7c2.7,0.4,4.8,1.4,6.3,3c1.3,1.4,2,3,2,4.8c0,1.1-0.2,2.1-0.7,3
					s-1,1.7-1.6,2.3c-0.7,0.6-1.4,1.2-2.2,1.5c-1.2,0.6-2.3,0.8-3.5,0.8c-1.2,0-2.1-0.2-2.7-0.6c-0.6-0.4-0.8-0.9-0.8-1.4
					c0-0.3,0.1-0.5,0.3-0.7c0.2-0.2,0.5-0.3,0.9-0.3c0.3,0,0.5,0,0.7,0.1s0.5,0.3,1,0.6c0.8,0.5,1.5,0.8,2.3,0.8
					c1.2,0,2.2-0.4,3.1-1.3c0.9-0.9,1.3-2,1.3-3.2c0-1.2-0.4-2.4-1.2-3.4c-0.8-1.1-1.9-1.9-3.3-2.5c-1.1-0.5-2.6-0.7-4.5-0.8
					l3.9-7.9H305.5z"/>
				<path class="st1" d="M321.4,330.9v0.6c-1.3,0.1-2.4,0.4-3.2,0.8c-0.8,0.4-1.7,1-2.5,1.8s-1.5,1.7-2,2.7c-0.5,1-1,2.2-1.3,3.6
					c1.4-1,2.9-1.5,4.3-1.5c1.4,0,2.6,0.6,3.6,1.7c1,1.1,1.5,2.6,1.5,4.3c0,1.7-0.5,3.3-1.5,4.7c-1.2,1.7-2.9,2.6-4.9,2.6
					c-1.4,0-2.6-0.5-3.5-1.4c-1.9-1.8-2.9-4.1-2.9-7c0-1.8,0.4-3.6,1.1-5.2c0.7-1.6,1.8-3.1,3.1-4.4c1.4-1.3,2.7-2.1,3.9-2.6
					c1.2-0.4,2.4-0.7,3.5-0.7H321.4z M312,341.4c-0.2,1.4-0.3,2.4-0.3,3.3c0,1,0.2,2,0.5,3.1c0.4,1.1,0.9,2,1.6,2.7
					c0.5,0.5,1.1,0.7,1.9,0.7c0.9,0,1.7-0.4,2.3-1.2s1-2,1-3.5c0-1.7-0.3-3.2-1-4.4s-1.6-1.9-2.9-1.9c-0.4,0-0.8,0.1-1.2,0.2
					C313.5,340.5,312.9,340.9,312,341.4z"/>
				<path class="st1" d="M333.7,331.9v-0.6h8.7v0.6h-0.7c-0.8,0-1.4,0.2-1.8,0.7c-0.2,0.3-0.4,1.1-0.4,2.3v10c0,1.5-0.2,2.8-0.5,3.7
					c-0.3,1-0.9,1.8-1.7,2.5c-0.8,0.7-1.8,1.1-3,1.1c-0.9,0-1.7-0.2-2.2-0.7c-0.5-0.5-0.8-1-0.8-1.6c0-0.5,0.1-0.9,0.4-1.1
					c0.3-0.3,0.7-0.5,1.2-0.5c0.3,0,0.6,0.1,0.9,0.3c0.3,0.2,0.6,0.8,1,1.7c0.2,0.5,0.5,0.8,0.9,0.8c0.3,0,0.5-0.2,0.8-0.5
					c0.2-0.3,0.4-0.9,0.4-1.8v-13.9c0-1-0.1-1.7-0.2-2c-0.1-0.3-0.3-0.5-0.6-0.6c-0.4-0.2-0.9-0.4-1.4-0.4H333.7z"/>
				<path class="st1" d="M350.3,337.5c2.1,0,3.8,0.8,5,2.4c1.1,1.4,1.6,2.9,1.6,4.7c0,1.2-0.3,2.5-0.9,3.7s-1.4,2.2-2.4,2.9
					s-2.2,1-3.5,1c-2.1,0-3.7-0.8-4.9-2.5c-1-1.4-1.5-3-1.5-4.7c0-1.3,0.3-2.5,0.9-3.8s1.4-2.2,2.5-2.8
					C348.1,337.8,349.2,337.5,350.3,337.5z M349.8,338.5c-0.5,0-1.1,0.2-1.6,0.5c-0.5,0.3-1,0.9-1.3,1.7s-0.5,1.8-0.5,3
					c0,2,0.4,3.7,1.2,5.2s1.8,2.2,3.1,2.2c1,0,1.8-0.4,2.4-1.2c0.6-0.8,0.9-2.2,0.9-4.1c0-2.4-0.5-4.4-1.6-5.8
					C351.9,339,350.9,338.5,349.8,338.5z"/>
				<path class="st1" d="M358.2,337.9h6.4v0.6h-0.3c-0.5,0-0.8,0.1-1,0.3c-0.2,0.2-0.3,0.4-0.3,0.7c0,0.4,0.2,0.9,0.5,1.6l3.4,6.9
					l3.1-7.6c0.2-0.4,0.3-0.8,0.3-1.2c0-0.2,0-0.3-0.1-0.4c-0.1-0.1-0.2-0.2-0.4-0.3c-0.2-0.1-0.5-0.1-0.9-0.1v-0.6h4.5v0.6
					c-0.4,0-0.7,0.1-0.9,0.2c-0.2,0.1-0.4,0.3-0.7,0.7c-0.1,0.1-0.3,0.5-0.5,1.2l-5.6,13.7c-0.5,1.3-1.2,2.3-2.1,3
					c-0.9,0.7-1.7,1-2.5,1c-0.6,0-1.1-0.2-1.5-0.5c-0.4-0.3-0.6-0.7-0.6-1.2c0-0.4,0.1-0.8,0.4-1c0.3-0.3,0.7-0.4,1.1-0.4
					c0.3,0,0.8,0.1,1.4,0.3c0.4,0.1,0.7,0.2,0.8,0.2c0.3,0,0.6-0.2,1-0.5s0.7-0.9,1.1-1.8l1-2.4l-4.9-10.4c-0.1-0.3-0.4-0.7-0.7-1.2
					c-0.3-0.4-0.5-0.6-0.6-0.7c-0.2-0.2-0.6-0.3-1.1-0.4V337.9z"/>
				<path class="st1" d="M398.7,346.1l0.5,0.1l-1.7,5.5h-15.8v-0.6h0.8c0.9,0,1.5-0.3,1.8-0.8c0.2-0.3,0.3-1.1,0.3-2.2v-13.1
					c0-1.3-0.1-2.1-0.4-2.4c-0.4-0.4-1-0.7-1.7-0.7h-0.8v-0.6h9.2v0.6c-1.1,0-1.8,0.1-2.3,0.3c-0.4,0.2-0.7,0.5-0.9,0.8
					c-0.2,0.3-0.2,1.1-0.2,2.3v12.8c0,0.8,0.1,1.4,0.2,1.7c0.1,0.2,0.3,0.4,0.6,0.5c0.3,0.1,1,0.2,2.3,0.2h1.5
					c1.6,0,2.7-0.1,3.3-0.3s1.2-0.6,1.7-1.2C397.7,348.3,398.2,347.3,398.7,346.1z"/>
				<path class="st1" d="M408.6,349.7c-1.4,1.1-2.3,1.7-2.7,1.9c-0.5,0.3-1.1,0.4-1.7,0.4c-1,0-1.7-0.3-2.4-1
					c-0.6-0.7-0.9-1.5-0.9-2.6c0-0.7,0.2-1.3,0.5-1.7c0.4-0.7,1.1-1.3,2.1-1.9c1-0.6,2.7-1.3,5.1-2.2V342c0-1.4-0.2-2.3-0.7-2.8
					c-0.4-0.5-1.1-0.8-1.9-0.8c-0.6,0-1.1,0.2-1.5,0.5c-0.4,0.3-0.6,0.7-0.6,1.2l0,0.9c0,0.5-0.1,0.8-0.4,1.1
					c-0.2,0.3-0.5,0.4-0.9,0.4c-0.4,0-0.7-0.1-0.9-0.4c-0.2-0.3-0.4-0.6-0.4-1.1c0-0.9,0.4-1.7,1.3-2.4c0.9-0.7,2.1-1.1,3.7-1.1
					c1.2,0,2.2,0.2,3,0.6c0.6,0.3,1,0.8,1.3,1.5c0.2,0.4,0.3,1.3,0.3,2.6v4.7c0,1.3,0,2.1,0.1,2.4c0,0.3,0.1,0.5,0.2,0.6
					c0.1,0.1,0.2,0.1,0.4,0.1c0.2,0,0.3,0,0.4-0.1c0.2-0.1,0.6-0.5,1.2-1.1v0.8c-1.1,1.5-2.2,2.3-3.2,2.3c-0.5,0-0.9-0.2-1.2-0.5
					C408.8,351.1,408.6,350.5,408.6,349.7z M408.6,348.7v-5.2c-1.5,0.6-2.5,1-2.9,1.3c-0.8,0.4-1.4,0.9-1.7,1.4
					c-0.3,0.5-0.5,1-0.5,1.6c0,0.7,0.2,1.3,0.6,1.8s0.9,0.7,1.5,0.7C406.4,350.2,407.4,349.7,408.6,348.7z"/>
				<path class="st1" d="M418.5,340.4c1.6-1.9,3.1-2.9,4.6-2.9c0.8,0,1.4,0.2,1.9,0.6c0.5,0.4,1,1,1.3,1.9c0.2,0.6,0.3,1.5,0.3,2.8
					v5.9c0,0.9,0.1,1.5,0.2,1.8c0.1,0.3,0.3,0.4,0.5,0.6c0.2,0.1,0.7,0.2,1.4,0.2v0.5H422v-0.5h0.3c0.6,0,1.1-0.1,1.3-0.3
					s0.4-0.5,0.5-0.9c0-0.2,0.1-0.6,0.1-1.4V343c0-1.3-0.2-2.2-0.5-2.7c-0.3-0.6-0.9-0.8-1.6-0.8c-1.2,0-2.4,0.7-3.6,2v7.3
					c0,0.9,0.1,1.5,0.2,1.7c0.1,0.3,0.3,0.5,0.6,0.6c0.2,0.1,0.7,0.2,1.5,0.2v0.5h-6.8v-0.5h0.3c0.7,0,1.2-0.2,1.4-0.5
					c0.2-0.4,0.4-1,0.4-2v-5.1c0-1.7,0-2.7-0.1-3c-0.1-0.4-0.2-0.6-0.3-0.7s-0.4-0.2-0.6-0.2c-0.3,0-0.6,0.1-1,0.2l-0.2-0.5l4.1-1.7
					h0.6V340.4z"/>
				<path class="st1" d="M432.2,343.1c0,2,0.5,3.6,1.5,4.8c1,1.2,2.2,1.7,3.5,1.7c0.9,0,1.7-0.2,2.4-0.7c0.7-0.5,1.2-1.3,1.7-2.5
					l0.5,0.3c-0.2,1.4-0.8,2.6-1.8,3.7s-2.3,1.7-3.8,1.7c-1.7,0-3.1-0.6-4.2-1.9c-1.2-1.3-1.8-3-1.8-5.2c0-2.4,0.6-4.2,1.8-5.5
					c1.2-1.3,2.7-2,4.5-2c1.5,0,2.8,0.5,3.8,1.5s1.5,2.4,1.5,4.1H432.2z M432.2,342.3h6.4c0-0.9-0.2-1.5-0.3-1.9
					c-0.3-0.6-0.6-1-1.1-1.3s-1-0.5-1.6-0.5c-0.8,0-1.6,0.3-2.2,1C432.7,340.2,432.3,341.1,432.2,342.3z"/>
				<path class="st1" d="M444.2,356.8v-0.7c1-0.3,1.8-0.9,2.4-1.6s0.8-1.5,0.8-2.3c0-0.2,0-0.4-0.1-0.5c-0.1-0.1-0.1-0.1-0.2-0.1
					c-0.1,0-0.4,0.1-0.7,0.3c-0.2,0.1-0.4,0.1-0.6,0.1c-0.5,0-0.9-0.1-1.2-0.4c-0.3-0.3-0.4-0.7-0.4-1.2c0-0.5,0.2-0.9,0.6-1.3
					c0.4-0.4,0.8-0.5,1.4-0.5c0.7,0,1.2,0.3,1.8,0.9c0.5,0.6,0.8,1.3,0.8,2.3c0,1-0.4,2-1.1,2.9
					C446.9,355.6,445.8,356.3,444.2,356.8z"/>
				<path class="st1" d="M476.5,330.9l0.5,6.9h-0.5c-0.6-2.1-1.5-3.6-2.7-4.5c-1.2-0.9-2.5-1.4-4.1-1.4c-1.4,0-2.6,0.3-3.7,1
					c-1.1,0.7-2,1.8-2.6,3.3s-0.9,3.4-0.9,5.6c0,1.8,0.3,3.4,0.9,4.8c0.6,1.4,1.5,2.4,2.7,3.1c1.2,0.7,2.5,1.1,4.1,1.1
					c1.3,0,2.5-0.3,3.5-0.8c1-0.6,2.1-1.7,3.3-3.4l0.5,0.3c-1,1.8-2.2,3.1-3.6,4c-1.4,0.8-3,1.3-4.9,1.3c-3.4,0-6-1.3-7.8-3.8
					c-1.4-1.9-2.1-4.1-2.1-6.6c0-2,0.5-3.9,1.4-5.6c0.9-1.7,2.2-3,3.8-4c1.6-0.9,3.3-1.4,5.2-1.4c1.5,0,2.9,0.4,4.4,1.1
					c0.4,0.2,0.7,0.3,0.9,0.3c0.3,0,0.5-0.1,0.7-0.3c0.3-0.3,0.4-0.6,0.6-1.1H476.5z"/>
				<path class="st1" d="M492.6,344.9h-7.9l-1.4,3.2c-0.3,0.8-0.5,1.4-0.5,1.8c0,0.3,0.1,0.6,0.4,0.8s0.9,0.4,1.9,0.5v0.6h-6.4v-0.6
					c0.9-0.2,1.4-0.3,1.7-0.6c0.5-0.5,1.1-1.5,1.7-2.9l7.2-16.8h0.5l7.1,16.9c0.6,1.4,1.1,2.2,1.6,2.7c0.5,0.4,1.1,0.6,1.9,0.7v0.6
					h-8v-0.6c0.8,0,1.4-0.2,1.6-0.4c0.3-0.2,0.4-0.5,0.4-0.8c0-0.4-0.2-1.1-0.6-2.1L492.6,344.9z M492.1,343.8l-3.5-8.2l-3.5,8.2
					H492.1z"/>
				<path class="st1" d="M508.3,352.1v-0.6c1.3,0,2.5-0.3,3.6-0.9c1.1-0.6,2.2-1.6,3.3-3.1c1-1.5,1.8-3.1,2.2-4.8
					c-1.6,1-3,1.5-4.3,1.5c-1.4,0-2.7-0.6-3.7-1.7c-1-1.1-1.5-2.6-1.5-4.4c0-1.8,0.5-3.4,1.5-4.8c1.2-1.7,2.8-2.5,4.8-2.5
					c1.7,0,3.1,0.7,4.3,2.1c1.5,1.7,2.2,3.8,2.2,6.3c0,2.3-0.6,4.4-1.7,6.3s-2.7,3.6-4.6,4.9c-1.6,1.1-3.4,1.6-5.3,1.6H508.3z
					 M517.6,341.7c0.2-1.3,0.3-2.3,0.3-3.1c0-1-0.2-2-0.5-3.1s-0.8-2-1.4-2.6c-0.6-0.6-1.3-0.9-2.1-0.9c-0.9,0-1.7,0.4-2.3,1.2
					c-0.7,0.8-1,2-1,3.6c0,2.1,0.4,3.8,1.3,5c0.7,0.9,1.5,1.3,2.4,1.3c0.5,0,1-0.1,1.6-0.3C516.6,342.4,517.2,342.1,517.6,341.7z"/>
				<path class="st1" d="M525.7,333.3l5-2.4h0.5v17.2c0,1.1,0,1.9,0.1,2.1c0.1,0.3,0.3,0.5,0.6,0.6c0.3,0.2,0.9,0.2,1.8,0.3v0.6H526
					v-0.6c1,0,1.6-0.1,1.9-0.2c0.3-0.1,0.5-0.3,0.6-0.6c0.1-0.2,0.2-1,0.2-2.2v-11c0-1.5,0-2.4-0.2-2.9c-0.1-0.3-0.2-0.6-0.4-0.7
					s-0.4-0.2-0.7-0.2c-0.4,0-0.9,0.2-1.5,0.5L525.7,333.3z"/>
				<path class="st1" d="M539,335.2c0.6-1.4,1.3-2.4,2.2-3.2c0.9-0.7,2-1.1,3.3-1.1c1.6,0,2.9,0.5,3.8,1.6c0.7,0.8,1,1.6,1,2.5
					c0,1.5-0.9,3-2.8,4.6c1.3,0.5,2.2,1.2,2.8,2.1c0.6,0.9,1,2,1,3.2c0,1.8-0.6,3.3-1.7,4.6c-1.5,1.7-3.6,2.5-6.4,2.5
					c-1.4,0-2.3-0.2-2.8-0.5c-0.5-0.3-0.7-0.7-0.7-1.1c0-0.3,0.1-0.5,0.4-0.8c0.2-0.2,0.5-0.3,0.8-0.3c0.3,0,0.5,0,0.8,0.1
					c0.2,0.1,0.6,0.2,1.2,0.5c0.6,0.3,1,0.5,1.2,0.6c0.4,0.1,0.8,0.2,1.2,0.2c1,0,1.9-0.4,2.7-1.2c0.8-0.8,1.1-1.7,1.1-2.8
					c0-0.8-0.2-1.6-0.5-2.3c-0.3-0.6-0.5-1-0.9-1.3c-0.4-0.4-1-0.8-1.8-1.1c-0.8-0.3-1.5-0.5-2.3-0.5h-0.5v-0.5
					c0.8-0.1,1.6-0.4,2.4-0.9s1.4-1,1.7-1.7c0.4-0.7,0.5-1.4,0.5-2.2c0-1-0.3-1.9-1-2.5c-0.6-0.6-1.4-1-2.4-1
					c-1.6,0-2.8,0.8-3.9,2.5L539,335.2z"/>
				<path class="st1" d="M554,341.6c0-2.3,0.4-4.3,1.1-6s1.6-2.9,2.8-3.7c0.9-0.7,1.8-1,2.8-1c1.6,0,3,0.8,4.2,2.4
					c1.6,2,2.3,4.6,2.3,8c0,2.4-0.3,4.4-1,6c-0.7,1.7-1.5,2.9-2.6,3.6s-2.1,1.1-3.1,1.1c-1.9,0-3.6-1.1-4.9-3.4
					C554.5,346.7,554,344.4,554,341.6z M556.9,342c0,2.8,0.3,5.1,1,6.9c0.6,1.5,1.4,2.2,2.6,2.2c0.5,0,1.1-0.2,1.7-0.7
					c0.6-0.5,1-1.3,1.3-2.4c0.5-1.7,0.7-4.2,0.7-7.3c0-2.3-0.2-4.3-0.7-5.8c-0.4-1.2-0.8-2-1.4-2.4c-0.4-0.3-0.9-0.5-1.5-0.5
					c-0.7,0-1.3,0.3-1.8,0.9c-0.7,0.8-1.2,2.1-1.5,3.9C557,338.5,556.9,340.3,556.9,342z"/>
				<path class="st1" d="M569.8,335.2c0.6-1.4,1.3-2.4,2.2-3.2c0.9-0.7,2-1.1,3.3-1.1c1.6,0,2.9,0.5,3.8,1.6c0.7,0.8,1,1.6,1,2.5
					c0,1.5-0.9,3-2.8,4.6c1.3,0.5,2.2,1.2,2.8,2.1c0.6,0.9,1,2,1,3.2c0,1.8-0.6,3.3-1.7,4.6c-1.5,1.7-3.6,2.5-6.4,2.5
					c-1.4,0-2.3-0.2-2.8-0.5c-0.5-0.3-0.7-0.7-0.7-1.1c0-0.3,0.1-0.5,0.4-0.8c0.2-0.2,0.5-0.3,0.8-0.3c0.3,0,0.5,0,0.8,0.1
					c0.2,0.1,0.6,0.2,1.2,0.5c0.6,0.3,1,0.5,1.2,0.6c0.4,0.1,0.8,0.2,1.2,0.2c1,0,1.9-0.4,2.7-1.2c0.8-0.8,1.1-1.7,1.1-2.8
					c0-0.8-0.2-1.6-0.5-2.3c-0.3-0.6-0.5-1-0.9-1.3c-0.4-0.4-1-0.8-1.8-1.1c-0.8-0.3-1.5-0.5-2.3-0.5h-0.5v-0.5
					c0.8-0.1,1.6-0.4,2.4-0.9s1.4-1,1.7-1.7c0.4-0.7,0.5-1.4,0.5-2.2c0-1-0.3-1.9-1-2.5c-0.6-0.6-1.4-1-2.4-1
					c-1.6,0-2.8,0.8-3.9,2.5L569.8,335.2z"/>
			</g>
		</g>
	</g>
</g>
</svg>
