<?xml version="1.0" encoding="UTF-8" standalone="no"?>
<svg
   xmlns:dc="http://purl.org/dc/elements/1.1/"
   xmlns:cc="http://creativecommons.org/ns#"
   xmlns:rdf="http://www.w3.org/1999/02/22-rdf-syntax-ns#"
   xmlns:svg="http://www.w3.org/2000/svg"
   xmlns="http://www.w3.org/2000/svg"
   viewBox="0 0 163.48 92.666664"
   height="92.666664"
   width="163.48"
   xml:space="preserve"
   id="svg2"
   version="1.1"><metadata
     id="metadata8"><rdf:RDF><cc:Work
         rdf:about=""><dc:format>image/svg+xml</dc:format><dc:type
           rdf:resource="http://purl.org/dc/dcmitype/StillImage" /></cc:Work></rdf:RDF></metadata><defs
     id="defs6"><clipPath
       id="clipPath20"
       clipPathUnits="userSpaceOnUse"><path
         id="path18"
         d="M 0,69.5 H 122.61 V 0 H 0 Z" /></clipPath></defs><g
     transform="matrix(1.3333333,0,0,-1.3333333,0,92.666667)"
     id="g10"><path
       id="path12"
       style="fill:#b68d6b;fill-opacity:1;fill-rule:nonzero;stroke:none"
       d="M 0,0 H 122.61 V 69.5 H 0 Z" /><g
       id="g14"><g
         clip-path="url(#clipPath20)"
         id="g16"><g
           transform="translate(35.1638,40.807)"
           id="g22"><path
             id="path24"
             style="fill:#1c0f01;fill-opacity:1;fill-rule:nonzero;stroke:none"
             d="m 0,0 0.118,-0.025 -0.414,-1.314 h -3.749 v 0.132 h 0.182 c 0.204,0 0.351,0.067 0.439,0.2 0.05,0.076 0.075,0.252 0.075,0.528 v 3.125 c 0,0.302 -0.033,0.491 -0.1,0.567 -0.093,0.105 -0.231,0.158 -0.414,0.158 h -0.182 v 0.132 h 2.192 V 3.371 C -2.11,3.373 -2.29,3.349 -2.394,3.299 -2.498,3.249 -2.568,3.186 -2.606,3.11 -2.645,3.034 -2.664,2.851 -2.664,2.563 v -3.042 c 0,-0.197 0.019,-0.333 0.058,-0.406 0.028,-0.051 0.072,-0.087 0.132,-0.111 0.059,-0.024 0.245,-0.036 0.557,-0.036 h 0.353 c 0.371,0 0.632,0.027 0.782,0.082 0.15,0.055 0.287,0.152 0.411,0.291 C -0.248,-0.52 -0.124,-0.3 0,0" /></g><g
           transform="translate(40.0928,44.1596)"
           id="g26"><path
             id="path28"
             style="fill:#1c0f01;fill-opacity:1;fill-rule:nonzero;stroke:none"
             d="m 0,0 c -0.433,0 -0.781,-0.161 -1.043,-0.482 -0.326,-0.4 -0.489,-0.985 -0.489,-1.757 0,-0.79 0.169,-1.398 0.507,-1.824 0.26,-0.324 0.602,-0.486 1.029,-0.486 0.454,0 0.83,0.177 1.126,0.532 0.296,0.355 0.445,0.914 0.445,1.678 0,0.829 -0.163,1.446 -0.49,1.853 C 0.824,-0.162 0.462,0 0,0 m 0.068,0.261 c 0.628,0 1.173,-0.239 1.633,-0.716 0.461,-0.477 0.691,-1.073 0.691,-1.787 0,-0.736 -0.232,-1.346 -0.696,-1.832 C 1.232,-4.56 0.67,-4.802 0.011,-4.802 c -0.667,0 -1.227,0.237 -1.68,0.71 -0.454,0.474 -0.68,1.087 -0.68,1.839 0,0.769 0.261,1.396 0.785,1.882 0.455,0.421 0.999,0.632 1.632,0.632" /></g><g
           transform="translate(46.3177,41.9565)"
           id="g30"><path
             id="path32"
             style="fill:#1c0f01;fill-opacity:1;fill-rule:nonzero;stroke:none"
             d="m 0,0 c 0.045,0 0.085,0 0.118,-0.002 0.033,-0.001 0.061,-0.001 0.082,-0.001 0.462,0 0.81,0.1 1.044,0.299 0.235,0.2 0.352,0.455 0.352,0.765 0,0.302 -0.094,0.548 -0.284,0.737 C 1.123,1.987 0.872,2.082 0.561,2.082 0.423,2.082 0.236,2.059 0,2.014 Z M 3.438,-2.489 H 2.146 L 0.507,-0.225 C 0.386,-0.23 0.287,-0.232 0.211,-0.232 0.18,-0.232 0.146,-0.231 0.111,-0.23 0.075,-0.229 0.038,-0.227 0,-0.225 v -1.407 c 0,-0.304 0.033,-0.494 0.1,-0.567 0.09,-0.105 0.226,-0.158 0.407,-0.158 h 0.189 v -0.132 h -2.074 v 0.132 h 0.182 c 0.205,0 0.351,0.067 0.439,0.2 0.05,0.074 0.075,0.249 0.075,0.525 v 3.128 c 0,0.305 -0.033,0.494 -0.1,0.568 -0.093,0.104 -0.231,0.157 -0.414,0.157 H -1.378 V 2.353 H 0.386 C 0.9,2.353 1.279,2.316 1.523,2.241 1.767,2.166 1.974,2.028 2.144,1.826 2.314,1.625 2.399,1.385 2.399,1.107 2.399,0.809 2.302,0.551 2.109,0.332 1.914,0.113 1.614,-0.042 1.207,-0.132 l 1,-1.389 c 0.228,-0.319 0.425,-0.531 0.589,-0.636 0.164,-0.104 0.378,-0.171 0.642,-0.2 z" /></g><g
           transform="translate(53.9958,39.6)"
           id="g34"><path
             id="path36"
             style="fill:#1c0f01;fill-opacity:1;fill-rule:nonzero;stroke:none"
             d="M 0,0 V -0.132 H -2.074 V 0 h 0.171 c 0.2,0 0.345,0.058 0.435,0.175 0.058,0.076 0.086,0.26 0.086,0.55 v 3.128 c 0,0.245 -0.015,0.407 -0.046,0.485 -0.024,0.06 -0.073,0.111 -0.146,0.154 -0.105,0.057 -0.215,0.086 -0.329,0.086 H -2.074 V 4.71 H 0 V 4.578 H -0.175 C -0.373,4.578 -0.517,4.519 -0.607,4.402 -0.666,4.326 -0.696,4.143 -0.696,3.853 V 0.725 C -0.696,0.48 -0.681,0.318 -0.65,0.239 -0.626,0.18 -0.576,0.129 -0.5,0.086 -0.398,0.029 -0.289,0 -0.175,0 Z" /></g><g
           transform="translate(63.4501,44.4203)"
           id="g38"><path
             id="path40"
             style="fill:#1c0f01;fill-opacity:1;fill-rule:nonzero;stroke:none"
             d="m 0,0 v -1.675 h -0.132 c -0.043,0.322 -0.12,0.577 -0.23,0.768 -0.111,0.19 -0.269,0.342 -0.474,0.453 -0.204,0.112 -0.416,0.168 -0.635,0.168 -0.248,0 -0.453,-0.075 -0.614,-0.226 -0.162,-0.152 -0.243,-0.324 -0.243,-0.516 0,-0.148 0.051,-0.282 0.153,-0.404 0.148,-0.178 0.499,-0.416 1.054,-0.714 0.452,-0.243 0.761,-0.429 0.926,-0.559 0.166,-0.13 0.293,-0.283 0.382,-0.459 0.09,-0.176 0.134,-0.36 0.134,-0.553 0,-0.367 -0.142,-0.682 -0.426,-0.948 -0.285,-0.265 -0.651,-0.398 -1.098,-0.398 -0.141,0 -0.273,0.011 -0.397,0.032 -0.074,0.012 -0.226,0.056 -0.459,0.13 -0.232,0.075 -0.379,0.113 -0.44,0.113 -0.06,0 -0.107,-0.018 -0.141,-0.054 -0.035,-0.035 -0.061,-0.109 -0.077,-0.221 h -0.132 v 1.66 h 0.132 c 0.062,-0.347 0.145,-0.607 0.25,-0.78 0.104,-0.173 0.265,-0.316 0.48,-0.43 0.215,-0.114 0.451,-0.171 0.709,-0.171 0.297,0 0.532,0.078 0.705,0.235 0.172,0.157 0.259,0.343 0.259,0.557 0,0.119 -0.033,0.239 -0.098,0.361 -0.066,0.121 -0.168,0.234 -0.306,0.339 -0.093,0.071 -0.346,0.223 -0.76,0.455 -0.415,0.232 -0.709,0.417 -0.884,0.555 -0.175,0.138 -0.308,0.291 -0.398,0.457 -0.091,0.167 -0.136,0.35 -0.136,0.55 0,0.348 0.134,0.647 0.4,0.898 C -2.229,-0.126 -1.89,0 -1.478,0 c 0.257,0 0.529,-0.063 0.817,-0.189 0.134,-0.06 0.228,-0.09 0.282,-0.09 0.062,0 0.113,0.019 0.152,0.056 0.039,0.037 0.071,0.111 0.095,0.223 z" /></g><g
           transform="translate(69.2037,39.468)"
           id="g42"><path
             id="path44"
             style="fill:#1c0f01;fill-opacity:1;fill-rule:nonzero;stroke:none"
             d="M 0,0 -1.871,4.074 V 0.839 c 0,-0.298 0.032,-0.483 0.096,-0.557 0.088,-0.1 0.228,-0.15 0.418,-0.15 h 0.172 V 0 h -1.686 v 0.132 h 0.172 c 0.204,0 0.35,0.062 0.435,0.186 0.053,0.076 0.079,0.25 0.079,0.521 v 3.163 c 0,0.215 -0.024,0.369 -0.072,0.465 C -2.29,4.536 -2.351,4.593 -2.44,4.64 -2.53,4.686 -2.673,4.71 -2.871,4.71 V 4.842 H -1.5 L 0.257,1.053 1.985,4.842 H 3.356 V 4.71 H 3.189 C 2.981,4.71 2.835,4.647 2.749,4.524 2.697,4.448 2.671,4.274 2.671,4.002 V 0.839 c 0,-0.298 0.033,-0.483 0.1,-0.557 0.088,-0.1 0.227,-0.15 0.418,-0.15 H 3.356 V 0 H 1.3 v 0.132 h 0.171 c 0.207,0 0.352,0.062 0.436,0.186 0.052,0.076 0.078,0.25 0.078,0.521 V 4.074 L 0.118,0 Z" /></g><g
           transform="translate(77.0171,39.6)"
           id="g46"><path
             id="path48"
             style="fill:#1c0f01;fill-opacity:1;fill-rule:nonzero;stroke:none"
             d="M 0,0 V -0.132 H -2.074 V 0 h 0.171 c 0.2,0 0.345,0.058 0.435,0.175 0.058,0.076 0.086,0.26 0.086,0.55 v 3.128 c 0,0.245 -0.015,0.407 -0.046,0.485 -0.024,0.06 -0.073,0.111 -0.146,0.154 -0.105,0.057 -0.215,0.086 -0.329,0.086 H -2.074 V 4.71 H 0 V 4.578 H -0.175 C -0.373,4.578 -0.517,4.519 -0.607,4.402 -0.666,4.326 -0.696,4.143 -0.696,3.853 V 0.725 C -0.696,0.48 -0.681,0.318 -0.65,0.239 -0.626,0.18 -0.576,0.129 -0.5,0.086 -0.398,0.029 -0.289,0 -0.175,0 Z" /></g><g
           transform="translate(83.474,44.3095)"
           id="g50"><path
             id="path52"
             style="fill:#1c0f01;fill-opacity:1;fill-rule:nonzero;stroke:none"
             d="m 0,0 0.054,-1.135 h -0.136 c -0.026,0.2 -0.062,0.342 -0.107,0.428 -0.074,0.138 -0.172,0.24 -0.295,0.305 -0.122,0.066 -0.284,0.099 -0.483,0.099 h -0.682 v -3.699 c 0,-0.298 0.032,-0.484 0.096,-0.557 0.09,-0.1 0.23,-0.151 0.418,-0.151 h 0.168 V -4.842 H -3.02 v 0.132 h 0.171 c 0.204,0 0.35,0.062 0.435,0.186 0.053,0.076 0.079,0.25 0.079,0.522 v 3.699 h -0.582 c -0.226,0 -0.387,-0.017 -0.482,-0.051 -0.124,-0.045 -0.23,-0.132 -0.318,-0.26 -0.088,-0.129 -0.14,-0.302 -0.157,-0.521 H -4.01 L -3.952,0 Z" /></g><g
           transform="translate(87.2603,42.0638)"
           id="g54"><path
             id="path56"
             style="fill:#1c0f01;fill-opacity:1;fill-rule:nonzero;stroke:none"
             d="M 0,0 H 2.25 V 1.385 C 2.25,1.633 2.234,1.796 2.203,1.874 2.179,1.934 2.129,1.985 2.053,2.028 1.951,2.085 1.842,2.114 1.728,2.114 H 1.557 V 2.246 H 3.628 V 2.114 H 3.456 C 3.342,2.114 3.234,2.086 3.131,2.031 3.055,1.993 3.004,1.936 2.976,1.858 2.949,1.781 2.935,1.623 2.935,1.385 v -3.124 c 0,-0.245 0.016,-0.407 0.046,-0.486 0.024,-0.059 0.073,-0.11 0.147,-0.153 0.104,-0.057 0.214,-0.086 0.328,-0.086 H 3.628 V -2.596 H 1.557 v 0.132 h 0.171 c 0.198,0 0.342,0.059 0.432,0.175 0.06,0.076 0.09,0.26 0.09,0.55 v 1.475 H 0 V -1.739 C 0,-1.984 0.016,-2.146 0.047,-2.225 0.07,-2.284 0.12,-2.335 0.196,-2.378 0.299,-2.435 0.407,-2.464 0.521,-2.464 h 0.175 v -0.132 h -2.074 v 0.132 h 0.171 c 0.2,0 0.345,0.059 0.436,0.175 0.057,0.076 0.085,0.26 0.085,0.55 v 3.124 c 0,0.248 -0.015,0.411 -0.046,0.489 -0.024,0.06 -0.073,0.111 -0.146,0.154 -0.105,0.057 -0.214,0.086 -0.329,0.086 H -1.378 V 2.246 H 0.696 V 2.114 H 0.521 C 0.407,2.114 0.299,2.086 0.196,2.031 0.123,1.993 0.071,1.936 0.043,1.858 0.014,1.781 0,1.623 0,1.385 Z" /></g><g
           transform="translate(6.047,34.7104)"
           id="g58"><path
             id="path60"
             style="fill:#1c0f01;fill-opacity:1;fill-rule:nonzero;stroke:none"
             d="m 0,0 0.857,0.418 h 0.086 v -2.973 c 0,-0.198 0.008,-0.32 0.024,-0.369 C 0.984,-2.972 1.018,-3.01 1.07,-3.036 1.122,-3.062 1.227,-3.076 1.387,-3.08 V -3.176 H 0.062 v 0.096 c 0.167,0.004 0.274,0.018 0.322,0.043 0.049,0.025 0.083,0.059 0.102,0.101 0.019,0.043 0.028,0.17 0.028,0.381 v 1.901 c 0,0.256 -0.009,0.42 -0.026,0.493 C 0.476,-0.106 0.454,-0.065 0.422,-0.039 0.39,-0.013 0.351,0 0.306,0 0.242,0 0.153,-0.027 0.039,-0.081 Z" /></g><g
           transform="translate(8.784,33.2095)"
           id="g62"><path
             id="path64"
             style="fill:#1c0f01;fill-opacity:1;fill-rule:nonzero;stroke:none"
             d="m 0,0 c 0,-0.485 0.06,-0.88 0.179,-1.187 0.099,-0.258 0.246,-0.387 0.442,-0.387 0.093,0 0.19,0.042 0.29,0.126 0.101,0.084 0.177,0.225 0.229,0.422 0.08,0.298 0.119,0.718 0.119,1.26 0,0.401 -0.041,0.736 -0.124,1.005 C 1.072,1.438 0.992,1.579 0.893,1.662 0.822,1.719 0.737,1.748 0.636,1.748 0.518,1.748 0.414,1.695 0.322,1.589 0.197,1.445 0.113,1.22 0.068,0.911 0.023,0.603 0,0.299 0,0 m -0.509,0.065 c 0,0.402 0.061,0.747 0.182,1.037 0.121,0.29 0.282,0.506 0.483,0.648 0.156,0.113 0.317,0.169 0.483,0.169 0.27,0 0.512,-0.138 0.727,-0.413 C 1.634,1.165 1.768,0.703 1.768,0.119 1.768,-0.289 1.709,-0.636 1.592,-0.922 1.474,-1.207 1.324,-1.415 1.141,-1.544 0.959,-1.673 0.782,-1.737 0.613,-1.737 c -0.336,0 -0.616,0.198 -0.839,0.594 -0.189,0.335 -0.283,0.737 -0.283,1.208" /></g><g
           transform="translate(13.1802,32.2124)"
           id="g66"><path
             id="path68"
             style="fill:#1c0f01;fill-opacity:1;fill-rule:nonzero;stroke:none"
             d="m 0,0 -0.247,-0.678 h -2.077 v 0.096 c 0.611,0.558 1.041,1.013 1.291,1.366 0.249,0.353 0.373,0.676 0.373,0.969 0,0.223 -0.068,0.407 -0.205,0.55 -0.136,0.144 -0.3,0.216 -0.49,0.216 -0.174,0 -0.329,-0.051 -0.467,-0.152 -0.137,-0.101 -0.239,-0.25 -0.305,-0.445 h -0.096 c 0.044,0.32 0.155,0.566 0.334,0.737 0.179,0.171 0.403,0.257 0.671,0.257 0.286,0 0.524,-0.092 0.716,-0.275 0.191,-0.184 0.286,-0.4 0.286,-0.649 0,-0.179 -0.041,-0.357 -0.124,-0.535 C -0.468,1.176 -0.676,0.879 -0.963,0.566 -1.394,0.095 -1.664,-0.189 -1.771,-0.286 h 0.919 c 0.187,0 0.318,0.007 0.394,0.021 0.075,0.014 0.143,0.042 0.204,0.085 0.06,0.042 0.113,0.102 0.158,0.18 z" /></g><g
           transform="translate(14.102,33.2095)"
           id="g70"><path
             id="path72"
             style="fill:#1c0f01;fill-opacity:1;fill-rule:nonzero;stroke:none"
             d="m 0,0 c 0,-0.485 0.06,-0.88 0.179,-1.187 0.099,-0.258 0.246,-0.387 0.442,-0.387 0.093,0 0.19,0.042 0.29,0.126 0.101,0.084 0.177,0.225 0.229,0.422 0.08,0.298 0.119,0.718 0.119,1.26 0,0.401 -0.041,0.736 -0.124,1.005 C 1.072,1.438 0.992,1.579 0.893,1.662 0.822,1.719 0.737,1.748 0.636,1.748 0.518,1.748 0.414,1.695 0.322,1.589 0.197,1.445 0.113,1.22 0.068,0.911 0.023,0.603 0,0.299 0,0 m -0.509,0.065 c 0,0.402 0.061,0.747 0.182,1.037 0.121,0.29 0.282,0.506 0.483,0.648 0.156,0.113 0.317,0.169 0.483,0.169 0.27,0 0.512,-0.138 0.727,-0.413 C 1.634,1.165 1.768,0.703 1.768,0.119 1.768,-0.289 1.71,-0.636 1.592,-0.922 1.474,-1.207 1.324,-1.415 1.141,-1.544 0.959,-1.673 0.782,-1.737 0.613,-1.737 c -0.336,0 -0.616,0.198 -0.839,0.594 -0.189,0.335 -0.283,0.737 -0.283,1.208" /></g><g
           transform="translate(18.2489,33.4796)"
           id="g74"><path
             id="path76"
             style="fill:#1c0f01;fill-opacity:1;fill-rule:nonzero;stroke:none"
             d="m 0,0 c 0.279,0.336 0.544,0.504 0.797,0.504 0.13,0 0.242,-0.033 0.335,-0.098 C 1.226,0.341 1.3,0.235 1.355,0.086 1.394,-0.018 1.413,-0.177 1.413,-0.392 v -1.015 c 0,-0.151 0.012,-0.253 0.036,-0.307 0.019,-0.043 0.05,-0.077 0.092,-0.101 0.043,-0.024 0.121,-0.036 0.235,-0.036 V -1.945 H 0.6 v 0.094 h 0.049 c 0.111,0 0.188,0.016 0.233,0.05 0.044,0.034 0.074,0.084 0.092,0.149 0.007,0.026 0.01,0.108 0.01,0.245 v 0.973 C 0.984,-0.217 0.956,-0.06 0.9,0.038 0.843,0.135 0.749,0.184 0.615,0.184 0.409,0.184 0.204,0.072 0,-0.153 v -1.254 c 0,-0.161 0.01,-0.261 0.029,-0.299 0.024,-0.05 0.057,-0.087 0.1,-0.11 0.042,-0.024 0.128,-0.035 0.258,-0.035 v -0.094 h -1.176 v 0.094 h 0.052 c 0.121,0 0.202,0.03 0.245,0.092 0.042,0.061 0.064,0.178 0.064,0.352 v 0.882 c 0,0.286 -0.007,0.46 -0.02,0.522 -0.013,0.063 -0.033,0.105 -0.06,0.128 -0.027,0.022 -0.062,0.033 -0.107,0.033 -0.049,0 -0.107,-0.013 -0.174,-0.039 l -0.039,0.094 0.716,0.291 H 0 Z" /></g><g
           transform="translate(20.8197,35.2271)"
           id="g78"><path
             id="path80"
             style="fill:#1c0f01;fill-opacity:1;fill-rule:nonzero;stroke:none"
             d="M 0,0 C 0.073,0 0.135,-0.026 0.186,-0.077 0.237,-0.128 0.262,-0.19 0.262,-0.262 0.262,-0.335 0.237,-0.397 0.186,-0.449 0.135,-0.501 0.073,-0.527 0,-0.527 c -0.073,0 -0.135,0.026 -0.187,0.078 -0.052,0.052 -0.078,0.114 -0.078,0.187 0,0.072 0.026,0.134 0.077,0.185 C -0.137,-0.026 -0.074,0 0,0 m 0.216,-1.244 v -1.911 c 0,-0.149 0.01,-0.248 0.032,-0.297 0.022,-0.05 0.054,-0.086 0.096,-0.111 0.042,-0.024 0.12,-0.036 0.232,-0.036 v -0.094 h -1.155 v 0.094 c 0.116,0 0.194,0.011 0.234,0.034 0.039,0.022 0.071,0.059 0.094,0.111 0.024,0.052 0.035,0.152 0.035,0.299 v 0.917 c 0,0.258 -0.007,0.425 -0.023,0.501 -0.012,0.055 -0.031,0.094 -0.057,0.115 -0.026,0.022 -0.061,0.033 -0.106,0.033 -0.049,0 -0.108,-0.013 -0.177,-0.039 l -0.036,0.093 0.716,0.291 z" /></g><g
           transform="translate(23.7124,32.4383)"
           id="g82"><path
             id="path84"
             style="fill:#1c0f01;fill-opacity:1;fill-rule:nonzero;stroke:none"
             d="m 0,0 c -0.064,-0.313 -0.19,-0.554 -0.377,-0.723 -0.186,-0.169 -0.393,-0.253 -0.62,-0.253 -0.27,0 -0.506,0.113 -0.706,0.34 -0.201,0.227 -0.302,0.533 -0.302,0.919 0,0.374 0.112,0.678 0.334,0.911 0.222,0.234 0.489,0.351 0.801,0.351 0.234,0 0.426,-0.062 0.577,-0.186 0.15,-0.123 0.225,-0.252 0.225,-0.385 0,-0.066 -0.021,-0.119 -0.063,-0.16 -0.043,-0.041 -0.102,-0.061 -0.178,-0.061 -0.102,0 -0.179,0.033 -0.231,0.099 -0.03,0.036 -0.049,0.105 -0.059,0.207 -0.009,0.103 -0.044,0.18 -0.105,0.234 -0.06,0.052 -0.144,0.078 -0.252,0.078 -0.173,0 -0.312,-0.064 -0.418,-0.192 -0.14,-0.17 -0.21,-0.394 -0.21,-0.673 0,-0.284 0.07,-0.534 0.209,-0.751 0.139,-0.218 0.328,-0.326 0.565,-0.326 0.169,0 0.322,0.058 0.457,0.174 0.095,0.079 0.188,0.224 0.278,0.433 z" /></g><g
           transform="translate(24.7511,35.2271)"
           id="g86"><path
             id="path88"
             style="fill:#1c0f01;fill-opacity:1;fill-rule:nonzero;stroke:none"
             d="m 0,0 v -1.74 c 0.192,0.211 0.344,0.347 0.457,0.407 0.113,0.059 0.225,0.089 0.338,0.089 0.135,0 0.251,-0.037 0.348,-0.111 0.096,-0.075 0.168,-0.192 0.215,-0.351 0.033,-0.111 0.049,-0.313 0.049,-0.608 v -0.841 c 0,-0.151 0.013,-0.254 0.037,-0.309 0.017,-0.042 0.047,-0.074 0.088,-0.099 0.042,-0.024 0.118,-0.036 0.229,-0.036 V -3.693 H 0.592 v 0.094 h 0.055 c 0.11,0 0.187,0.017 0.231,0.051 0.043,0.033 0.073,0.083 0.091,0.149 0.005,0.028 0.007,0.109 0.007,0.244 v 0.841 c 0,0.26 -0.013,0.431 -0.04,0.512 -0.027,0.081 -0.07,0.142 -0.128,0.183 -0.059,0.041 -0.13,0.061 -0.213,0.061 C 0.51,-1.558 0.422,-1.581 0.33,-1.626 0.238,-1.671 0.128,-1.761 0,-1.898 v -1.257 c 0,-0.163 0.009,-0.264 0.027,-0.304 0.018,-0.04 0.052,-0.073 0.102,-0.1 0.049,-0.027 0.134,-0.04 0.255,-0.04 v -0.094 h -1.179 v 0.094 c 0.106,0 0.189,0.016 0.25,0.049 0.034,0.018 0.062,0.051 0.083,0.099 0.021,0.048 0.031,0.147 0.031,0.296 v 2.153 c 0,0.271 -0.007,0.439 -0.02,0.501 -0.013,0.062 -0.032,0.105 -0.059,0.127 -0.027,0.023 -0.063,0.034 -0.108,0.034 -0.036,0 -0.095,-0.014 -0.177,-0.042 L -0.831,-0.291 -0.119,0 Z" /></g><g
           transform="translate(27.7944,33.8145)"
           id="g90"><path
             id="path92"
             style="fill:#1c0f01;fill-opacity:1;fill-rule:nonzero;stroke:none"
             d="m 0,0 c -0.092,0 -0.184,-0.027 -0.277,-0.082 -0.092,-0.054 -0.167,-0.15 -0.224,-0.287 -0.057,-0.136 -0.086,-0.312 -0.086,-0.527 0,-0.346 0.069,-0.645 0.207,-0.896 0.137,-0.251 0.319,-0.376 0.544,-0.376 0.168,0 0.306,0.069 0.415,0.207 0.109,0.139 0.164,0.377 0.164,0.715 0,0.422 -0.091,0.754 -0.273,0.997 C 0.347,-0.083 0.19,0 0,0 m 0.08,0.169 c 0.361,0 0.65,-0.137 0.868,-0.411 0.185,-0.233 0.278,-0.502 0.278,-0.804 0,-0.213 -0.051,-0.429 -0.154,-0.647 C 0.97,-1.911 0.83,-2.076 0.65,-2.186 0.471,-2.297 0.272,-2.353 0.052,-2.353 c -0.358,0 -0.643,0.143 -0.854,0.429 -0.179,0.24 -0.268,0.511 -0.268,0.81 0,0.218 0.054,0.435 0.162,0.65 0.109,0.216 0.251,0.375 0.428,0.478 0.176,0.103 0.363,0.155 0.56,0.155" /></g><g
           transform="translate(30.1886,35.2271)"
           id="g94"><path
             id="path96"
             style="fill:#1c0f01;fill-opacity:1;fill-rule:nonzero;stroke:none"
             d="m 0,0 v -3.155 c 0,-0.149 0.011,-0.248 0.032,-0.296 0.022,-0.048 0.055,-0.085 0.1,-0.11 0.045,-0.025 0.129,-0.038 0.252,-0.038 v -0.094 h -1.166 v 0.094 c 0.109,0 0.184,0.011 0.224,0.034 0.04,0.022 0.071,0.059 0.093,0.111 0.023,0.052 0.034,0.152 0.034,0.299 v 2.16 c 0,0.269 -0.006,0.434 -0.018,0.495 -0.012,0.062 -0.032,0.104 -0.059,0.126 -0.026,0.023 -0.061,0.034 -0.102,0.034 -0.045,0 -0.102,-0.014 -0.172,-0.042 L -0.826,-0.291 -0.117,0 Z" /></g><g
           transform="translate(32.1958,32.0462)"
           id="g98"><path
             id="path100"
             style="fill:#1c0f01;fill-opacity:1;fill-rule:nonzero;stroke:none"
             d="M 0,0 V 0.906 C -0.261,0.802 -0.43,0.729 -0.506,0.686 -0.643,0.609 -0.741,0.53 -0.8,0.447 -0.859,0.364 -0.888,0.273 -0.888,0.174 c 0,-0.125 0.037,-0.228 0.112,-0.31 0.074,-0.083 0.16,-0.124 0.257,-0.124 0.131,0 0.304,0.087 0.519,0.26 m 0,-0.169 c -0.244,-0.188 -0.397,-0.298 -0.46,-0.327 -0.093,-0.043 -0.193,-0.065 -0.298,-0.065 -0.165,0 -0.3,0.056 -0.407,0.169 -0.106,0.112 -0.159,0.26 -0.159,0.444 0,0.116 0.026,0.216 0.078,0.301 0.071,0.118 0.194,0.229 0.37,0.333 0.175,0.103 0.467,0.23 0.876,0.379 v 0.093 c 0,0.237 -0.038,0.4 -0.113,0.488 -0.075,0.089 -0.185,0.133 -0.328,0.133 -0.109,0 -0.196,-0.03 -0.26,-0.089 C -0.767,1.632 -0.8,1.564 -0.8,1.488 l 0.005,-0.151 c 0,-0.079 -0.02,-0.141 -0.061,-0.184 -0.04,-0.043 -0.094,-0.065 -0.159,-0.065 -0.064,0 -0.117,0.023 -0.157,0.068 -0.041,0.045 -0.061,0.106 -0.061,0.184 0,0.149 0.076,0.286 0.228,0.41 0.152,0.125 0.366,0.187 0.641,0.187 0.212,0 0.385,-0.035 0.52,-0.106 C 0.258,1.777 0.333,1.693 0.382,1.579 0.413,1.504 0.428,1.352 0.428,1.122 V 0.314 c 0,-0.227 0.005,-0.365 0.013,-0.417 0.009,-0.051 0.023,-0.085 0.043,-0.102 0.02,-0.017 0.043,-0.026 0.069,-0.026 0.028,0 0.052,0.006 0.073,0.018 0.036,0.023 0.106,0.086 0.21,0.19 V -0.169 C 0.642,-0.428 0.457,-0.558 0.28,-0.558 0.196,-0.558 0.128,-0.529 0.078,-0.47 0.028,-0.411 0.002,-0.311 0,-0.169" /></g><g
           transform="translate(34.7458,33.9833)"
           id="g102"><path
             id="path104"
             style="fill:#1c0f01;fill-opacity:1;fill-rule:nonzero;stroke:none"
             d="m 0,0 v -0.81 h -0.086 c -0.065,0.254 -0.15,0.427 -0.253,0.519 -0.103,0.092 -0.234,0.138 -0.393,0.138 -0.121,0 -0.219,-0.032 -0.294,-0.096 -0.074,-0.064 -0.111,-0.135 -0.111,-0.213 0,-0.097 0.027,-0.18 0.083,-0.249 0.053,-0.071 0.162,-0.147 0.327,-0.226 l 0.379,-0.185 c 0.351,-0.171 0.527,-0.397 0.527,-0.678 0,-0.216 -0.082,-0.39 -0.245,-0.523 -0.164,-0.132 -0.347,-0.198 -0.549,-0.198 -0.146,0 -0.312,0.026 -0.499,0.078 -0.057,0.017 -0.104,0.025 -0.14,0.025 -0.04,0 -0.071,-0.022 -0.094,-0.067 h -0.085 v 0.849 h 0.085 c 0.049,-0.242 0.141,-0.425 0.278,-0.548 0.137,-0.123 0.29,-0.184 0.46,-0.184 0.119,0 0.217,0.035 0.292,0.105 0.075,0.07 0.113,0.154 0.113,0.253 0,0.12 -0.042,0.22 -0.126,0.301 -0.084,0.082 -0.252,0.185 -0.503,0.309 -0.251,0.125 -0.415,0.238 -0.493,0.338 -0.078,0.099 -0.117,0.223 -0.117,0.374 0,0.195 0.067,0.359 0.201,0.491 0.135,0.131 0.308,0.197 0.521,0.197 0.094,0 0.207,-0.02 0.34,-0.06 0.089,-0.026 0.147,-0.039 0.177,-0.039 0.028,0 0.049,0.006 0.065,0.019 0.015,0.012 0.034,0.038 0.054,0.08 z" /></g><g
           transform="translate(38.1449,33.9833)"
           id="g106"><path
             id="path108"
             style="fill:#1c0f01;fill-opacity:1;fill-rule:nonzero;stroke:none"
             d="m 0,0 v -0.81 h -0.086 c -0.065,0.254 -0.15,0.427 -0.253,0.519 -0.103,0.092 -0.234,0.138 -0.393,0.138 -0.121,0 -0.219,-0.032 -0.294,-0.096 -0.074,-0.064 -0.111,-0.135 -0.111,-0.213 0,-0.097 0.027,-0.18 0.083,-0.249 0.053,-0.071 0.162,-0.147 0.327,-0.226 l 0.379,-0.185 c 0.351,-0.171 0.527,-0.397 0.527,-0.678 0,-0.216 -0.082,-0.39 -0.245,-0.523 -0.164,-0.132 -0.347,-0.198 -0.549,-0.198 -0.146,0 -0.312,0.026 -0.499,0.078 -0.057,0.017 -0.104,0.025 -0.14,0.025 -0.04,0 -0.071,-0.022 -0.094,-0.067 h -0.085 v 0.849 h 0.085 c 0.049,-0.242 0.141,-0.425 0.278,-0.548 0.137,-0.123 0.29,-0.184 0.46,-0.184 0.119,0 0.217,0.035 0.292,0.105 0.075,0.07 0.113,0.154 0.113,0.253 0,0.12 -0.042,0.22 -0.126,0.301 -0.084,0.082 -0.252,0.185 -0.503,0.309 -0.251,0.125 -0.415,0.238 -0.493,0.338 -0.078,0.099 -0.117,0.223 -0.117,0.374 0,0.195 0.067,0.359 0.201,0.491 0.135,0.131 0.308,0.197 0.521,0.197 0.094,0 0.207,-0.02 0.34,-0.06 0.089,-0.026 0.147,-0.039 0.177,-0.039 0.028,0 0.049,0.006 0.065,0.019 0.015,0.012 0.034,0.038 0.054,0.08 z" /></g><g
           transform="translate(39.3679,34.6948)"
           id="g110"><path
             id="path112"
             style="fill:#1c0f01;fill-opacity:1;fill-rule:nonzero;stroke:none"
             d="M 0,0 V -0.782 H 0.556 V -0.963 H 0 v -1.543 c 0,-0.154 0.022,-0.258 0.066,-0.311 0.044,-0.054 0.101,-0.081 0.17,-0.081 0.057,0 0.113,0.018 0.166,0.053 0.054,0.036 0.096,0.088 0.125,0.157 H 0.628 C 0.568,-2.857 0.482,-2.985 0.371,-3.071 0.261,-3.156 0.146,-3.199 0.029,-3.199 c -0.08,0 -0.158,0.022 -0.234,0.066 -0.076,0.044 -0.133,0.107 -0.169,0.19 -0.036,0.082 -0.054,0.209 -0.054,0.38 v 1.6 h -0.377 v 0.085 c 0.095,0.038 0.193,0.103 0.292,0.194 0.1,0.091 0.188,0.198 0.266,0.323 0.04,0.066 0.096,0.186 0.167,0.361 z" /></g><g
           transform="translate(40.8506,33.9833)"
           id="g114"><path
             id="path116"
             style="fill:#1c0f01;fill-opacity:1;fill-rule:nonzero;stroke:none"
             d="M 0,0 V -0.535 C 0.199,-0.178 0.403,0 0.613,0 0.708,0 0.787,-0.029 0.849,-0.087 0.911,-0.145 0.943,-0.212 0.943,-0.288 0.943,-0.356 0.92,-0.413 0.875,-0.46 0.83,-0.506 0.776,-0.53 0.714,-0.53 0.654,-0.53 0.586,-0.5 0.51,-0.44 0.435,-0.38 0.379,-0.351 0.343,-0.351 0.312,-0.351 0.278,-0.368 0.241,-0.402 0.164,-0.473 0.083,-0.59 0,-0.753 v -1.14 c 0,-0.132 0.016,-0.231 0.049,-0.299 0.023,-0.046 0.063,-0.085 0.12,-0.116 0.057,-0.032 0.139,-0.047 0.246,-0.047 v -0.094 h -1.217 v 0.094 c 0.121,0 0.211,0.019 0.27,0.057 0.043,0.028 0.073,0.072 0.091,0.132 0.008,0.03 0.013,0.114 0.013,0.252 v 0.922 c 0,0.277 -0.006,0.442 -0.017,0.495 -0.012,0.053 -0.032,0.091 -0.063,0.115 -0.03,0.025 -0.068,0.037 -0.113,0.037 -0.053,0 -0.114,-0.013 -0.181,-0.039 L -0.828,-0.291 -0.109,0 Z" /></g><g
           transform="translate(42.3255,33.168)"
           id="g118"><path
             id="path120"
             style="fill:#1c0f01;fill-opacity:1;fill-rule:nonzero;stroke:none"
             d="M 0,0 H 1.101 C 1.092,0.152 1.074,0.26 1.046,0.322 1.003,0.419 0.939,0.495 0.853,0.55 0.767,0.606 0.678,0.634 0.584,0.634 0.441,0.634 0.312,0.578 0.199,0.466 0.085,0.354 0.019,0.199 0,0 m 0,-0.151 c -0.002,-0.353 0.084,-0.63 0.257,-0.831 0.173,-0.2 0.377,-0.301 0.61,-0.301 0.156,0 0.292,0.043 0.407,0.129 0.115,0.085 0.211,0.232 0.289,0.44 L 1.644,-0.766 C 1.607,-1.003 1.502,-1.219 1.327,-1.414 1.152,-1.609 0.933,-1.706 0.67,-1.706 c -0.286,0 -0.53,0.111 -0.734,0.334 -0.203,0.222 -0.305,0.521 -0.305,0.897 0,0.407 0.105,0.724 0.313,0.951 0.209,0.228 0.471,0.342 0.786,0.342 0.266,0 0.485,-0.088 0.657,-0.264 0.171,-0.175 0.257,-0.41 0.257,-0.705 z" /></g><g
           transform="translate(44.6859,33.168)"
           id="g122"><path
             id="path124"
             style="fill:#1c0f01;fill-opacity:1;fill-rule:nonzero;stroke:none"
             d="M 0,0 H 1.101 C 1.092,0.152 1.074,0.26 1.046,0.322 1.003,0.419 0.939,0.495 0.853,0.55 0.767,0.606 0.678,0.634 0.584,0.634 0.441,0.634 0.312,0.578 0.199,0.466 0.085,0.354 0.019,0.199 0,0 m 0,-0.151 c -0.002,-0.353 0.084,-0.63 0.257,-0.831 0.173,-0.2 0.377,-0.301 0.61,-0.301 0.156,0 0.292,0.043 0.407,0.129 0.115,0.085 0.211,0.232 0.289,0.44 L 1.644,-0.766 C 1.607,-1.003 1.502,-1.219 1.327,-1.414 1.152,-1.609 0.933,-1.706 0.67,-1.706 c -0.286,0 -0.53,0.111 -0.734,0.334 -0.203,0.222 -0.305,0.521 -0.305,0.897 0,0.407 0.105,0.724 0.313,0.951 0.209,0.228 0.471,0.342 0.786,0.342 0.266,0 0.485,-0.088 0.657,-0.264 0.171,-0.175 0.257,-0.41 0.257,-0.705 z" /></g><g
           transform="translate(47.3372,34.6948)"
           id="g126"><path
             id="path128"
             style="fill:#1c0f01;fill-opacity:1;fill-rule:nonzero;stroke:none"
             d="M 0,0 V -0.782 H 0.556 V -0.963 H 0 v -1.543 c 0,-0.154 0.022,-0.258 0.066,-0.311 0.044,-0.054 0.101,-0.081 0.17,-0.081 0.057,0 0.113,0.018 0.166,0.053 0.054,0.036 0.096,0.088 0.125,0.157 H 0.628 C 0.568,-2.857 0.482,-2.985 0.371,-3.071 0.261,-3.156 0.146,-3.199 0.029,-3.199 c -0.08,0 -0.158,0.022 -0.234,0.066 -0.076,0.044 -0.133,0.107 -0.169,0.19 -0.036,0.082 -0.054,0.209 -0.054,0.38 v 1.6 h -0.377 v 0.085 c 0.095,0.038 0.193,0.103 0.292,0.194 0.1,0.091 0.188,0.198 0.266,0.323 0.04,0.066 0.096,0.186 0.166,0.361 z" /></g><g
           transform="translate(50.9907,33.9833)"
           id="g130"><path
             id="path132"
             style="fill:#1c0f01;fill-opacity:1;fill-rule:nonzero;stroke:none"
             d="m 0,0 v -0.81 h -0.086 c -0.065,0.254 -0.15,0.427 -0.253,0.519 -0.103,0.092 -0.234,0.138 -0.393,0.138 -0.121,0 -0.219,-0.032 -0.294,-0.096 -0.074,-0.064 -0.111,-0.135 -0.111,-0.213 0,-0.097 0.027,-0.18 0.083,-0.249 0.053,-0.071 0.162,-0.147 0.327,-0.226 l 0.379,-0.185 c 0.351,-0.171 0.527,-0.397 0.527,-0.678 0,-0.216 -0.082,-0.39 -0.245,-0.523 -0.164,-0.132 -0.347,-0.198 -0.549,-0.198 -0.146,0 -0.312,0.026 -0.499,0.078 -0.057,0.017 -0.104,0.025 -0.14,0.025 -0.04,0 -0.071,-0.022 -0.094,-0.067 h -0.085 v 0.849 h 0.085 c 0.049,-0.242 0.141,-0.425 0.278,-0.548 0.137,-0.123 0.29,-0.184 0.46,-0.184 0.119,0 0.217,0.035 0.292,0.105 0.075,0.07 0.113,0.154 0.113,0.253 0,0.12 -0.042,0.22 -0.126,0.301 -0.084,0.082 -0.252,0.185 -0.503,0.309 -0.251,0.125 -0.415,0.238 -0.493,0.338 -0.078,0.099 -0.117,0.223 -0.117,0.374 0,0.195 0.067,0.359 0.201,0.491 0.135,0.131 0.308,0.197 0.521,0.197 0.094,0 0.207,-0.02 0.34,-0.06 0.089,-0.026 0.147,-0.039 0.177,-0.039 0.028,0 0.049,0.006 0.065,0.019 0.015,0.012 0.034,0.038 0.054,0.08 z" /></g><g
           transform="translate(53.6082,33.9132)"
           id="g134"><path
             id="path136"
             style="fill:#1c0f01;fill-opacity:1;fill-rule:nonzero;stroke:none"
             d="m 0,0 v -1.441 c 0,-0.275 0.007,-0.444 0.019,-0.505 0.013,-0.062 0.034,-0.105 0.063,-0.129 0.028,-0.024 0.062,-0.036 0.1,-0.036 0.053,0 0.114,0.015 0.182,0.044 L 0.4,-2.158 -0.312,-2.451 h -0.116 v 0.503 c -0.205,-0.221 -0.361,-0.36 -0.468,-0.418 -0.107,-0.057 -0.221,-0.085 -0.34,-0.085 -0.133,0 -0.249,0.038 -0.347,0.115 -0.097,0.077 -0.165,0.176 -0.204,0.298 -0.038,0.121 -0.057,0.292 -0.057,0.514 v 1.062 c 0,0.112 -0.012,0.19 -0.036,0.233 -0.024,0.044 -0.06,0.077 -0.108,0.1 -0.047,0.024 -0.134,0.035 -0.258,0.033 V 0 h 0.833 v -1.592 c 0,-0.221 0.039,-0.367 0.116,-0.436 0.077,-0.069 0.17,-0.104 0.279,-0.104 0.075,0 0.159,0.023 0.253,0.07 0.095,0.047 0.207,0.136 0.337,0.268 v 1.347 c 0,0.135 -0.025,0.227 -0.074,0.274 -0.05,0.048 -0.152,0.073 -0.308,0.077 l 0,0.096 z" /></g><g
           transform="translate(54.7871,35.2271)"
           id="g138"><path
             id="path140"
             style="fill:#1c0f01;fill-opacity:1;fill-rule:nonzero;stroke:none"
             d="M 0,0 C 0.073,0 0.135,-0.026 0.186,-0.077 0.237,-0.128 0.262,-0.19 0.262,-0.262 0.262,-0.335 0.237,-0.397 0.186,-0.449 0.135,-0.501 0.073,-0.527 0,-0.527 c -0.073,0 -0.135,0.026 -0.187,0.078 -0.052,0.052 -0.078,0.114 -0.078,0.187 0,0.072 0.026,0.134 0.077,0.185 C -0.137,-0.026 -0.074,0 0,0 m 0.216,-1.244 v -1.911 c 0,-0.149 0.01,-0.248 0.032,-0.297 0.022,-0.05 0.054,-0.086 0.096,-0.111 0.042,-0.024 0.12,-0.036 0.232,-0.036 v -0.094 h -1.155 v 0.094 c 0.116,0 0.194,0.011 0.234,0.034 0.039,0.022 0.071,0.059 0.094,0.111 0.024,0.052 0.035,0.152 0.035,0.299 v 0.917 c 0,0.258 -0.007,0.425 -0.023,0.501 -0.012,0.055 -0.031,0.094 -0.057,0.115 -0.026,0.022 -0.061,0.033 -0.106,0.033 -0.049,0 -0.108,-0.013 -0.177,-0.039 l -0.036,0.093 0.716,0.291 z" /></g><g
           transform="translate(56.3503,34.6948)"
           id="g142"><path
             id="path144"
             style="fill:#1c0f01;fill-opacity:1;fill-rule:nonzero;stroke:none"
             d="M 0,0 V -0.782 H 0.556 V -0.963 H 0 v -1.543 c 0,-0.154 0.022,-0.258 0.066,-0.311 0.044,-0.054 0.101,-0.081 0.17,-0.081 0.057,0 0.113,0.018 0.166,0.053 0.054,0.036 0.096,0.088 0.125,0.157 H 0.628 C 0.568,-2.857 0.482,-2.985 0.371,-3.071 0.261,-3.156 0.146,-3.199 0.029,-3.199 c -0.08,0 -0.158,0.022 -0.234,0.066 -0.076,0.044 -0.133,0.107 -0.169,0.19 -0.036,0.082 -0.054,0.209 -0.054,0.38 v 1.6 h -0.377 v 0.085 c 0.095,0.038 0.193,0.103 0.292,0.194 0.1,0.091 0.188,0.198 0.266,0.323 0.04,0.066 0.096,0.186 0.167,0.361 z" /></g><g
           transform="translate(57.537,33.168)"
           id="g146"><path
             id="path148"
             style="fill:#1c0f01;fill-opacity:1;fill-rule:nonzero;stroke:none"
             d="M 0,0 H 1.101 C 1.092,0.152 1.074,0.26 1.046,0.322 1.003,0.419 0.939,0.495 0.853,0.55 0.767,0.606 0.678,0.634 0.584,0.634 0.441,0.634 0.312,0.578 0.199,0.466 0.085,0.354 0.019,0.199 0,0 m 0,-0.151 c -0.002,-0.353 0.084,-0.63 0.257,-0.831 0.173,-0.2 0.377,-0.301 0.61,-0.301 0.156,0 0.292,0.043 0.407,0.129 0.115,0.085 0.211,0.232 0.289,0.44 L 1.644,-0.766 C 1.607,-1.003 1.502,-1.219 1.327,-1.414 1.152,-1.609 0.933,-1.706 0.67,-1.706 c -0.286,0 -0.53,0.111 -0.734,0.334 -0.203,0.222 -0.305,0.521 -0.305,0.897 0,0.407 0.105,0.724 0.313,0.951 0.209,0.228 0.471,0.342 0.786,0.342 0.266,0 0.485,-0.088 0.657,-0.264 0.171,-0.175 0.257,-0.41 0.257,-0.705 z" /></g><g
           transform="translate(62.1514,35.2271)"
           id="g150"><path
             id="path152"
             style="fill:#1c0f01;fill-opacity:1;fill-rule:nonzero;stroke:none"
             d="M 0,0 -1.275,-3.765 H -1.483 L -0.208,0 Z" /></g><g
           transform="translate(63.5016,33.9132)"
           id="g154"><path
             id="path156"
             style="fill:#1c0f01;fill-opacity:1;fill-rule:nonzero;stroke:none"
             d="M 0,0 H 0.997 V -0.096 C 0.905,-0.103 0.845,-0.119 0.817,-0.145 0.788,-0.171 0.774,-0.209 0.774,-0.257 c 0,-0.054 0.015,-0.119 0.044,-0.195 l 0.509,-1.368 0.511,1.114 -0.135,0.35 C 1.662,-0.252 1.607,-0.18 1.54,-0.14 1.502,-0.116 1.431,-0.101 1.327,-0.096 V 0 H 2.459 V -0.096 C 2.334,-0.101 2.246,-0.124 2.194,-0.164 2.159,-0.191 2.142,-0.235 2.142,-0.296 c 0,-0.035 0.007,-0.07 0.021,-0.106 l 0.54,-1.366 0.501,1.316 c 0.035,0.094 0.052,0.168 0.052,0.223 0,0.033 -0.017,0.063 -0.05,0.089 -0.034,0.026 -0.1,0.04 -0.199,0.044 V 0 h 0.75 V -0.096 C 3.607,-0.119 3.496,-0.221 3.425,-0.402 L 2.63,-2.451 H 2.524 L 1.929,-0.932 1.236,-2.451 H 1.14 L 0.377,-0.452 C 0.326,-0.325 0.277,-0.24 0.229,-0.196 0.18,-0.152 0.104,-0.119 0,-0.096 Z" /></g><g
           transform="translate(67.342,33.9132)"
           id="g158"><path
             id="path160"
             style="fill:#1c0f01;fill-opacity:1;fill-rule:nonzero;stroke:none"
             d="M 0,0 H 0.997 V -0.096 C 0.905,-0.103 0.845,-0.119 0.817,-0.145 0.788,-0.171 0.774,-0.209 0.774,-0.257 c 0,-0.054 0.015,-0.119 0.044,-0.195 l 0.509,-1.368 0.511,1.114 -0.135,0.35 C 1.662,-0.252 1.607,-0.18 1.54,-0.14 1.502,-0.116 1.431,-0.101 1.327,-0.096 V 0 H 2.459 V -0.096 C 2.334,-0.101 2.246,-0.124 2.194,-0.164 2.16,-0.191 2.142,-0.235 2.142,-0.296 c 0,-0.035 0.007,-0.07 0.021,-0.106 l 0.54,-1.366 0.501,1.316 c 0.035,0.094 0.052,0.168 0.052,0.223 0,0.033 -0.017,0.063 -0.05,0.089 -0.034,0.026 -0.1,0.04 -0.199,0.044 V 0 h 0.75 V -0.096 C 3.607,-0.119 3.496,-0.221 3.425,-0.402 L 2.63,-2.451 H 2.524 L 1.929,-0.932 1.236,-2.451 H 1.14 L 0.377,-0.452 C 0.326,-0.325 0.277,-0.24 0.229,-0.196 0.18,-0.152 0.104,-0.119 0,-0.096 Z" /></g><g
           transform="translate(71.1826,33.9132)"
           id="g162"><path
             id="path164"
             style="fill:#1c0f01;fill-opacity:1;fill-rule:nonzero;stroke:none"
             d="M 0,0 H 0.997 V -0.096 C 0.905,-0.103 0.845,-0.119 0.817,-0.145 0.788,-0.171 0.774,-0.209 0.774,-0.257 c 0,-0.054 0.015,-0.119 0.044,-0.195 l 0.509,-1.368 0.511,1.114 -0.135,0.35 C 1.662,-0.252 1.607,-0.18 1.54,-0.14 1.502,-0.116 1.431,-0.101 1.327,-0.096 V 0 H 2.459 V -0.096 C 2.334,-0.101 2.246,-0.124 2.194,-0.164 2.16,-0.191 2.142,-0.235 2.142,-0.296 c 0,-0.035 0.007,-0.07 0.021,-0.106 l 0.54,-1.366 0.501,1.316 c 0.035,0.094 0.052,0.168 0.052,0.223 0,0.033 -0.017,0.063 -0.05,0.089 -0.034,0.026 -0.1,0.04 -0.199,0.044 V 0 h 0.75 V -0.096 C 3.607,-0.119 3.496,-0.221 3.425,-0.402 L 2.63,-2.451 H 2.524 L 1.929,-0.932 1.236,-2.451 H 1.14 L 0.377,-0.452 C 0.326,-0.325 0.277,-0.24 0.229,-0.196 0.18,-0.152 0.104,-0.119 0,-0.096 Z" /></g><g
           transform="translate(75.3087,32.0384)"
           id="g166"><path
             id="path168"
             style="fill:#1c0f01;fill-opacity:1;fill-rule:nonzero;stroke:none"
             d="M 0,0 C 0.081,0 0.15,-0.028 0.205,-0.084 0.261,-0.141 0.288,-0.209 0.288,-0.288 0.288,-0.368 0.26,-0.436 0.204,-0.492 0.148,-0.548 0.08,-0.576 0,-0.576 c -0.08,0 -0.148,0.028 -0.204,0.084 -0.056,0.056 -0.084,0.124 -0.084,0.204 0,0.081 0.028,0.15 0.084,0.205 C -0.148,-0.028 -0.08,0 0,0" /></g><g
           transform="translate(76.8304,34.6948)"
           id="g170"><path
             id="path172"
             style="fill:#1c0f01;fill-opacity:1;fill-rule:nonzero;stroke:none"
             d="M 0,0 V -0.782 H 0.556 V -0.963 H 0 v -1.543 c 0,-0.154 0.022,-0.258 0.066,-0.311 0.044,-0.054 0.101,-0.081 0.17,-0.081 0.057,0 0.113,0.018 0.166,0.053 0.054,0.036 0.096,0.088 0.125,0.157 H 0.628 C 0.568,-2.857 0.482,-2.985 0.371,-3.071 0.261,-3.156 0.146,-3.199 0.029,-3.199 c -0.08,0 -0.158,0.022 -0.234,0.066 -0.076,0.044 -0.133,0.107 -0.169,0.19 -0.036,0.082 -0.054,0.209 -0.054,0.38 v 1.6 h -0.377 v 0.085 c 0.095,0.038 0.193,0.103 0.292,0.194 0.1,0.091 0.188,0.198 0.266,0.323 0.04,0.066 0.096,0.186 0.167,0.361 z" /></g><g
           transform="translate(78.3131,33.9833)"
           id="g174"><path
             id="path176"
             style="fill:#1c0f01;fill-opacity:1;fill-rule:nonzero;stroke:none"
             d="M 0,0 V -0.535 C 0.199,-0.178 0.403,0 0.613,0 0.708,0 0.787,-0.029 0.849,-0.087 0.911,-0.145 0.943,-0.212 0.943,-0.288 0.943,-0.356 0.92,-0.413 0.875,-0.46 0.83,-0.506 0.776,-0.53 0.714,-0.53 0.654,-0.53 0.586,-0.5 0.51,-0.44 0.435,-0.38 0.379,-0.351 0.343,-0.351 0.312,-0.351 0.278,-0.368 0.241,-0.402 0.164,-0.473 0.083,-0.59 0,-0.753 v -1.14 c 0,-0.132 0.016,-0.231 0.049,-0.299 0.023,-0.046 0.063,-0.085 0.12,-0.116 0.057,-0.032 0.139,-0.047 0.246,-0.047 v -0.094 h -1.217 v 0.094 c 0.121,0 0.211,0.019 0.27,0.057 0.043,0.028 0.073,0.072 0.091,0.132 0.008,0.03 0.013,0.114 0.013,0.252 v 0.922 c 0,0.277 -0.006,0.442 -0.017,0.495 -0.012,0.053 -0.032,0.091 -0.063,0.115 -0.03,0.025 -0.068,0.037 -0.113,0.037 -0.053,0 -0.114,-0.013 -0.181,-0.039 L -0.828,-0.291 -0.109,0 Z" /></g><g
           transform="translate(79.788,33.168)"
           id="g178"><path
             id="path180"
             style="fill:#1c0f01;fill-opacity:1;fill-rule:nonzero;stroke:none"
             d="M 0,0 H 1.101 C 1.092,0.152 1.074,0.26 1.046,0.322 1.003,0.419 0.939,0.495 0.853,0.55 0.767,0.606 0.678,0.634 0.584,0.634 0.441,0.634 0.312,0.578 0.199,0.466 0.085,0.354 0.019,0.199 0,0 m 0,-0.151 c -0.002,-0.353 0.084,-0.63 0.257,-0.831 0.173,-0.2 0.377,-0.301 0.61,-0.301 0.156,0 0.292,0.043 0.407,0.129 0.115,0.085 0.211,0.232 0.289,0.44 L 1.644,-0.766 C 1.607,-1.003 1.502,-1.219 1.327,-1.414 1.152,-1.609 0.933,-1.706 0.67,-1.706 c -0.286,0 -0.53,0.111 -0.734,0.334 -0.203,0.222 -0.305,0.521 -0.305,0.897 0,0.407 0.105,0.724 0.313,0.951 0.209,0.228 0.471,0.342 0.786,0.342 0.266,0 0.485,-0.088 0.657,-0.264 0.171,-0.175 0.257,-0.41 0.257,-0.705 z" /></g><g
           transform="translate(83.4286,31.9839)"
           id="g182"><path
             id="path184"
             style="fill:#1c0f01;fill-opacity:1;fill-rule:nonzero;stroke:none"
             d="m 0,0 v 1.226 c -0.01,0.117 -0.042,0.225 -0.093,0.322 -0.052,0.097 -0.121,0.17 -0.207,0.219 -0.086,0.049 -0.169,0.074 -0.25,0.074 -0.153,0 -0.289,-0.068 -0.408,-0.205 -0.158,-0.18 -0.236,-0.443 -0.236,-0.789 0,-0.35 0.076,-0.618 0.228,-0.804 0.152,-0.186 0.322,-0.279 0.509,-0.279 0.158,0 0.31,0.078 0.457,0.236 m 0,-0.182 c -0.116,-0.121 -0.229,-0.208 -0.34,-0.261 -0.111,-0.053 -0.23,-0.079 -0.359,-0.079 -0.259,0 -0.486,0.109 -0.68,0.326 -0.194,0.217 -0.291,0.496 -0.291,0.837 0,0.341 0.108,0.653 0.322,0.936 0.215,0.284 0.491,0.425 0.829,0.425 0.209,0 0.382,-0.067 0.519,-0.2 v 0.439 c 0,0.272 -0.006,0.439 -0.019,0.501 -0.013,0.062 -0.034,0.105 -0.061,0.127 -0.028,0.023 -0.063,0.034 -0.104,0.034 -0.045,0 -0.105,-0.014 -0.18,-0.041 l -0.033,0.09 0.709,0.291 h 0.116 v -2.75 c 0,-0.278 0.007,-0.448 0.02,-0.51 0.013,-0.061 0.034,-0.104 0.062,-0.128 0.029,-0.025 0.062,-0.037 0.1,-0.037 0.047,0 0.109,0.015 0.187,0.044 L 0.826,-0.229 0.119,-0.522 H 0 Z" /></g><g
           transform="translate(85.0126,35.2271)"
           id="g186"><path
             id="path188"
             style="fill:#1c0f01;fill-opacity:1;fill-rule:nonzero;stroke:none"
             d="M 0,0 C 0.073,0 0.135,-0.026 0.186,-0.077 0.237,-0.128 0.262,-0.19 0.262,-0.262 0.262,-0.335 0.237,-0.397 0.186,-0.449 0.135,-0.501 0.073,-0.527 0,-0.527 c -0.073,0 -0.135,0.026 -0.187,0.078 -0.052,0.052 -0.078,0.114 -0.078,0.187 0,0.072 0.026,0.134 0.077,0.185 C -0.137,-0.026 -0.074,0 0,0 m 0.216,-1.244 v -1.911 c 0,-0.149 0.01,-0.248 0.032,-0.297 0.022,-0.05 0.054,-0.086 0.096,-0.111 0.042,-0.024 0.12,-0.036 0.232,-0.036 v -0.094 h -1.155 v 0.094 c 0.116,0 0.194,0.011 0.234,0.034 0.039,0.022 0.071,0.059 0.094,0.111 0.024,0.052 0.035,0.152 0.035,0.299 v 0.917 c 0,0.258 -0.007,0.425 -0.023,0.501 -0.012,0.055 -0.031,0.094 -0.057,0.115 -0.026,0.022 -0.061,0.033 -0.106,0.033 -0.049,0 -0.108,-0.013 -0.177,-0.039 l -0.036,0.093 0.716,0.291 z" /></g><g
           transform="translate(86.5758,34.6948)"
           id="g190"><path
             id="path192"
             style="fill:#1c0f01;fill-opacity:1;fill-rule:nonzero;stroke:none"
             d="M 0,0 V -0.782 H 0.556 V -0.963 H 0 v -1.543 c 0,-0.154 0.022,-0.258 0.066,-0.311 0.044,-0.054 0.101,-0.081 0.17,-0.081 0.057,0 0.113,0.018 0.166,0.053 0.054,0.036 0.096,0.088 0.125,0.157 H 0.628 C 0.568,-2.857 0.482,-2.985 0.371,-3.071 0.261,-3.156 0.146,-3.199 0.029,-3.199 c -0.08,0 -0.158,0.022 -0.234,0.066 -0.076,0.044 -0.133,0.107 -0.169,0.19 -0.036,0.082 -0.054,0.209 -0.054,0.38 v 1.6 h -0.377 v 0.085 c 0.095,0.038 0.193,0.103 0.292,0.194 0.1,0.091 0.188,0.198 0.266,0.323 0.04,0.066 0.096,0.186 0.167,0.361 z" /></g><g
           transform="translate(88.0144,33.3367)"
           id="g194"><path
             id="path196"
             style="fill:#1c0f01;fill-opacity:1;fill-rule:nonzero;stroke:none"
             d="m 0,0 v -1.423 c 0.088,-0.087 0.18,-0.152 0.274,-0.196 0.094,-0.044 0.191,-0.066 0.289,-0.066 0.158,0 0.305,0.086 0.441,0.259 0.136,0.174 0.203,0.425 0.203,0.756 0,0.305 -0.067,0.539 -0.203,0.702 C 0.868,0.196 0.713,0.278 0.54,0.278 0.448,0.278 0.357,0.254 0.265,0.208 0.196,0.173 0.107,0.104 0,0 m 0,0.166 c 0.23,0.32 0.479,0.481 0.745,0.481 0.244,0 0.457,-0.105 0.639,-0.313 0.182,-0.209 0.273,-0.494 0.273,-0.856 0,-0.422 -0.141,-0.763 -0.421,-1.02 -0.241,-0.222 -0.509,-0.333 -0.805,-0.333 -0.138,0 -0.279,0.025 -0.422,0.075 -0.143,0.051 -0.289,0.126 -0.437,0.226 v 2.465 c 0,0.27 -0.007,0.436 -0.02,0.498 -0.013,0.063 -0.033,0.105 -0.061,0.127 -0.028,0.023 -0.062,0.034 -0.104,0.034 -0.048,0 -0.109,-0.014 -0.182,-0.041 L -0.831,1.6 -0.117,1.89 H 0 Z" /></g><g
           transform="translate(90.7175,33.9833)"
           id="g198"><path
             id="path200"
             style="fill:#1c0f01;fill-opacity:1;fill-rule:nonzero;stroke:none"
             d="M 0,0 V -0.535 C 0.199,-0.178 0.403,0 0.613,0 0.708,0 0.787,-0.029 0.849,-0.087 0.911,-0.145 0.943,-0.212 0.943,-0.288 0.943,-0.356 0.92,-0.413 0.875,-0.46 0.83,-0.506 0.776,-0.53 0.714,-0.53 0.654,-0.53 0.586,-0.5 0.51,-0.44 0.435,-0.38 0.379,-0.351 0.343,-0.351 0.312,-0.351 0.278,-0.368 0.242,-0.402 0.164,-0.473 0.083,-0.59 0,-0.753 v -1.14 c 0,-0.132 0.016,-0.231 0.049,-0.299 0.023,-0.046 0.063,-0.085 0.12,-0.116 0.057,-0.032 0.139,-0.047 0.246,-0.047 v -0.094 h -1.217 v 0.094 c 0.121,0 0.211,0.019 0.27,0.057 0.043,0.028 0.073,0.072 0.091,0.132 0.008,0.03 0.013,0.114 0.013,0.252 v 0.922 c 0,0.277 -0.006,0.442 -0.017,0.495 -0.012,0.053 -0.032,0.091 -0.063,0.115 -0.03,0.025 -0.068,0.037 -0.113,0.037 -0.053,0 -0.114,-0.013 -0.181,-0.039 L -0.828,-0.291 -0.109,0 Z" /></g><g
           transform="translate(93.1403,32.0462)"
           id="g202"><path
             id="path204"
             style="fill:#1c0f01;fill-opacity:1;fill-rule:nonzero;stroke:none"
             d="M 0,0 V 0.906 C -0.261,0.802 -0.43,0.729 -0.506,0.686 -0.643,0.609 -0.741,0.53 -0.8,0.447 -0.859,0.364 -0.888,0.273 -0.888,0.174 c 0,-0.125 0.037,-0.228 0.112,-0.31 0.074,-0.083 0.16,-0.124 0.257,-0.124 0.131,0 0.304,0.087 0.519,0.26 m 0,-0.169 c -0.244,-0.188 -0.397,-0.298 -0.46,-0.327 -0.093,-0.043 -0.193,-0.065 -0.298,-0.065 -0.165,0 -0.3,0.056 -0.407,0.169 -0.106,0.112 -0.159,0.26 -0.159,0.444 0,0.116 0.026,0.216 0.078,0.301 0.071,0.118 0.194,0.229 0.37,0.333 0.175,0.103 0.467,0.23 0.876,0.379 v 0.093 c 0,0.237 -0.038,0.4 -0.113,0.488 -0.075,0.089 -0.185,0.133 -0.328,0.133 -0.11,0 -0.196,-0.03 -0.26,-0.089 C -0.767,1.632 -0.8,1.564 -0.8,1.488 l 0.005,-0.151 c 0,-0.079 -0.02,-0.141 -0.061,-0.184 -0.04,-0.043 -0.094,-0.065 -0.159,-0.065 -0.064,0 -0.117,0.023 -0.157,0.068 -0.041,0.045 -0.061,0.106 -0.061,0.184 0,0.149 0.076,0.286 0.228,0.41 0.152,0.125 0.366,0.187 0.641,0.187 0.212,0 0.385,-0.035 0.52,-0.106 C 0.258,1.777 0.333,1.693 0.382,1.579 0.413,1.504 0.428,1.352 0.428,1.122 V 0.314 c 0,-0.227 0.005,-0.365 0.013,-0.417 0.009,-0.051 0.023,-0.085 0.043,-0.102 0.02,-0.017 0.043,-0.026 0.069,-0.026 0.028,0 0.052,0.006 0.073,0.018 0.036,0.023 0.106,0.086 0.21,0.19 V -0.169 C 0.642,-0.428 0.457,-0.558 0.28,-0.558 0.196,-0.558 0.128,-0.529 0.078,-0.47 0.028,-0.411 0.002,-0.311 0,-0.169" /></g><g
           transform="translate(94.8463,33.4796)"
           id="g206"><path
             id="path208"
             style="fill:#1c0f01;fill-opacity:1;fill-rule:nonzero;stroke:none"
             d="m 0,0 c 0.279,0.336 0.544,0.504 0.797,0.504 0.13,0 0.242,-0.033 0.335,-0.098 C 1.226,0.341 1.3,0.235 1.355,0.086 1.394,-0.018 1.413,-0.177 1.413,-0.392 v -1.015 c 0,-0.151 0.012,-0.253 0.036,-0.307 0.019,-0.043 0.05,-0.077 0.092,-0.101 0.043,-0.024 0.121,-0.036 0.235,-0.036 V -1.945 H 0.6 v 0.094 h 0.049 c 0.111,0 0.188,0.016 0.233,0.05 0.044,0.034 0.074,0.084 0.092,0.149 0.007,0.026 0.01,0.108 0.01,0.245 v 0.973 C 0.984,-0.217 0.956,-0.06 0.9,0.038 0.843,0.135 0.749,0.184 0.615,0.184 0.409,0.184 0.204,0.072 0,-0.153 v -1.254 c 0,-0.161 0.01,-0.261 0.029,-0.299 0.024,-0.05 0.057,-0.087 0.1,-0.11 0.042,-0.024 0.128,-0.035 0.258,-0.035 v -0.094 h -1.176 v 0.094 h 0.052 c 0.121,0 0.203,0.03 0.245,0.092 0.042,0.061 0.064,0.178 0.064,0.352 v 0.882 c 0,0.286 -0.007,0.46 -0.02,0.522 -0.013,0.063 -0.033,0.105 -0.06,0.128 -0.026,0.022 -0.062,0.033 -0.107,0.033 -0.049,0 -0.107,-0.013 -0.174,-0.039 l -0.039,0.094 0.716,0.291 H 0 Z" /></g><g
           transform="translate(98.4921,31.9839)"
           id="g210"><path
             id="path212"
             style="fill:#1c0f01;fill-opacity:1;fill-rule:nonzero;stroke:none"
             d="m 0,0 v 1.226 c -0.01,0.117 -0.042,0.225 -0.093,0.322 -0.052,0.097 -0.121,0.17 -0.207,0.219 -0.086,0.049 -0.169,0.074 -0.25,0.074 -0.153,0 -0.289,-0.068 -0.408,-0.205 -0.158,-0.18 -0.236,-0.443 -0.236,-0.789 0,-0.35 0.076,-0.618 0.228,-0.804 0.152,-0.186 0.322,-0.279 0.509,-0.279 0.158,0 0.31,0.078 0.457,0.236 m 0,-0.182 c -0.116,-0.121 -0.229,-0.208 -0.34,-0.261 -0.111,-0.053 -0.23,-0.079 -0.359,-0.079 -0.259,0 -0.486,0.109 -0.68,0.326 -0.194,0.217 -0.291,0.496 -0.291,0.837 0,0.341 0.108,0.653 0.322,0.936 0.215,0.284 0.491,0.425 0.829,0.425 0.209,0 0.382,-0.067 0.519,-0.2 v 0.439 c 0,0.272 -0.006,0.439 -0.019,0.501 -0.013,0.062 -0.034,0.105 -0.061,0.127 -0.028,0.023 -0.063,0.034 -0.104,0.034 -0.045,0 -0.105,-0.014 -0.18,-0.041 l -0.033,0.09 0.709,0.291 h 0.116 v -2.75 c 0,-0.278 0.007,-0.448 0.02,-0.51 0.013,-0.061 0.034,-0.104 0.062,-0.128 0.029,-0.025 0.062,-0.037 0.1,-0.037 0.047,0 0.109,0.015 0.187,0.044 L 0.826,-0.229 0.119,-0.522 H 0 Z" /></g><g
           transform="translate(100.076,35.2271)"
           id="g214"><path
             id="path216"
             style="fill:#1c0f01;fill-opacity:1;fill-rule:nonzero;stroke:none"
             d="M 0,0 C 0.073,0 0.135,-0.026 0.186,-0.077 0.237,-0.128 0.262,-0.19 0.262,-0.262 0.262,-0.335 0.237,-0.397 0.186,-0.449 0.135,-0.501 0.073,-0.527 0,-0.527 c -0.073,0 -0.135,0.026 -0.187,0.078 -0.052,0.052 -0.078,0.114 -0.078,0.187 0,0.072 0.026,0.134 0.077,0.185 C -0.137,-0.026 -0.074,0 0,0 m 0.216,-1.244 v -1.911 c 0,-0.149 0.01,-0.248 0.032,-0.297 0.022,-0.05 0.054,-0.086 0.096,-0.111 0.042,-0.024 0.12,-0.036 0.232,-0.036 v -0.094 h -1.155 v 0.094 c 0.116,0 0.194,0.011 0.234,0.034 0.039,0.022 0.071,0.059 0.094,0.111 0.024,0.052 0.035,0.152 0.035,0.299 v 0.917 c 0,0.258 -0.007,0.425 -0.023,0.501 -0.012,0.055 -0.031,0.094 -0.057,0.115 -0.026,0.022 -0.061,0.033 -0.106,0.033 -0.049,0 -0.108,-0.013 -0.177,-0.039 l -0.036,0.093 0.716,0.291 z" /></g><g
           transform="translate(101.6419,33.4796)"
           id="g218"><path
             id="path220"
             style="fill:#1c0f01;fill-opacity:1;fill-rule:nonzero;stroke:none"
             d="m 0,0 c 0.279,0.336 0.544,0.504 0.797,0.504 0.13,0 0.242,-0.033 0.335,-0.098 C 1.226,0.341 1.3,0.235 1.355,0.086 1.394,-0.018 1.413,-0.177 1.413,-0.392 v -1.015 c 0,-0.151 0.012,-0.253 0.036,-0.307 0.019,-0.043 0.05,-0.077 0.092,-0.101 0.043,-0.024 0.121,-0.036 0.235,-0.036 V -1.945 H 0.6 v 0.094 h 0.049 c 0.111,0 0.188,0.016 0.233,0.05 0.044,0.034 0.074,0.084 0.092,0.149 0.007,0.026 0.01,0.108 0.01,0.245 v 0.973 C 0.984,-0.217 0.956,-0.06 0.9,0.038 0.844,0.135 0.749,0.184 0.615,0.184 0.409,0.184 0.204,0.072 0,-0.153 v -1.254 c 0,-0.161 0.01,-0.261 0.029,-0.299 0.024,-0.05 0.057,-0.087 0.1,-0.11 0.042,-0.024 0.128,-0.035 0.258,-0.035 v -0.094 h -1.176 v 0.094 h 0.052 c 0.121,0 0.203,0.03 0.245,0.092 0.042,0.061 0.064,0.178 0.064,0.352 v 0.882 c 0,0.286 -0.007,0.46 -0.02,0.522 -0.013,0.063 -0.033,0.105 -0.06,0.128 -0.026,0.022 -0.062,0.033 -0.107,0.033 -0.049,0 -0.107,-0.013 -0.174,-0.039 l -0.039,0.094 0.716,0.291 H 0 Z" /></g><g
           transform="translate(104.6956,33.8587)"
           id="g222"><path
             id="path224"
             style="fill:#1c0f01;fill-opacity:1;fill-rule:nonzero;stroke:none"
             d="m 0,0 c -0.128,0 -0.235,-0.051 -0.322,-0.153 -0.087,-0.102 -0.13,-0.259 -0.13,-0.47 0,-0.274 0.059,-0.486 0.177,-0.636 0.09,-0.115 0.204,-0.172 0.343,-0.172 0.131,0 0.239,0.05 0.324,0.148 0.085,0.099 0.127,0.254 0.127,0.465 0,0.275 -0.059,0.491 -0.179,0.647 C 0.252,-0.057 0.138,0 0,0 m -0.478,-2.324 c -0.081,-0.088 -0.143,-0.171 -0.184,-0.247 -0.042,-0.076 -0.062,-0.146 -0.062,-0.21 0,-0.083 0.05,-0.156 0.15,-0.218 0.173,-0.108 0.423,-0.161 0.751,-0.161 0.311,0 0.541,0.055 0.689,0.165 0.148,0.11 0.222,0.227 0.222,0.352 0,0.09 -0.044,0.154 -0.132,0.192 -0.09,0.038 -0.269,0.06 -0.535,0.067 -0.39,0.011 -0.689,0.031 -0.899,0.06 m 0.026,0.867 c -0.145,0.071 -0.257,0.17 -0.335,0.298 -0.078,0.127 -0.117,0.267 -0.117,0.422 0,0.235 0.089,0.438 0.267,0.607 0.177,0.17 0.404,0.255 0.681,0.255 0.227,0 0.423,-0.056 0.59,-0.167 h 0.503 c 0.075,0 0.118,-0.002 0.13,-0.006 C 1.279,-0.052 1.288,-0.06 1.293,-0.07 1.304,-0.086 1.309,-0.113 1.309,-0.153 1.309,-0.198 1.304,-0.229 1.296,-0.247 1.291,-0.255 1.281,-0.262 1.268,-0.267 1.256,-0.273 1.212,-0.275 1.137,-0.275 H 0.828 C 0.925,-0.4 0.974,-0.559 0.974,-0.753 0.974,-0.975 0.889,-1.164 0.719,-1.322 0.55,-1.479 0.322,-1.558 0.036,-1.558 c -0.117,0 -0.238,0.017 -0.361,0.052 -0.076,-0.066 -0.127,-0.123 -0.154,-0.173 -0.027,-0.049 -0.04,-0.091 -0.04,-0.126 0,-0.029 0.014,-0.058 0.042,-0.085 0.029,-0.028 0.085,-0.048 0.168,-0.06 0.048,-0.007 0.17,-0.013 0.364,-0.018 0.356,-0.009 0.587,-0.021 0.693,-0.037 0.161,-0.022 0.289,-0.082 0.385,-0.179 0.097,-0.097 0.145,-0.216 0.145,-0.358 0,-0.196 -0.092,-0.379 -0.276,-0.551 -0.27,-0.252 -0.622,-0.379 -1.057,-0.379 -0.334,0 -0.616,0.076 -0.846,0.226 -0.13,0.087 -0.195,0.177 -0.195,0.27 0,0.042 0.01,0.083 0.029,0.125 0.029,0.064 0.09,0.153 0.182,0.267 0.012,0.016 0.1,0.109 0.264,0.281 -0.09,0.053 -0.153,0.101 -0.19,0.144 -0.038,0.042 -0.056,0.09 -0.056,0.144 0,0.061 0.024,0.132 0.074,0.213 0.049,0.081 0.163,0.196 0.341,0.345" /></g><g
           transform="translate(106.7652,32.0384)"
           id="g226"><path
             id="path228"
             style="fill:#1c0f01;fill-opacity:1;fill-rule:nonzero;stroke:none"
             d="M 0,0 C 0.081,0 0.15,-0.028 0.205,-0.084 0.261,-0.141 0.288,-0.209 0.288,-0.288 0.288,-0.368 0.26,-0.436 0.204,-0.492 0.148,-0.548 0.08,-0.576 0,-0.576 c -0.08,0 -0.148,0.028 -0.204,0.084 -0.056,0.056 -0.084,0.124 -0.084,0.204 0,0.081 0.028,0.15 0.084,0.205 C -0.148,-0.028 -0.08,0 0,0" /></g><g
           transform="translate(109.6163,32.4383)"
           id="g230"><path
             id="path232"
             style="fill:#1c0f01;fill-opacity:1;fill-rule:nonzero;stroke:none"
             d="m 0,0 c -0.064,-0.313 -0.19,-0.554 -0.377,-0.723 -0.186,-0.169 -0.393,-0.253 -0.62,-0.253 -0.27,0 -0.506,0.113 -0.706,0.34 -0.201,0.227 -0.302,0.533 -0.302,0.919 0,0.374 0.112,0.678 0.334,0.911 0.222,0.234 0.489,0.351 0.801,0.351 0.234,0 0.426,-0.062 0.577,-0.186 0.15,-0.123 0.225,-0.252 0.225,-0.385 0,-0.066 -0.021,-0.119 -0.063,-0.16 -0.043,-0.041 -0.102,-0.061 -0.178,-0.061 -0.102,0 -0.179,0.033 -0.231,0.099 -0.03,0.036 -0.049,0.105 -0.059,0.207 -0.009,0.103 -0.044,0.18 -0.105,0.234 -0.06,0.052 -0.144,0.078 -0.252,0.078 -0.173,0 -0.312,-0.064 -0.418,-0.192 -0.14,-0.17 -0.21,-0.394 -0.21,-0.673 0,-0.284 0.07,-0.534 0.209,-0.751 0.139,-0.218 0.328,-0.326 0.565,-0.326 0.169,0 0.322,0.058 0.457,0.174 0.095,0.079 0.188,0.224 0.278,0.433 z" /></g><g
           transform="translate(111.0393,33.8145)"
           id="g234"><path
             id="path236"
             style="fill:#1c0f01;fill-opacity:1;fill-rule:nonzero;stroke:none"
             d="m 0,0 c -0.092,0 -0.184,-0.027 -0.277,-0.082 -0.092,-0.054 -0.167,-0.15 -0.224,-0.287 -0.057,-0.136 -0.086,-0.312 -0.086,-0.527 0,-0.346 0.069,-0.645 0.207,-0.896 0.137,-0.251 0.319,-0.376 0.544,-0.376 0.168,0 0.306,0.069 0.415,0.207 0.109,0.139 0.164,0.377 0.164,0.715 0,0.422 -0.091,0.754 -0.273,0.997 C 0.347,-0.083 0.19,0 0,0 m 0.081,0.169 c 0.36,0 0.649,-0.137 0.867,-0.411 0.185,-0.233 0.278,-0.502 0.278,-0.804 0,-0.213 -0.051,-0.429 -0.154,-0.647 C 0.97,-1.911 0.83,-2.076 0.65,-2.186 0.471,-2.297 0.272,-2.353 0.052,-2.353 c -0.358,0 -0.643,0.143 -0.854,0.429 -0.179,0.24 -0.268,0.511 -0.268,0.81 0,0.218 0.054,0.435 0.162,0.65 0.109,0.216 0.251,0.375 0.428,0.478 0.176,0.103 0.363,0.155 0.561,0.155" /></g><g
           transform="translate(113.3218,33.477)"
           id="g238"><path
             id="path240"
             style="fill:#1c0f01;fill-opacity:1;fill-rule:nonzero;stroke:none"
             d="M 0,0 C 0.173,0.173 0.275,0.273 0.306,0.299 0.384,0.364 0.468,0.415 0.558,0.452 0.648,0.488 0.737,0.506 0.826,0.506 0.975,0.506 1.103,0.463 1.21,0.377 1.317,0.29 1.389,0.164 1.426,0 1.604,0.208 1.755,0.344 1.877,0.409 2,0.474 2.127,0.506 2.257,0.506 2.383,0.506 2.495,0.474 2.593,0.409 2.691,0.344 2.768,0.238 2.825,0.091 2.863,-0.01 2.882,-0.167 2.882,-0.382 v -1.023 c 0,-0.149 0.012,-0.251 0.034,-0.306 0.017,-0.038 0.049,-0.071 0.096,-0.098 0.047,-0.026 0.123,-0.04 0.229,-0.04 V -1.942 H 2.067 v 0.093 h 0.049 c 0.102,0 0.182,0.02 0.239,0.06 0.04,0.028 0.069,0.072 0.086,0.132 0.007,0.03 0.01,0.114 0.01,0.252 v 1.023 c 0,0.194 -0.023,0.331 -0.07,0.411 C 2.314,0.139 2.205,0.195 2.057,0.195 1.965,0.195 1.873,0.172 1.78,0.126 1.687,0.08 1.575,-0.005 1.444,-0.13 L 1.439,-0.158 1.444,-0.27 v -1.135 c 0,-0.163 0.009,-0.264 0.027,-0.304 0.018,-0.039 0.052,-0.073 0.103,-0.1 0.05,-0.026 0.136,-0.04 0.257,-0.04 V -1.942 H 0.628 v 0.093 c 0.132,0 0.222,0.016 0.272,0.047 0.049,0.031 0.083,0.078 0.102,0.14 0.009,0.03 0.013,0.115 0.013,0.257 v 1.023 c 0,0.194 -0.028,0.334 -0.085,0.418 C 0.853,0.147 0.747,0.203 0.61,0.203 0.517,0.203 0.424,0.177 0.332,0.127 0.189,0.051 0.078,-0.035 0,-0.13 V -1.405 C 0,-1.561 0.011,-1.662 0.032,-1.709 0.054,-1.755 0.086,-1.79 0.129,-1.814 0.171,-1.837 0.257,-1.849 0.387,-1.849 v -0.093 h -1.176 v 0.093 c 0.109,0 0.185,0.012 0.228,0.035 0.043,0.024 0.076,0.061 0.099,0.112 0.022,0.051 0.034,0.15 0.034,0.297 v 0.909 c 0,0.261 -0.008,0.43 -0.024,0.506 -0.012,0.058 -0.031,0.097 -0.057,0.119 -0.026,0.021 -0.061,0.032 -0.106,0.032 -0.049,0 -0.107,-0.013 -0.174,-0.039 l -0.039,0.094 0.716,0.29 H 0 Z" /></g><g
           transform="translate(46.64,26.8273)"
           id="g242"><path
             id="path244"
             style="fill:#1c0f01;fill-opacity:1;fill-rule:nonzero;stroke:none"
             d="m 0,0 c 0,-0.485 0.06,-0.88 0.179,-1.187 0.099,-0.258 0.246,-0.387 0.442,-0.387 0.093,0 0.19,0.042 0.29,0.126 0.101,0.084 0.177,0.225 0.229,0.422 0.08,0.298 0.119,0.718 0.119,1.26 0,0.401 -0.041,0.736 -0.124,1.005 C 1.072,1.438 0.992,1.579 0.893,1.662 0.822,1.719 0.737,1.748 0.636,1.748 0.518,1.748 0.414,1.695 0.322,1.589 0.197,1.445 0.113,1.22 0.068,0.911 0.023,0.603 0,0.299 0,0 m -0.509,0.065 c 0,0.402 0.061,0.747 0.182,1.037 0.121,0.29 0.282,0.506 0.483,0.648 0.156,0.113 0.317,0.169 0.483,0.169 0.27,0 0.512,-0.138 0.727,-0.413 C 1.634,1.165 1.768,0.703 1.768,0.119 1.768,-0.289 1.71,-0.636 1.592,-0.922 1.474,-1.207 1.324,-1.415 1.141,-1.544 0.959,-1.673 0.782,-1.737 0.613,-1.737 c -0.336,0 -0.616,0.198 -0.839,0.594 -0.189,0.335 -0.283,0.737 -0.283,1.208" /></g><g
           transform="translate(49.1328,28.6735)"
           id="g246"><path
             id="path248"
             style="fill:#1c0f01;fill-opacity:1;fill-rule:nonzero;stroke:none"
             d="M 0,0 H 1.888 V -0.099 L 0.714,-3.594 H 0.423 l 1.052,3.171 H 0.506 c -0.195,0 -0.335,-0.024 -0.418,-0.07 -0.145,-0.08 -0.262,-0.203 -0.35,-0.369 l -0.076,0.028 z" /></g><g
           transform="translate(53.1473,26.8896)"
           id="g250"><path
             id="path252"
             style="fill:#1c0f01;fill-opacity:1;fill-rule:nonzero;stroke:none"
             d="m 0,0 c 0.031,0.225 0.047,0.405 0.047,0.54 0,0.168 -0.029,0.349 -0.086,0.544 -0.057,0.195 -0.138,0.344 -0.243,0.448 -0.104,0.104 -0.223,0.156 -0.357,0.156 -0.154,0 -0.289,-0.069 -0.405,-0.208 -0.116,-0.138 -0.174,-0.344 -0.174,-0.618 0,-0.365 0.077,-0.651 0.231,-0.857 0.113,-0.149 0.251,-0.223 0.416,-0.223 0.079,0 0.174,0.019 0.283,0.057 C -0.179,-0.123 -0.083,-0.069 0,0 m -1.61,-1.81 v 0.096 c 0.225,0.004 0.435,0.056 0.628,0.157 0.194,0.102 0.382,0.279 0.563,0.531 0.181,0.253 0.306,0.531 0.377,0.834 -0.271,-0.175 -0.517,-0.262 -0.737,-0.262 -0.248,0 -0.46,0.095 -0.636,0.287 -0.177,0.191 -0.265,0.445 -0.265,0.762 0,0.308 0.088,0.582 0.265,0.823 0.213,0.292 0.491,0.439 0.833,0.439 0.289,0 0.537,-0.12 0.743,-0.359 C 0.414,1.202 0.54,0.837 0.54,0.402 0.54,0.011 0.444,-0.354 0.252,-0.692 0.06,-1.03 -0.208,-1.311 -0.551,-1.535 -0.829,-1.718 -1.133,-1.81 -1.462,-1.81 Z" /></g><g
           transform="translate(55.3441,27.2038)"
           id="g254"><path
             id="path256"
             style="fill:#1c0f01;fill-opacity:1;fill-rule:nonzero;stroke:none"
             d="M 0,0 C 0.208,0.187 0.339,0.335 0.395,0.443 0.45,0.551 0.478,0.673 0.478,0.81 0.478,0.992 0.427,1.134 0.325,1.237 0.222,1.34 0.083,1.392 -0.093,1.392 -0.27,1.392 -0.414,1.341 -0.525,1.239 -0.635,1.136 -0.691,1.017 -0.691,0.88 c 0,-0.09 0.023,-0.18 0.069,-0.27 0.046,-0.09 0.111,-0.175 0.196,-0.257 z m -0.286,-0.377 c -0.143,-0.121 -0.25,-0.253 -0.319,-0.396 -0.069,-0.142 -0.104,-0.297 -0.104,-0.463 0,-0.223 0.061,-0.402 0.183,-0.536 0.122,-0.134 0.278,-0.201 0.466,-0.201 0.187,0 0.337,0.052 0.449,0.158 0.113,0.106 0.169,0.234 0.169,0.384 0,0.125 -0.033,0.237 -0.098,0.335 -0.123,0.184 -0.372,0.423 -0.746,0.719 m -0.122,0.099 c -0.278,0.229 -0.458,0.412 -0.539,0.551 -0.08,0.138 -0.12,0.282 -0.12,0.431 0,0.228 0.088,0.425 0.265,0.59 0.176,0.166 0.411,0.248 0.703,0.248 0.284,0 0.513,-0.077 0.686,-0.231 C 0.76,1.157 0.847,0.982 0.847,0.784 0.847,0.653 0.8,0.518 0.706,0.382 0.613,0.245 0.418,0.084 0.122,-0.101 0.427,-0.337 0.628,-0.522 0.727,-0.657 0.859,-0.834 0.924,-1.02 0.924,-1.215 0.924,-1.463 0.83,-1.674 0.641,-1.85 0.453,-2.026 0.205,-2.114 -0.101,-2.114 c -0.334,0 -0.595,0.105 -0.782,0.314 -0.149,0.168 -0.223,0.352 -0.223,0.551 0,0.156 0.052,0.31 0.157,0.464 0.105,0.153 0.285,0.322 0.541,0.507" /></g><path
           id="path258"
           style="fill:#1c0f01;fill-opacity:1;fill-rule:nonzero;stroke:none"
           d="m 56.79,26.542 h 1.342 V 26.15 H 56.79 Z" /><g
           transform="translate(58.8808,28.6735)"
           id="g260"><path
             id="path262"
             style="fill:#1c0f01;fill-opacity:1;fill-rule:nonzero;stroke:none"
             d="M 0,0 H 1.888 V -0.099 L 0.714,-3.594 H 0.423 l 1.052,3.171 H 0.506 c -0.195,0 -0.335,-0.024 -0.418,-0.07 -0.145,-0.08 -0.262,-0.203 -0.35,-0.369 l -0.076,0.028 z" /></g><g
           transform="translate(62.5785,26.4507)"
           id="g264"><path
             id="path266"
             style="fill:#1c0f01;fill-opacity:1;fill-rule:nonzero;stroke:none"
             d="M 0,0 V 1.748 L -1.236,0 Z M 0.901,0 V -0.369 H 0.428 V -1.298 H 0 v 0.929 h -1.491 v 0.333 L 0.143,2.295 H 0.428 V 0 Z" /></g><path
           id="path268"
           style="fill:#1c0f01;fill-opacity:1;fill-rule:nonzero;stroke:none"
           d="m 63.879,26.542 h 1.342 V 26.15 h -1.342 z" /><g
           transform="translate(66.863,27.2038)"
           id="g270"><path
             id="path272"
             style="fill:#1c0f01;fill-opacity:1;fill-rule:nonzero;stroke:none"
             d="M 0,0 C 0.208,0.187 0.339,0.335 0.395,0.443 0.45,0.551 0.478,0.673 0.478,0.81 0.478,0.992 0.427,1.134 0.325,1.237 0.222,1.34 0.083,1.392 -0.093,1.392 -0.27,1.392 -0.414,1.341 -0.525,1.239 -0.635,1.136 -0.691,1.017 -0.691,0.88 c 0,-0.09 0.023,-0.18 0.069,-0.27 0.046,-0.09 0.111,-0.175 0.196,-0.257 z m -0.286,-0.377 c -0.143,-0.121 -0.25,-0.253 -0.319,-0.396 -0.069,-0.142 -0.104,-0.297 -0.104,-0.463 0,-0.223 0.061,-0.402 0.183,-0.536 0.122,-0.134 0.278,-0.201 0.466,-0.201 0.187,0 0.337,0.052 0.449,0.158 0.113,0.106 0.169,0.234 0.169,0.384 0,0.125 -0.033,0.237 -0.098,0.335 -0.123,0.184 -0.372,0.423 -0.746,0.719 m -0.122,0.099 c -0.278,0.229 -0.458,0.412 -0.539,0.551 -0.08,0.138 -0.12,0.282 -0.12,0.431 0,0.228 0.088,0.425 0.265,0.59 0.176,0.166 0.411,0.248 0.703,0.248 0.284,0 0.513,-0.077 0.686,-0.231 C 0.76,1.157 0.847,0.982 0.847,0.784 0.847,0.653 0.8,0.518 0.706,0.382 0.613,0.245 0.418,0.084 0.122,-0.101 0.427,-0.337 0.628,-0.522 0.727,-0.657 0.859,-0.834 0.924,-1.02 0.924,-1.215 0.924,-1.463 0.83,-1.674 0.641,-1.85 0.453,-2.026 0.205,-2.114 -0.101,-2.114 c -0.334,0 -0.595,0.105 -0.782,0.314 -0.149,0.168 -0.223,0.352 -0.223,0.551 0,0.156 0.052,0.31 0.157,0.464 0.105,0.153 0.285,0.322 0.541,0.507" /></g><g
           transform="translate(68.6287,28.6735)"
           id="g274"><path
             id="path276"
             style="fill:#1c0f01;fill-opacity:1;fill-rule:nonzero;stroke:none"
             d="M 0,0 H 1.888 V -0.099 L 0.714,-3.594 H 0.423 l 1.052,3.171 H 0.506 c -0.195,0 -0.335,-0.024 -0.418,-0.07 -0.145,-0.08 -0.262,-0.203 -0.35,-0.369 l -0.076,0.028 z" /></g><g
           transform="translate(71.4539,26.8273)"
           id="g278"><path
             id="path280"
             style="fill:#1c0f01;fill-opacity:1;fill-rule:nonzero;stroke:none"
             d="m 0,0 c 0,-0.485 0.06,-0.88 0.179,-1.187 0.099,-0.258 0.246,-0.387 0.442,-0.387 0.093,0 0.19,0.042 0.29,0.126 0.101,0.084 0.177,0.225 0.229,0.422 0.08,0.298 0.119,0.718 0.119,1.26 0,0.401 -0.041,0.736 -0.124,1.005 C 1.072,1.438 0.992,1.579 0.893,1.662 0.822,1.719 0.737,1.748 0.636,1.748 0.518,1.748 0.414,1.695 0.322,1.589 0.197,1.445 0.113,1.22 0.068,0.911 0.023,0.603 0,0.299 0,0 m -0.509,0.065 c 0,0.402 0.061,0.747 0.182,1.037 0.121,0.29 0.282,0.506 0.483,0.648 0.156,0.113 0.317,0.169 0.483,0.169 0.27,0 0.512,-0.138 0.727,-0.413 C 1.634,1.165 1.768,0.703 1.768,0.119 1.768,-0.289 1.71,-0.636 1.592,-0.922 1.474,-1.207 1.324,-1.415 1.141,-1.544 0.959,-1.673 0.782,-1.737 0.613,-1.737 c -0.336,0 -0.616,0.198 -0.839,0.594 -0.189,0.335 -0.283,0.737 -0.283,1.208" /></g><g
           transform="translate(74.035,28.3281)"
           id="g282"><path
             id="path284"
             style="fill:#1c0f01;fill-opacity:1;fill-rule:nonzero;stroke:none"
             d="m 0,0 0.857,0.418 h 0.086 v -2.973 c 0,-0.198 0.008,-0.32 0.024,-0.369 C 0.984,-2.972 1.018,-3.01 1.07,-3.036 1.122,-3.062 1.227,-3.076 1.387,-3.08 V -3.176 H 0.062 v 0.096 c 0.167,0.004 0.274,0.018 0.322,0.043 0.049,0.025 0.083,0.059 0.102,0.101 0.019,0.043 0.028,0.17 0.028,0.381 v 1.901 c 0,0.256 -0.009,0.42 -0.026,0.493 C 0.476,-0.106 0.454,-0.065 0.422,-0.039 0.39,-0.013 0.351,0 0.306,0 0.242,0 0.153,-0.027 0.039,-0.08 Z" /></g></g></g></g></svg>