<?xml version="1.0" encoding="utf-8"?>
<!-- Generator: Adobe Illustrator 21.1.0, SVG Export Plug-In . SVG Version: 6.00 Build 0)  -->
<svg version="1.1" id="Layer_1" xmlns="http://www.w3.org/2000/svg" xmlns:xlink="http://www.w3.org/1999/xlink" x="0px" y="0px"
	 viewBox="0 0 100 100" style="enable-background:new 0 0 100 100;" xml:space="preserve">
<style type="text/css">
	.st0{fill:#333333;}
</style>
<g>
	<path class="st0" d="M66.5,54.2l0.8-0.8c0.9-0.9,0.9-2.2,0-3.1l-7.2-7.2c-0.4-0.4-1-0.6-1.5-0.6c-0.6,0-1.1,0.2-1.5,0.6l-0.3,0.3
		l0.7-5c0.2-1.1-0.5-2.1-1.6-2.4l-23.6-6.3c0,0,0,0,0,0c-0.1,0-0.1,0-0.2,0c0,0,0,0-0.1,0c-0.1,0-0.2,0-0.3,0c0,0,0,0,0,0
		c-0.1,0-0.2,0-0.2,0c0,0,0,0-0.1,0c-0.1,0-0.1,0-0.2,0c0,0,0,0-0.1,0c-0.2,0-0.3,0.1-0.5,0.2c0,0,0,0-0.1,0c-0.1,0-0.1,0.1-0.2,0.1
		c0,0,0,0-0.1,0c-0.1,0.1-0.1,0.1-0.2,0.2s-0.1,0.1-0.2,0.2c0,0,0,0,0,0.1c0,0.1-0.1,0.1-0.1,0.2c0,0,0,0,0,0.1
		c-0.1,0.2-0.2,0.3-0.2,0.5c0,0,0,0,0,0.1c0,0.1,0,0.1,0,0.2c0,0,0,0,0,0.1c0,0.1,0,0.2,0,0.2c0,0,0,0,0,0c0,0.1,0,0.2,0,0.3
		c0,0,0,0,0,0.1c0,0.1,0,0.1,0,0.2c0,0,0,0,0,0L36,55.9c0.3,1,1.1,1.6,2.1,1.6c0.1,0,0.2,0,0.3,0l5-0.7l-0.3,0.3
		c-0.9,0.9-0.9,2.2,0,3.1l7.2,7.2c0.4,0.4,1,0.6,1.5,0.6c0.6,0,1.1-0.2,1.5-0.6l0.8-0.8l3.2,3.2c0.4,0.4,1,0.6,1.5,0.6
		c0.6,0,1.1-0.2,1.5-0.6l9.3-9.3c0.9-0.9,0.9-2.2,0-3.1L66.5,54.2z M39.7,52.9L36,39.1l3.5,3.5c0.4,0.4,1,0.6,1.5,0.6
		c0.6,0,1.1-0.2,1.5-0.6c0.9-0.9,0.9-2.2,0-3.1L39.1,36l13.8,3.7l-1.3,8.8l-3.1,3.1L39.7,52.9z M47.7,58.7l10.9-10.9l4.1,4.1
		L51.8,62.7L47.7,58.7z M58.9,65.1l-1.7-1.7l6.2-6.2l1.7,1.7L58.9,65.1z"/>
	<g>
		<path class="st0" d="M42.4,14h3.3c1.2,0,2.2-1,2.2-2.2c0-1.2-1-2.2-2.2-2.2h-3.3c-1.2,0-2.2,1-2.2,2.2C40.2,13,41.2,14,42.4,14z"
			/>
		<path class="st0" d="M30.4,14h3.3c1.2,0,2.2-1,2.2-2.2c0-1.2-1-2.2-2.2-2.2h-3.3c-1.2,0-2.2,1-2.2,2.2C28.2,13,29.2,14,30.4,14z"
			/>
		<path class="st0" d="M69.6,86h-3.3c-1.2,0-2.2,1-2.2,2.2c0,1.2,1,2.2,2.2,2.2h3.3c1.2,0,2.2-1,2.2-2.2C71.8,87,70.8,86,69.6,86z"
			/>
		<path class="st0" d="M33.6,86h-3.3c-1.2,0-2.2,1-2.2,2.2c0,1.2,1,2.2,2.2,2.2h3.3c1.2,0,2.2-1,2.2-2.2C35.8,87,34.8,86,33.6,86z"
			/>
		<path class="st0" d="M21.6,86h-1v-4.4c0-1.2-1-2.2-2.2-2.2H14v-1.1c0-1.2-1-2.2-2.2-2.2c-1.2,0-2.2,1-2.2,2.2v1.1H5.2
			c-1.2,0-2.2,1-2.2,2.2v13.3C3,96,4,97,5.2,97h13.3c1.2,0,2.2-1,2.2-2.2v-4.4h1c1.2,0,2.2-1,2.2-2.2C23.8,87,22.8,86,21.6,86z
			 M16.3,92.6H7.4v-8.9h8.9V92.6z"/>
		<path class="st0" d="M54.4,14h3.3c1.2,0,2.2-1,2.2-2.2c0-1.2-1-2.2-2.2-2.2h-3.3c-1.2,0-2.2,1-2.2,2.2C52.2,13,53.2,14,54.4,14z"
			/>
		<path class="st0" d="M66.9,14h3.3c1.2,0,2.2-1,2.2-2.2c0-1.2-1-2.2-2.2-2.2h-3.3c-1.2,0-2.2,1-2.2,2.2C64.7,13,65.7,14,66.9,14z"
			/>
		<path class="st0" d="M57.6,86h-3.3c-1.2,0-2.2,1-2.2,2.2c0,1.2,1,2.2,2.2,2.2h3.3c1.2,0,2.2-1,2.2-2.2C59.8,87,58.8,86,57.6,86z"
			/>
		<path class="st0" d="M11.8,52.1c-1.2,0-2.2,1-2.2,2.2v3.3c0,1.2,1,2.2,2.2,2.2c1.2,0,2.2-1,2.2-2.2v-3.3
			C14,53.1,13,52.1,11.8,52.1z"/>
		<path class="st0" d="M45.6,86h-3.3c-1.2,0-2.2,1-2.2,2.2c0,1.2,1,2.2,2.2,2.2h3.3c1.2,0,2.2-1,2.2-2.2C47.8,87,46.8,86,45.6,86z"
			/>
		<path class="st0" d="M86,45.7c0,1.2,1,2.2,2.2,2.2c1.2,0,2.2-1,2.2-2.2v-3.3c0-1.2-1-2.2-2.2-2.2c-1.2,0-2.2,1-2.2,2.2V45.7z"/>
		<path class="st0" d="M86,57.7c0,1.2,1,2.2,2.2,2.2c1.2,0,2.2-1,2.2-2.2v-3.3c0-1.2-1-2.2-2.2-2.2c-1.2,0-2.2,1-2.2,2.2V57.7z"/>
		<path class="st0" d="M88.2,35.9c1.2,0,2.2-1,2.2-2.2v-3.3c0-1.2-1-2.2-2.2-2.2c-1.2,0-2.2,1-2.2,2.2v3.3
			C86,34.9,87,35.9,88.2,35.9z"/>
		<path class="st0" d="M11.8,40.1c-1.2,0-2.2,1-2.2,2.2v3.3c0,1.2,1,2.2,2.2,2.2c1.2,0,2.2-1,2.2-2.2v-3.3
			C14,41.1,13,40.1,11.8,40.1z"/>
		<path class="st0" d="M86,69.7c0,1.2,1,2.2,2.2,2.2c1.2,0,2.2-1,2.2-2.2v-3.3c0-1.2-1-2.2-2.2-2.2c-1.2,0-2.2,1-2.2,2.2V69.7z"/>
		<path class="st0" d="M11.8,28.1c-1.2,0-2.2,1-2.2,2.2v3.3c0,1.2,1,2.2,2.2,2.2c1.2,0,2.2-1,2.2-2.2v-3.3
			C14,29.1,13,28.1,11.8,28.1z"/>
		<path class="st0" d="M21.7,9.6h-1.1V5.2c0-1.2-1-2.2-2.2-2.2H5.2C4,3,3,4,3,5.2v13.3c0,1.2,1,2.2,2.2,2.2h4.4v1
			c0,1.2,1,2.2,2.2,2.2c1.2,0,2.2-1,2.2-2.2v-1h4.4c1.2,0,2.2-1,2.2-2.2V14h1.1c1.2,0,2.2-1,2.2-2.2C23.9,10.6,22.9,9.6,21.7,9.6z
			 M16.3,16.3H7.4V7.4h8.9V16.3z"/>
		<path class="st0" d="M94.8,79.4h-4.4v-1c0-1.2-1-2.2-2.2-2.2c-1.2,0-2.2,1-2.2,2.2v1h-4.4c-1.2,0-2.2,1-2.2,2.2V86h-1.1
			c-1.2,0-2.2,1-2.2,2.2c0,1.2,1,2.2,2.2,2.2h1.1v4.4c0,1.2,1,2.2,2.2,2.2h13.3c1.2,0,2.2-1,2.2-2.2V81.6C97,80.4,96,79.4,94.8,79.4
			z M92.6,92.6h-8.9v-8.9h8.9V92.6z"/>
		<path class="st0" d="M94.8,3H81.6c-1.2,0-2.2,1-2.2,2.2v4.4h-1c-1.2,0-2.2,1-2.2,2.2c0,1.2,1,2.2,2.2,2.2h1v4.4
			c0,1.2,1,2.2,2.2,2.2H86v1.1c0,1.2,1,2.2,2.2,2.2c1.2,0,2.2-1,2.2-2.2v-1.1h4.4c1.2,0,2.2-1,2.2-2.2V5.2C97,4,96,3,94.8,3z
			 M92.6,16.3h-8.9V7.4h8.9V16.3z"/>
		<path class="st0" d="M11.8,64.1c-1.2,0-2.2,1-2.2,2.2v3.3c0,1.2,1,2.2,2.2,2.2c1.2,0,2.2-1,2.2-2.2v-3.3C14,65,13,64.1,11.8,64.1z
			"/>
	</g>
</g>
</svg>
