<?xml version="1.0" encoding="utf-8"?>
<!-- Generator: Adobe Illustrator 19.0.0, SVG Export Plug-In . SVG Version: 6.00 Build 0)  -->
<svg version="1.1" id="Layer_1" xmlns="http://www.w3.org/2000/svg" xmlns:xlink="http://www.w3.org/1999/xlink" x="0px" y="0px"
	 viewBox="0 0 61.1 14.8" style="enable-background:new 0 0 61.1 14.8;" xml:space="preserve">
<style type="text/css">
	.st0{fill:#0D74B8;}
	.st1{fill:#8BC442;}
</style>
<g id="XMLID_1500_">
	<path id="XMLID_1544_" class="st0" d="M6.9,0l1.4,0v6.9c0,1.1-0.4,2.2-1.2,2.9C6.2,10.7,5.3,11,4.1,11C3,11,2,10.7,1.2,9.8
		C0.4,9,0,8.1,0,6.9C0,5.8,0.4,4.8,1.2,4C2,3.2,3,2.8,4.1,2.8c1.1,0,2,0.4,2.8,1.1L6.9,0L6.9,0z M6.9,6.9c0-0.8-0.3-1.5-0.8-2
		c-0.5-0.5-1.2-0.8-2-0.8c-0.8,0-1.5,0.3-2,0.8c-0.5,0.5-0.8,1.2-0.8,2s0.3,1.5,0.8,2c0.5,0.5,1.2,0.8,2,0.8c0.8,0,1.5-0.3,2-0.8
		C6.6,8.3,6.9,7.7,6.9,6.9z"/>
	<path id="XMLID_1540_" class="st0" d="M17.2,6.2c0.1,0.3,0.1,0.8,0,1.4h-6.9c0.4,1.3,1.4,2,2.8,2.1c1.2,0.1,2.1-0.4,2.8-1.4h1.4
		c-0.3,0.9-0.9,1.6-1.6,2.1c-0.7,0.5-1.6,0.7-2.5,0.7C12,11,11,10.7,10.2,9.9C9.4,9.1,9,8.1,9,7s0.4-2.2,1.2-2.9
		C11,3.2,12,2.8,13.1,2.8c1.1,0,2,0.3,2.7,1C16.6,4.3,17.1,5.2,17.2,6.2z M10.3,6.2h5.5c-0.2-0.6-0.5-1.1-1-1.5
		c-0.5-0.4-1.1-0.6-1.8-0.6c-0.7,0-1.3,0.2-1.8,0.6C10.8,5.1,10.5,5.6,10.3,6.2z"/>
	<path id="XMLID_1539_" class="st0" d="M17.9,8.6h1.4V9c0,0.2,0.1,0.4,0.2,0.5c0.1,0.1,0.3,0.2,0.5,0.2h3.8c0.2,0,0.3-0.1,0.5-0.4
		c0.1-0.3,0.2-0.4,0.2-0.6c0-0.2-0.1-0.4-0.2-0.6c-0.1-0.3-0.3-0.4-0.4-0.4h-3.8c-0.7,0-1.2-0.3-1.6-0.7c-0.3-0.4-0.5-1-0.5-1.7
		c0-0.6,0.2-1.2,0.6-1.7c0.4-0.5,0.9-0.8,1.5-0.8h3.8c0.6,0,1.1,0.2,1.5,0.6C25.7,3.8,26,4.3,26,4.9v0.3h-1.4V4.9
		c0-0.2-0.1-0.4-0.2-0.5c-0.1-0.1-0.3-0.2-0.5-0.2h-3.8c-0.2,0-0.3,0.1-0.5,0.4c-0.1,0.3-0.2,0.4-0.2,0.7c0,0.2,0.1,0.4,0.2,0.6
		c0.1,0.3,0.3,0.4,0.5,0.4h3.8c0.7,0,1.2,0.3,1.6,0.7C25.8,7.4,26,8,26,8.7c0,0.6-0.2,1.2-0.6,1.7c-0.4,0.5-0.9,0.8-1.5,0.8h-3.8
		c-0.6,0-1.1-0.2-1.5-0.6C18.2,10.1,18,9.6,18,9L17.9,8.6L17.9,8.6L17.9,8.6z"/>
	<path id="XMLID_1524_" class="st0" d="M26.5,0l1.4,0v1.4h-1.4V0z M26.5,2.8h1.4v8.3h-1.4V2.8z"/>
	<path id="XMLID_1523_" class="st0" d="M31.4,13.1h2.1c0.6,0,1.1-0.2,1.5-0.6c0.4-0.4,0.6-0.9,0.6-1.5v-1l-0.1,0.1
		c-0.6,0.6-1.5,1-2.7,1c-1.1,0-2.2-0.4-2.9-1.2C29,9.1,28.6,8.1,28.6,7s0.4-2.2,1.2-2.9c0.8-0.8,1.8-1.2,2.9-1.2c1.1,0,2,0.3,2.7,1
		c0.8,0.6,1.2,1.5,1.4,2.5h-1.4c-0.2-0.6-0.5-1.1-1-1.5s-1.1-0.6-1.8-0.5c-0.8,0-1.4,0.3-2,0.8c-0.5,0.5-0.8,1.2-0.8,2
		s0.3,1.4,0.8,2c0.5,0.5,1.2,0.8,2,0.8c0.7,0,1.3-0.2,1.8-0.5c0.5-0.4,0.8-0.9,1-1.5h1.4v3.4c0,1-0.3,1.8-1,2.5
		c-0.7,0.7-1.5,1-2.5,1h-2.1L31.4,13.1L31.4,13.1L31.4,13.1z"/>
	<path id="XMLID_1522_" class="st0" d="M41.7,4.1c-0.8,0-1.5,0.3-2,0.8c-0.5,0.5-0.8,1.2-0.8,2V11h-1.4V6.9c0-1.1,0.4-2.2,1.2-2.9
		c0.8-0.8,1.8-1.2,2.9-1.2c1.1,0,2.2,0.4,2.9,1.2c0.8,0.8,1.2,1.8,1.2,2.9V11h-1.4V6.9c0-0.8-0.3-1.5-0.8-2
		C43.2,4.4,42.5,4.1,41.7,4.1z"/>
	<path id="XMLID_1508_" class="st1" d="M46.5,0l1.4,0v3.8c0.8-0.7,1.7-1.1,2.8-1.1c1.1,0,2.2,0.4,2.9,1.2c0.8,0.8,1.2,1.8,1.2,2.9
		V11h-1.4V6.9c0-0.8-0.3-1.5-0.8-2c-0.5-0.5-1.2-0.8-2-0.8s-1.5,0.3-2,0.8c-0.5,0.5-0.8,1.2-0.8,2V11h-1.3L46.5,0L46.5,0z"/>
	<path id="XMLID_1503_" class="st1" d="M55.6,0H57v1.4h-1.4V0z M55.6,2.8H57v8.3h-1.4V2.8z"/>
	<path id="XMLID_1502_" class="st1" d="M57.6,0L59,0v11h-1.4V0z"/>
	<path id="XMLID_1501_" class="st1" d="M59.7,0l1.4,0v11h-1.4V0z"/>
</g>
</svg>
