<?xml version="1.0" encoding="UTF-8"?>
<svg width="5px" height="10px" viewBox="0 0 5 10" version="1.1" xmlns="http://www.w3.org/2000/svg" xmlns:xlink="http://www.w3.org/1999/xlink">
    <!-- Generator: Sketch 47.1 (45422) - http://www.bohemiancoding.com/sketch -->
    <title>ic_double_arrow</title>
    <desc>Created with Sketch.</desc>
    <defs></defs>
    <g id="Edit" stroke="none" stroke-width="1" fill="none" fill-rule="evenodd">
        <g id="0010--Letter-spacing-drop-down" transform="translate(-705.000000, -96.000000)" fill="#000000">
            <g id="Group-23" transform="translate(387.000000, 81.000000)">
                <g id="Group-9" transform="translate(232.000000, 0.000000)">
                    <g id="Group-4-Copy">
                        <g id="Group-20">
                            <g id="Group-15" transform="translate(86.000000, 15.000000)">
                                <g id="Page-1">
                                    <path d="M0.0683287349,6.53333333 L2.25447423,9.43703704 C2.37816587,9.6 2.61165121,9.6 2.73534285,9.43703704 L4.92148834,6.53333333 C5.08270441,6.31851852 4.94094546,6 4.68105403,6 L0.308763045,6 C0.048871623,6 -0.0928873346,6.31851852 0.0683287349,6.53333333"></path>
                                    <path d="M0.0683287349,0.533333333 L2.25447423,3.43703704 C2.37816587,3.6 2.61165121,3.6 2.73534285,3.43703704 L4.92148834,0.533333333 C5.08270441,0.318518519 4.94094546,-8.52651283e-14 4.68105403,-8.52651283e-14 L0.308763045,-8.52651283e-14 C0.048871623,-8.52651283e-14 -0.0928873346,0.318518519 0.0683287349,0.533333333" transform="translate(2.494909, 1.779630) scale(1, -1) translate(-2.494909, -1.779630) "></path>
                                </g>
                            </g>
                        </g>
                    </g>
                </g>
            </g>
        </g>
    </g>
</svg>