<?xml version="1.0" encoding="utf-8"?>
<!-- Generator: Adobe Illustrator 21.1.0, SVG Export Plug-In . SVG Version: 6.00 Build 0)  -->
<svg version="1.1" id="Layer_1" xmlns="http://www.w3.org/2000/svg" xmlns:xlink="http://www.w3.org/1999/xlink" x="0px" y="0px"
	 viewBox="0 0 20 20" style="enable-background:new 0 0 20 20;" xml:space="preserve">
<style type="text/css">
	.st0{fill:#FFFFFF;}
</style>
<g>
	<path class="st0" d="M7.2,1.2c0.4-0.4,0.1-0.9-0.4-1L0.6,0.1C0.3,0.1,0,0.4,0,0.7l0.1,6.2c0,0.5,0.6,0.7,1,0.4l1.7-1.7l2.9,2.9
		l2.7-2.7L5.4,2.9L7.2,1.2z"/>
	<path class="st0" d="M14.4,8.4l2.9-2.9l1.7,1.7c0.4,0.4,0.9,0.1,1-0.4L20,0.7c0-0.3-0.3-0.6-0.6-0.6l-6.2,0.1c-0.5,0-0.7,0.6-0.4,1
		l1.7,1.7l-2.9,2.9L14.4,8.4z"/>
	<path class="st0" d="M18.9,12.7l-1.7,1.7l-2.9-2.9l-2.7,2.7l2.9,2.9l-1.7,1.7c-0.4,0.4-0.1,0.9,0.4,1l6.2,0.1
		c0.3,0,0.6-0.3,0.6-0.6l-0.1-6.2C19.9,12.6,19.3,12.4,18.9,12.7z"/>
	<path class="st0" d="M5.6,11.6l-2.9,2.9l-1.7-1.7c-0.4-0.4-0.9-0.1-1,0.4L0,19.3c0,0.3,0.3,0.6,0.6,0.6l6.2-0.1
		c0.5,0,0.7-0.6,0.4-1l-1.7-1.7l2.9-2.9L5.6,11.6z"/>
</g>
</svg>
