<?xml version="1.0" encoding="utf-8"?>
<!-- Generator: Adobe Illustrator 19.0.0, SVG Export Plug-In . SVG Version: 6.00 Build 0)  -->
<svg version="1.1" xmlns="http://www.w3.org/2000/svg" xmlns:xlink="http://www.w3.org/1999/xlink" x="0px" y="0px"
	 viewBox="0 0 50 50" style="enable-background:new 0 0 50 50;" xml:space="preserve">
<style type="text/css">
	.st0{display:none;}
	.st1{display:inline;}
	.st2{fill:#010101;}
	.st3{display:inline;fill:#010101;}
	.st4{fill:#040305;}
</style>
<g id="sign-up" class="st0">
	<g id="XMLID_1_" class="st1">
		<path id="XMLID_6_" class="st2" d="M39.2,27.2c-6,0-10.8,4.9-10.8,10.8s4.9,10.8,10.8,10.8S50,44,50,38S45.1,27.2,39.2,27.2z
			 M39.2,47.2c-5.1,0-9.2-4.1-9.2-9.2s4.1-9.2,9.2-9.2s9.2,4.1,9.2,9.2S44.2,47.2,39.2,47.2z"/>
		<path id="XMLID_5_" class="st2" d="M39.2,44.3c-0.7,0-1.2-0.6-1.2-1.2v-3.7h-3.7c-0.7,0-1.2-0.6-1.2-1.2c0-0.7,0.6-1.2,1.2-1.2
			h3.7V33c0-0.7,0.6-1.2,1.2-1.2c0.7,0,1.2,0.6,1.2,1.2v3.7h3.7c0.7,0,1.2,0.6,1.2,1.2c0,0.7-0.6,1.2-1.2,1.2h-3.7V43
			C40.4,43.7,39.8,44.3,39.2,44.3z"/>
		<path id="XMLID_4_" class="st2" d="M30,28.4c0.3-0.7,0.6-1.4,0.9-2.1c1.1-0.5,1.7-1.6,1.7-2.7v-3c0-0.7-0.3-1.4-0.7-2v-3.9
			c0-0.4,0.2-2.9-1.6-4.9c-1.5-1.8-4-2.6-7.4-2.6s-5.9,0.9-7.4,2.6c-1.8,2-1.6,4.5-1.6,4.9v3.9c-0.5,0.6-0.7,1.3-0.7,2v3
			c0,0.9,0.4,1.8,1.1,2.4c0.7,2.6,2.1,4.6,2.6,5.3v2.4c0,0.7-0.4,1.3-1,1.6l-6.6,3.6c-0.2,0.1-0.4,0.2-0.6,0.4
			c-4.3-3.9-7.1-9.5-7.1-15.8c0-11.7,9.5-21.2,21.2-21.2s21.2,9.5,21.2,21.2c0,0.7,0,1.5-0.1,2.2c0.5,0.2,1.1,0.5,1.6,0.7
			c0.1-1,0.2-1.9,0.2-2.9c0-12.6-10.3-22.9-22.9-22.9S0,10.8,0,23.4c0,6.7,2.9,12.7,7.4,16.9l0,0L8.2,41c0,0,0.1,0.1,0.1,0.1
			c0.4,0.3,0.8,0.6,1.2,0.9c0.1,0.1,0.3,0.2,0.4,0.3c0.4,0.3,0.9,0.6,1.4,0.9c0.1,0.1,0.2,0.1,0.3,0.2c0.5,0.3,1,0.6,1.6,0.8
			c0,0,0.1,0,0.1,0.1c1.7,0.8,3.6,1.4,5.5,1.8c0.1,0,0.1,0,0.2,0c0.6,0.1,1.2,0.2,1.8,0.2c0.1,0,0.1,0,0.2,0
			c0.6,0.1,1.2,0.1,1.9,0.1c0.6,0,1.2,0,1.9-0.1c0.1,0,0.2,0,0.2,0c0.6-0.1,1.2-0.1,1.8-0.2c0.1,0,0.1,0,0.2,0
			c0.4-0.1,0.9-0.2,1.3-0.3c-1.5-2.2-2.5-4.8-2.5-7.7C25.8,34.2,27.4,30.8,30,28.4z"/>
	</g>
</g>
<g id="login" class="st0">
	<g id="XMLID_2_" class="st1">
		<path id="XMLID_11_" class="st2" d="M16.1,29.7c-0.4,0-0.8-0.2-1.1-0.5c-0.6-0.6-0.6-1.6,0-2.2l3.6-3.6H1.5
			c-0.9,0-1.5-0.7-1.5-1.5s0.7-1.5,1.5-1.5h17.1L15,16.7c-0.3-0.3-0.5-0.7-0.5-1.1s0.2-0.8,0.5-1.1s0.7-0.5,1.1-0.5
			c0.4,0,0.8,0.2,1.1,0.5l6.2,6.3c0.1,0.1,0.3,0.3,0.3,0.5c0.2,0.4,0.2,0.8,0,1.2c-0.1,0.2-0.2,0.4-0.3,0.5l-6.2,6.2
			C16.9,29.5,16.5,29.7,16.1,29.7z"/>
		<path id="XMLID_8_" class="st2" d="M22.8,26.8c-0.4-0.2-0.8-0.1-1.1,0.2l-3.3,3.3c-1.2,1.2-3.2,1.2-4.4,0c-1-1-1.2-2.5-0.5-3.8
			c0.2-0.3,0.2-0.7,0-1c-0.2-0.3-0.5-0.5-0.9-0.5H12c-0.6,0-1,0.5-1,1v12.5c0,2.9,2.3,5.2,5.2,5.2h6.2c0.6,0,1-0.5,1-1V27.8
			C23.4,27.3,23.2,27,22.8,26.8z"/>
		<path id="XMLID_24_" class="st2" d="M41.8,0c-0.6,0-1.2,0.1-1.8,0.4L28.2,5.4c-1.7,0.7-2.7,2.3-2.7,4.1v35.9c0,2.5,2,4.5,4.5,4.5
			c0.6,0,1.2-0.1,1.8-0.4l11.8-5.1c1.7-0.7,2.7-2.3,2.7-4.1V4.5C46.3,2,44.3,0,41.8,0z M31.7,28.1c0,0.6-0.5,1-1,1s-1-0.5-1-1V24
			c0-0.6,0.5-1,1-1s1,0.5,1,1L31.7,28.1L31.7,28.1z"/>
		<path id="XMLID_3_" class="st2" d="M31,2c0.5-0.2,0.7-0.7,0.6-1.2C31.5,0.3,31,0,30.5,0H16.1c-2.9,0-5.2,2.3-5.2,5.2v12.5
			c0,0.6,0.5,1,1,1h0.6c0,0,0,0,0,0c0.6,0,1-0.5,1-1c0-0.3-0.1-0.5-0.3-0.7c-0.6-1.2-0.4-2.6,0.6-3.6c1.2-1.2,3.2-1.2,4.4,0l3.3,3.3
			c0.3,0.3,0.7,0.4,1.1,0.2c0.4-0.2,0.6-0.5,0.6-1V9.6c0-2.6,1.6-5,4-6L31,2z"/>
	</g>
</g>
<g id="logout">
	<path id="XMLID_15_" class="st2" d="M25.2,17.7c0,0.6,0.5,1,1,1h10.4c0.6,0,1-0.5,1-1V5.2c0-2.9-2.3-5.2-5.2-5.2H18.1
		c-0.5,0-0.9,0.3-1,0.8s0.2,1,0.6,1.2l3.5,1.5c2.4,1,4,3.4,4,6.1V17.7z"/>
	<path id="XMLID_25_" class="st2" d="M20.4,5.4L8.6,0.4C8,0.1,7.4,0,6.8,0C4.3,0,2.3,2,2.3,4.5v35.9c0,1.8,1.1,3.4,2.7,4.1l11.8,5.1
		c0.6,0.2,1.2,0.4,1.8,0.4c2.5,0,4.5-2,4.5-4.5V9.6C23.1,7.8,22,6.1,20.4,5.4z M18.9,28.1c0,0.6-0.5,1-1,1c-0.6,0-1-0.5-1-1V24
		c0-0.6,0.5-1,1-1c0.6,0,1,0.5,1,1V28.1z"/>
	<path id="XMLID_12_" class="st2" d="M36.7,25H26.2c-0.6,0-1,0.5-1,1v16.7c0,0.6,0.5,1,1,1h6.2c2.9,0,5.2-2.3,5.2-5.2V26
		C37.7,25.5,37.2,25,36.7,25z"/>
	<path id="XMLID_17_" class="st2" d="M40.8,29.7c-0.4,0-0.8-0.2-1.1-0.4c-0.3-0.3-0.5-0.7-0.5-1.1s0.2-0.8,0.5-1.1l3.6-3.6H26.2
		c-0.8,0-1.5-0.7-1.5-1.5s0.7-1.5,1.5-1.5h17.1l-3.6-3.6c-0.3-0.3-0.5-0.7-0.5-1.1c0-0.4,0.2-0.8,0.5-1.1s0.7-0.5,1.1-0.5
		c0.4,0,0.8,0.2,1.1,0.5l6.2,6.2c0.2,0.1,0.3,0.3,0.4,0.5l0,0.1l0,0.1c0,0.1,0.1,0.2,0.1,0.4v0.1l0,0.1c0,0.1,0,0.2-0.1,0.4
		c-0.1,0.2-0.2,0.3-0.2,0.4c0,0,0,0.1-0.1,0.1l-6.3,6.2C41.6,29.5,41.2,29.7,40.8,29.7z"/>
</g>
<g id="account" class="st0">
	<path id="XMLID_16_" class="st3" d="M50,25C50,11.2,38.8,0,25,0S0,11.2,0,25c0,7.3,3.1,13.8,8.1,18.4l0,0l0.8,0.7
		c0.1,0,0.1,0.1,0.2,0.1c0.4,0.4,0.9,0.7,1.3,1c0.1,0.1,0.3,0.2,0.4,0.3c0.5,0.3,1,0.7,1.5,1c0.1,0.1,0.2,0.1,0.3,0.2
		c0.6,0.3,1.1,0.6,1.7,0.9c0,0,0.1,0,0.1,0.1c1.9,0.9,3.9,1.5,6,1.9c0.1,0,0.1,0,0.2,0c0.7,0.1,1.3,0.2,2,0.3c0.1,0,0.2,0,0.2,0
		c0.7,0.1,1.3,0.1,2,0.1c0.7,0,1.4,0,2-0.1c0.1,0,0.2,0,0.3,0c0.7-0.1,1.3-0.1,2-0.3c0.1,0,0.1,0,0.2,0c2.1-0.4,4.1-1,6-1.9
		c0.1,0,0.1-0.1,0.2-0.1c0.6-0.3,1.1-0.5,1.6-0.9c0.1-0.1,0.3-0.2,0.4-0.2c0.5-0.3,1-0.6,1.4-0.9c0.2-0.1,0.3-0.2,0.5-0.4
		c0.4-0.3,0.8-0.6,1.2-0.9c0.1-0.1,0.2-0.1,0.3-0.2l0.8-0.7l0,0C46.8,38.9,50,32.3,50,25z M1.8,25C1.8,12.2,12.2,1.8,25,1.8
		S48.2,12.2,48.2,25c0,6.9-3,13.1-7.8,17.3c-0.3-0.2-0.5-0.3-0.8-0.5L31.9,38c-0.7-0.3-1.1-1-1.1-1.8v-2.7c0.2-0.2,0.4-0.5,0.6-0.7
		c1-1.4,1.8-3,2.4-4.7c1.2-0.5,1.9-1.7,1.9-3v-3.2c0-0.8-0.3-1.6-0.8-2.2v-4.2c0-0.5,0.2-3.1-1.7-5.3c-1.7-1.9-4.4-2.9-8.1-2.9
		s-6.4,1-8.1,2.9c-1.9,2.2-1.8,4.9-1.7,5.3v4.2c-0.5,0.6-0.8,1.4-0.8,2.2v3.2c0,1,0.4,1.9,1.2,2.6c0.7,2.9,2.3,5.1,2.8,5.8v2.6
		c0,0.7-0.4,1.4-1.1,1.8l-7.2,3.9c-0.2,0.1-0.5,0.3-0.7,0.4C4.8,38,1.8,31.8,1.8,25z"/>
</g>
<g id="Purchased-logos" class="st0">
	<g id="XMLID_10_" class="st1">
		<g id="XMLID_21_">
			<path id="XMLID_29_" class="st4" d="M37.7,25.8c-1.5-1.2-3.7-2.1-6.7-2.8l-2.3-0.5v-9.9c0.1,0.1,0.1,0.1,0.2,0.1s0.1,0,0.1,0.1
				c2,0.9,3,2.6,3.2,4.9h7.8c-0.1-4.1-1.7-7.2-4.6-9.3c-1.9-1.4-4.1-2.4-6.7-2.8V0h-7.2v5.3c-3.4,0.4-6.1,1.5-8,3.3
				c-2.6,2.3-3.9,5.2-3.9,8.7c0,3.8,1.3,6.6,4,8.4c1.4,1,4.1,2,7.9,2.8v10.6c-1.4-0.4-2.5-1.1-3.3-1.9c-0.8-0.9-1.3-2.2-1.5-3.9H8.9
				c0,4,1.5,7.1,4.4,9.5c2.1,1.6,4.8,2.7,8.1,3.2V50h7.2v-4c3.5-0.5,6.3-1.6,8.4-3.4c2.7-2.4,4.1-5.4,4.1-8.9
				C41.1,30.3,40,27.6,37.7,25.8z M21.4,20.7c-1.2-0.3-2-0.6-2.4-0.9c-1.3-0.7-1.9-1.7-1.9-3.2c0-1.6,0.6-2.7,1.9-3.6
				c0.7-0.4,1.5-0.7,2.4-1V20.7z M29.8,38.9c-0.3,0.1-0.7,0.2-1.2,0.3v-9c1.3,0.4,2.3,0.8,2.9,1.2c1.2,0.7,1.7,1.8,1.7,3
				C33.3,36.6,32.1,38.1,29.8,38.9z"/>
		</g>
	</g>
</g>
<g id="saved-logo" class="st0">
	<g id="XMLID_30_" class="st1">
		<rect id="XMLID_38_" x="28.2" y="5.1" class="st2" width="6.1" height="10.2"/>
		<path id="XMLID_34_" class="st2" d="M40.9,0H0.6v50h49V8.8L40.9,0z M10.8,2h26.5v16.3H10.8V2z M40.4,48H8.8V26.5h31.6V48z"/>
		<path id="XMLID_33_" class="st2" d="M13.9,32.7H21c0.6,0,1-0.5,1-1s-0.5-1-1-1h-7.1c-0.6,0-1,0.5-1,1S13.3,32.7,13.9,32.7z"/>
		<path id="XMLID_32_" class="st2" d="M13.9,36.7h10.2c0.6,0,1-0.5,1-1c0-0.6-0.5-1-1-1H13.9c-0.6,0-1,0.5-1,1
			C12.9,36.3,13.3,36.7,13.9,36.7z"/>
		<path id="XMLID_31_" class="st2" d="M27.2,36.7c0.3,0,0.5-0.1,0.7-0.3c0.2-0.2,0.3-0.5,0.3-0.7s-0.1-0.5-0.3-0.7
			c-0.4-0.4-1.1-0.4-1.4,0c-0.2,0.2-0.3,0.4-0.3,0.7c0,0.3,0.1,0.5,0.3,0.7C26.6,36.6,26.9,36.7,27.2,36.7z"/>
	</g>
</g>
</svg>
