<svg id="Layer_1" data-name="Layer 1" xmlns="http://www.w3.org/2000/svg" width="20" height="20" viewBox="0 0 20 20">
  <title>question-mark</title>
  <path d="M10,.5A9.5,9.5,0,1,0,19.5,10,9.5,9.5,0,0,0,10,.5Zm1.4,14.7-.3.5-.5.3H9.4l-.5-.3-.3-.5a1.6,1.6,0,0,1,0-1.2l.3-.5.5-.3h1.2l.5.3.3.5a1.6,1.6,0,0,1,0,1.2ZM13.9,8a2.8,2.8,0,0,1-.3.8l-.6.8-1,.9-.5.6a1.3,1.3,0,0,0-.1.6v.5H8.7v-.7a2.4,2.4,0,0,1,.1-.9,1.8,1.8,0,0,1,.5-.7l.9-.8.7-.6.4-.6a1,1,0,0,0,.2-.5,1.1,1.1,0,0,0-.3-.9,1.2,1.2,0,0,0-.9-.3,1.6,1.6,0,0,0-1.2.4,1.7,1.7,0,0,0-.5,1.1L6,7.5A3.9,3.9,0,0,1,7.3,4.8a4.4,4.4,0,0,1,2.9-.9l1.5.2,1.2.6a3,3,0,0,1,.8,1A3.2,3.2,0,0,1,14,7.2,3.6,3.6,0,0,1,13.9,8Z"/>
</svg>