<?xml version="1.0" encoding="UTF-8" standalone="no"?>
<svg
   xmlns:dc="http://purl.org/dc/elements/1.1/"
   xmlns:cc="http://creativecommons.org/ns#"
   xmlns:rdf="http://www.w3.org/1999/02/22-rdf-syntax-ns#"
   xmlns:svg="http://www.w3.org/2000/svg"
   xmlns="http://www.w3.org/2000/svg"
   viewBox="0 0 53.333332 53.333332"
   height="53.333332"
   width="53.333332"
   xml:space="preserve"
   id="svg2"
   version="1.1"><metadata
     id="metadata8"><rdf:RDF><cc:Work
         rdf:about=""><dc:format>image/svg+xml</dc:format><dc:type
           rdf:resource="http://purl.org/dc/dcmitype/StillImage" /></cc:Work></rdf:RDF></metadata><defs
     id="defs6"><clipPath
       id="clipPath18"
       clipPathUnits="userSpaceOnUse"><path
         id="path16"
         d="M 0,20 C 0,8.954 8.954,0 20,0 v 0 c 11.045,0 19.999,8.954 19.999,20 v 0 c 0,11.045 -8.954,19.999 -19.999,19.999 v 0 C 8.954,39.999 0,31.045 0,20" /></clipPath></defs><g
     transform="matrix(1.3333333,0,0,-1.3333333,0,53.333333)"
     id="g10"><g
       id="g12"><g
         clip-path="url(#clipPath18)"
         id="g14"><path
           id="path20"
           style="fill:#b21e64;fill-opacity:1;fill-rule:nonzero;stroke:none"
           d="m 39.999,-3.086 h -4.081 v 46.17 h 4.081 z" /><path
           id="path22"
           style="fill:#ed1d5f;fill-opacity:1;fill-rule:nonzero;stroke:none"
           d="m 36.023,-3.086 h -4.081 v 46.17 h 4.081 z" /><path
           id="path24"
           style="fill:#ef3e23;fill-opacity:1;fill-rule:nonzero;stroke:none"
           d="m 32.046,-3.086 h -4.081 v 46.17 h 4.081 z" /><path
           id="path26"
           style="fill:#faa830;fill-opacity:1;fill-rule:nonzero;stroke:none"
           d="m 28.07,-3.086 h -4.082 v 46.17 h 4.082 z" /><path
           id="path28"
           style="fill:#f9f17e;fill-opacity:1;fill-rule:nonzero;stroke:none"
           d="m 24.093,-3.086 h -4.081 v 46.17 h 4.081 z" /><path
           id="path30"
           style="fill:#57b947;fill-opacity:1;fill-rule:nonzero;stroke:none"
           d="m 20.117,-3.086 h -4.081 v 46.17 h 4.081 z" /><path
           id="path32"
           style="fill:#5cc7d4;fill-opacity:1;fill-rule:nonzero;stroke:none"
           d="M 16.141,-3.086 H 12.06 v 46.17 h 4.081 z" /><path
           id="path34"
           style="fill:#29a3dc;fill-opacity:1;fill-rule:nonzero;stroke:none"
           d="M 12.164,-3.086 H 8.082 v 46.17 h 4.082 z" /><path
           id="path36"
           style="fill:#395eab;fill-opacity:1;fill-rule:nonzero;stroke:none"
           d="M 8.188,-3.086 H 4.107 v 46.17 h 4.081 z" /><path
           id="path38"
           style="fill:#5e3e98;fill-opacity:1;fill-rule:nonzero;stroke:none"
           d="M 4.211,-3.086 H 0 v 46.17 h 4.211 z" /></g></g></g></svg>