<?xml version="1.0" encoding="utf-8"?>
<!-- Generator: Adobe Illustrator 21.1.0, SVG Export Plug-In . SVG Version: 6.00 Build 0)  -->
<svg version="1.1" id="Layer_1" xmlns="http://www.w3.org/2000/svg" xmlns:xlink="http://www.w3.org/1999/xlink" x="0px" y="0px"
	 viewBox="0 0 100 100" style="enable-background:new 0 0 100 100;" xml:space="preserve">
<style type="text/css">
	.st0{fill:#333333;}
</style>
<g>
	<path class="st0" d="M91.7,25.8L74.2,8.3c-0.3-0.3-0.8-0.5-1.3-0.5H23.6c-1,0-1.8,0.8-1.8,1.8v20.6c0,1,0.8,1.8,1.8,1.8h44.8
		c1,0,1.8-0.8,1.8-1.8V11.4h1.9l16.5,16.5v16.4c0,1,0.8,1.8,1.8,1.8s1.8-0.8,1.8-1.8V27.1C92.2,26.7,92,26.2,91.7,25.8L91.7,25.8z
		 M66.5,28.3H25.4V11.4h41.1V28.3z M66.5,28.3"/>
	<path class="st0" d="M67,62.3H33c-1,0-1.8,0.8-1.8,1.8c0,1,0.8,1.8,1.8,1.8H67c1,0,1.8-0.8,1.8-1.8C68.8,63.2,68,62.3,67,62.3
		L67,62.3z M67,62.3"/>
	<path class="st0" d="M67,71.1H51.7c-1,0-1.8,0.8-1.8,1.8s0.8,1.8,1.8,1.8H67c1,0,1.8-0.8,1.8-1.8S68,71.1,67,71.1L67,71.1z
		 M67,71.1"/>
	<path class="st0" d="M43.3,71.1H33c-1,0-1.8,0.8-1.8,1.8s0.8,1.8,1.8,1.8h10.3c1,0,1.8-0.8,1.8-1.8S44.4,71.1,43.3,71.1L43.3,71.1z
		 M43.3,71.1"/>
	<path class="st0" d="M67,80H33c-1,0-1.8,0.8-1.8,1.8c0,1,0.8,1.8,1.8,1.8H67c1,0,1.8-0.8,1.8-1.8C68.8,80.8,68,80,67,80L67,80z
		 M67,80"/>
	<path class="st0" d="M61.2,13.8h-7.7c-1,0-1.8,0.8-1.8,1.8v8.6c0,1,0.8,1.8,1.8,1.8h7.7c1,0,1.8-0.8,1.8-1.8v-8.6
		C63,14.6,62.2,13.8,61.2,13.8L61.2,13.8z M59.4,22.4h-4.1v-4.9h4.1V22.4z M59.4,22.4"/>
	<path class="st0" d="M76.4,53.7H23.6c-1,0-1.8,0.8-1.8,1.8v33h-5.5c-2.6,0-4.7-2.1-4.7-4.7V59.4c0-1-0.8-1.8-1.8-1.8
		s-1.8,0.8-1.8,1.8v24.4c0,4.6,3.8,8.4,8.4,8.4h60.3c1,0,1.8-0.8,1.8-1.8V55.6C78.3,54.6,77.5,53.7,76.4,53.7L76.4,53.7z M74.6,88.6
		H25.4V57.4h49.2V88.6z M74.6,88.6"/>
	<g>
		<path class="st0" d="M91.7,50.1c-0.3-0.3-0.8-0.5-1.3-0.5c-0.5,0-1,0.2-1.3,0.5c-0.3,0.3-0.5,0.8-0.5,1.3c0,0.5,0.2,1,0.5,1.3
			c0.3,0.3,0.8,0.5,1.3,0.5c0.5,0,1-0.2,1.3-0.5c0.3-0.3,0.5-0.8,0.5-1.3C92.2,50.9,92,50.5,91.7,50.1L91.7,50.1z M91.7,50.1"/>
		<path class="st0" d="M96.5,89.1c-0.7-0.7-1.9-0.7-2.6,0l-1.6,1.6v-32c0-1-0.8-1.8-1.8-1.8s-1.8,0.8-1.8,1.8v32l-1.6-1.6
			c-0.7-0.7-1.9-0.7-2.6,0c-0.7,0.7-0.7,1.9,0,2.6l4.8,4.8c0.4,0.4,0.8,0.5,1.3,0.5c0.5,0,0.9-0.2,1.3-0.5l4.8-4.8
			C97.2,91,97.2,89.8,96.5,89.1L96.5,89.1z M96.5,89.1"/>
		<path class="st0" d="M15.7,8.3l-4.8-4.8c-0.7-0.7-1.9-0.7-2.6,0L3.5,8.3c-0.7,0.7-0.7,1.9,0,2.6c0.7,0.7,1.9,0.7,2.6,0l1.6-1.6
			v33.3c0,1,0.8,1.8,1.8,1.8s1.8-0.8,1.8-1.8V9.3l1.6,1.6c0.4,0.4,0.8,0.5,1.3,0.5c0.5,0,0.9-0.2,1.3-0.5C16.4,10.2,16.4,9,15.7,8.3
			L15.7,8.3z M15.7,8.3"/>
	</g>
	<path class="st0" d="M10.9,49.7c-0.3-0.3-0.8-0.5-1.3-0.5c-0.5,0-1,0.2-1.3,0.5C8,50.1,7.8,50.6,7.8,51c0,0.5,0.2,1,0.5,1.3
		c0.3,0.3,0.8,0.5,1.3,0.5c0.5,0,1-0.2,1.3-0.5c0.3-0.3,0.5-0.8,0.5-1.3C11.4,50.6,11.3,50.1,10.9,49.7L10.9,49.7z M10.9,49.7"/>
</g>
</svg>
