<?xml version="1.0" encoding="utf-8"?>
<!-- Generator: Adobe Illustrator 21.1.0, SVG Export Plug-In . SVG Version: 6.00 Build 0)  -->
<svg version="1.1" id="Layer_1" xmlns="http://www.w3.org/2000/svg" xmlns:xlink="http://www.w3.org/1999/xlink" x="0px" y="0px"
	 viewBox="0 0 21 20" style="enable-background:new 0 0 21 20;" xml:space="preserve">
<g>
	<path fill="#fff" d="M1.7,11.2c0-3.6,2.2-6.8,5.4-8.1V6c-1.7,1.1-2.8,3-2.8,5.2c0,3.4,2.8,6.2,6.2,6.2c3.4,0,6.2-2.8,6.2-6.2
		c0-2.2-1.1-4.1-2.8-5.2V3.1c3.2,1.3,5.4,4.5,5.4,8.1c0,4.9-3.9,8.8-8.8,8.8C5.7,20,1.7,16,1.7,11.2L1.7,11.2z M10.5,0
		C9.8,0,9.2,0.6,9.2,1.3v6c0,0.7,0.6,1.3,1.3,1.3s1.3-0.6,1.3-1.3v-6C11.8,0.6,11.2,0,10.5,0L10.5,0z M10.5,0"/>
</g>
</svg>
