<?xml version="1.0" encoding="UTF-8" standalone="no"?>
<svg
   xmlns:dc="http://purl.org/dc/elements/1.1/"
   xmlns:cc="http://creativecommons.org/ns#"
   xmlns:rdf="http://www.w3.org/1999/02/22-rdf-syntax-ns#"
   xmlns:svg="http://www.w3.org/2000/svg"
   xmlns="http://www.w3.org/2000/svg"
   viewBox="0 0 419.556 388.444"
   height="388.444"
   width="419.556"
   xml:space="preserve"
   id="svg2"
   version="1.1"><metadata
     id="metadata8"><rdf:RDF><cc:Work
         rdf:about=""><dc:format>image/svg+xml</dc:format><dc:type
           rdf:resource="http://purl.org/dc/dcmitype/StillImage" /></cc:Work></rdf:RDF></metadata><defs
     id="defs6"><clipPath
       id="clipPath18"
       clipPathUnits="userSpaceOnUse"><path
         id="path16"
         d="M 0,291.333 H 314.667 V 0 H 0 Z" /></clipPath><clipPath
       id="clipPath118"
       clipPathUnits="userSpaceOnUse"><path
         id="path116"
         d="m 100.904,169.302 h 9.179 v -2.898 h -9.179 z" /></clipPath><clipPath
       id="clipPath134"
       clipPathUnits="userSpaceOnUse"><path
         id="path132"
         d="m 113.948,169.302 h 38.969 v -2.898 h -38.969 z" /></clipPath></defs><g
     transform="matrix(1.3333333,0,0,-1.3333333,0,388.444)"
     id="g10"><g
       id="g12"><g
         clip-path="url(#clipPath18)"
         id="g14"><g
           transform="translate(47.2627,113.4908)"
           id="g20"><path
             id="path22"
             style="fill:#ebf6f4;fill-opacity:1;fill-rule:nonzero;stroke:none"
             d="m 0,0 c 0,-38.36 -17.847,-70.637 5.49,-80.75 41.711,-18.074 138.185,-14.361 181.13,0 38.897,13.008 58.75,59.39 58.75,103.21 0,66.46 -52.96,113.64 -121.01,120.34 -32.03,3.16 -106.93,24.95 -148.5,-9.38 C -52.26,110.18 0,34.46 0,0" /></g><g
           transform="translate(216.5,18.3123)"
           id="g24"><path
             id="path26"
             style="fill:#d7d7d7;fill-opacity:1;fill-rule:nonzero;stroke:none"
             d="m 0,0 c 0,-5.11 -27.674,-9.253 -61.811,-9.253 -34.138,0 -61.812,4.143 -61.812,9.253 0,5.11 27.674,9.253 61.812,9.253 C -27.674,9.253 0,5.11 0,0" /></g><g
           transform="translate(226.5084,219.7049)"
           id="g28"><path
             id="path30"
             style="fill:#6f9dd3;fill-opacity:1;fill-rule:nonzero;stroke:none"
             d="m 0,0 c 0,0 1.127,1.127 0,2.093 -1.127,0.806 -8.213,6.603 -8.213,6.603 0,0 -7.085,5.797 -8.212,6.602 -1.127,0.805 -1.932,-0.483 -1.932,-0.483 l -6.442,-5.153 2.738,-2.255 5.475,4.026 6.441,-5.314 6.441,-5.314 -2.737,-6.119 2.737,-2.254 z" /></g><g
           transform="translate(226.5084,219.7049)"
           id="g32"><path
             id="path34"
             style="fill:none;stroke:#6f9dd3;stroke-width:1.61000001;stroke-linecap:butt;stroke-linejoin:miter;stroke-miterlimit:10;stroke-dasharray:none;stroke-opacity:1"
             d="m 0,0 c 0,0 1.127,1.127 0,2.093 -1.127,0.806 -8.213,6.603 -8.213,6.603 0,0 -7.085,5.797 -8.212,6.602 -1.127,0.805 -1.932,-0.483 -1.932,-0.483 l -6.442,-5.153 2.738,-2.255 5.475,4.026 6.441,-5.314 6.441,-5.314 -2.737,-6.119 2.737,-2.254 z" /></g><g
           transform="translate(246.3151,179.9304)"
           id="g36"><path
             id="path38"
             style="fill:#6f9dd3;fill-opacity:1;fill-rule:nonzero;stroke:none"
             d="M 0,0 C -0.644,-0.805 -1.932,-0.966 -2.899,-0.322 L -80.998,62.48 c -0.806,0.644 -0.967,1.932 -0.322,2.898 0.644,0.806 1.932,0.967 2.898,0.323 L -0.161,2.738 C 0.483,2.093 0.644,0.805 0,0" /></g><g
           transform="translate(246.3151,179.9304)"
           id="g40"><path
             id="path42"
             style="fill:none;stroke:#6f9dd3;stroke-width:1.61000001;stroke-linecap:butt;stroke-linejoin:miter;stroke-miterlimit:10;stroke-dasharray:none;stroke-opacity:1"
             d="M 0,0 C -0.644,-0.805 -1.932,-0.966 -2.899,-0.322 L -80.998,62.48 c -0.806,0.644 -0.967,1.932 -0.322,2.898 0.644,0.806 1.932,0.967 2.898,0.323 L -0.161,2.738 C 0.483,2.093 0.644,0.805 0,0 Z" /></g><g
           transform="translate(213.6259,222.4425)"
           id="g44"><path
             id="path46"
             style="fill:#ffffff;fill-opacity:1;fill-rule:nonzero;stroke:none"
             d="m 0,0 c -7.407,5.958 -30.757,23.672 -44.605,22.061 l 35.426,-28.502 4.67,-3.704 35.427,-28.502 C 29.63,-24.96 7.407,-5.958 0,0" /></g><g
           transform="translate(213.6259,222.4425)"
           id="g48"><path
             id="path50"
             style="fill:none;stroke:#6f9dd3;stroke-width:2;stroke-linecap:butt;stroke-linejoin:miter;stroke-miterlimit:10;stroke-dasharray:none;stroke-opacity:1"
             d="m 0,0 c -7.407,5.958 -30.757,23.672 -44.605,22.061 l 35.426,-28.502 4.67,-3.704 35.427,-28.502 C 29.63,-24.96 7.407,-5.958 0,0 Z" /></g><g
           transform="translate(97.5228,203.4409)"
           id="g52"><path
             id="path54"
             style="fill:#fff5f2;fill-opacity:1;fill-rule:nonzero;stroke:none"
             d="m 0,0 c 0,0 9.501,6.763 9.501,7.246 0,0.483 2.576,4.992 2.898,5.636 0.322,0.645 2.255,1.45 2.416,1.933 0.161,0.322 2.093,0.966 2.093,0.966 0,0 1.288,5.314 1.288,5.636 0,0.322 8.696,5.475 8.696,5.475 0,0 0.161,-3.704 5.958,-7.729 5.797,-4.187 8.696,-5.636 8.696,-5.636 0,0 -0.966,-5.314 -1.127,-5.798 C 40.258,7.246 36.232,5.314 36.071,4.831 35.91,4.509 34.3,1.771 34.138,1.449 33.977,1.127 32.85,-0.805 32.367,-0.966 31.884,-1.127 30.596,-1.449 29.952,-2.415 29.308,-3.543 22.544,-9.34 20.129,-14.171 c 0,0 -6.924,0.322 -8.857,3.704 C 9.34,-7.246 7.246,-4.67 5.797,-4.509 4.348,-4.67 0,0 0,0" /></g><g
           transform="translate(97.5228,203.4409)"
           id="g56"><path
             id="path58"
             style="fill:none;stroke:#6f9dd3;stroke-width:1.61000001;stroke-linecap:butt;stroke-linejoin:round;stroke-miterlimit:10;stroke-dasharray:none;stroke-opacity:1"
             d="m 0,0 c 0,0 9.501,6.763 9.501,7.246 0,0.483 2.576,4.992 2.898,5.636 0.322,0.645 2.255,1.45 2.416,1.933 0.161,0.322 2.093,0.966 2.093,0.966 0,0 1.288,5.314 1.288,5.636 0,0.322 8.696,5.475 8.696,5.475 0,0 0.161,-3.704 5.958,-7.729 5.797,-4.187 8.696,-5.636 8.696,-5.636 0,0 -0.966,-5.314 -1.127,-5.798 C 40.258,7.246 36.232,5.314 36.071,4.831 35.91,4.509 34.3,1.771 34.138,1.449 33.977,1.127 32.85,-0.805 32.367,-0.966 31.884,-1.127 30.596,-1.449 29.952,-2.415 29.308,-3.543 22.544,-9.34 20.129,-14.171 c 0,0 -6.924,0.322 -8.857,3.704 C 9.34,-7.246 7.246,-4.67 5.797,-4.509 4.348,-4.67 0,0 0,0 Z" /></g><g
           transform="translate(107.9898,32.7484)"
           id="g60"><path
             id="path62"
             style="fill:#6f9dd3;fill-opacity:1;fill-rule:nonzero;stroke:none"
             d="m 0,0 0.966,-10.95 c 0,0 3.865,-5.314 40.258,-5.958 36.393,-0.644 49.275,5.475 49.275,5.475 l 0.644,10.145 z" /></g><g
           transform="translate(107.9898,32.7484)"
           id="g64"><path
             id="path66"
             style="fill:none;stroke:#6f9dd3;stroke-width:1.61000001;stroke-linecap:butt;stroke-linejoin:miter;stroke-miterlimit:10;stroke-dasharray:none;stroke-opacity:1"
             d="m 0,0 0.966,-10.95 c 0,0 3.865,-5.314 40.258,-5.958 36.393,-0.644 49.275,5.475 49.275,5.475 l 0.644,10.145 z" /></g><g
           transform="translate(153.7225,168.9803)"
           id="g68"><path
             id="path70"
             style="fill:#ffffff;fill-opacity:1;fill-rule:nonzero;stroke:none"
             d="m 0,0 c 0,1.288 -54.267,-6.763 -54.267,-6.763 0,0 0.322,-62.48 0.644,-87.118 0.322,-24.799 4.509,-41.868 4.509,-41.868 13.204,-7.729 49.114,-7.89 49.114,-7.89 0,0 36.071,0.161 49.114,7.89 0,0 4.187,17.069 4.509,41.868 0.322,24.799 0.644,87.118 0.644,87.118 C 54.267,-6.763 0,1.288 0,0" /></g><g
           transform="translate(153.7225,168.9803)"
           id="g72"><path
             id="path74"
             style="fill:none;stroke:#6f9dd3;stroke-width:1.61000001;stroke-linecap:butt;stroke-linejoin:miter;stroke-miterlimit:10;stroke-dasharray:none;stroke-opacity:1"
             d="m 0,0 c 0,1.288 -54.267,-6.763 -54.267,-6.763 0,0 0.322,-62.48 0.644,-87.118 0.322,-24.799 4.509,-41.868 4.509,-41.868 13.204,-7.729 49.114,-7.89 49.114,-7.89 0,0 36.071,0.161 49.114,7.89 0,0 4.187,17.069 4.509,41.868 0.322,24.799 0.644,87.118 0.644,87.118 C 54.267,-6.763 0,1.288 0,0 Z" /></g><g
           transform="translate(94.4632,167.0479)"
           id="g76"><path
             id="path78"
             style="fill:#6f9dd3;fill-opacity:1;fill-rule:nonzero;stroke:none"
             d="m 0,0 c 0,-2.738 2.093,-4.831 4.831,-4.831 h 108.696 c 2.737,0 4.831,2.093 4.831,4.831 v 3.704 c 0,2.737 -2.094,4.831 -4.831,4.831 H 4.831 C 2.093,8.535 0,6.441 0,3.704 Z" /></g><g
           transform="translate(94.4632,167.0479)"
           id="g80"><path
             id="path82"
             style="fill:none;stroke:#6f9dd3;stroke-width:1.61000001;stroke-linecap:butt;stroke-linejoin:miter;stroke-miterlimit:10;stroke-dasharray:none;stroke-opacity:1"
             d="m 0,0 c 0,-2.738 2.093,-4.831 4.831,-4.831 h 108.696 c 2.737,0 4.831,2.093 4.831,4.831 v 3.704 c 0,2.737 -2.094,4.831 -4.831,4.831 H 4.831 C 2.093,8.535 0,6.441 0,3.704 Z" /></g><g
           transform="translate(159.0365,41.122)"
           id="g84"><path
             id="path86"
             style="fill:#d5e4f1;fill-opacity:1;fill-rule:nonzero;stroke:none"
             d="m 0,0 c 0,-2.415 -1.932,-4.348 -4.348,-4.348 -2.415,0 -4.348,1.933 -4.348,4.348 v 109.662 c 0,2.415 1.933,4.348 4.348,4.348 2.416,0 4.348,-1.933 4.348,-4.348 z" /></g><g
           transform="translate(186.7338,41.122)"
           id="g88"><path
             id="path90"
             style="fill:#d5e4f1;fill-opacity:1;fill-rule:nonzero;stroke:none"
             d="m 0,0 c 0,-2.415 -1.61,-4.348 -3.704,-4.348 -2.093,0 -3.703,1.933 -3.703,4.348 v 109.662 c 0,2.415 1.61,4.348 3.703,4.348 2.094,0 3.704,-1.933 3.704,-4.348 z" /></g><g
           transform="translate(199.2942,41.122)"
           id="g92"><path
             id="path94"
             style="fill:#d5e4f1;fill-opacity:1;fill-rule:nonzero;stroke:none"
             d="m 0,0 c 0,-2.415 -1.449,-4.348 -3.06,-4.348 -1.771,0 -3.059,1.933 -3.059,4.348 v 109.662 c 0,2.415 1.449,4.348 3.059,4.348 1.772,0 3.06,-1.933 3.06,-4.348 z" /></g><g
           transform="translate(143.4165,41.122)"
           id="g96"><path
             id="path98"
             style="fill:#d5e4f1;fill-opacity:1;fill-rule:nonzero;stroke:none"
             d="m 0,0 c 0,-2.415 -1.932,-4.348 -4.348,-4.348 -2.415,0 -4.348,1.933 -4.348,4.348 v 109.662 c 0,2.415 1.933,4.348 4.348,4.348 2.416,0 4.348,-1.933 4.348,-4.348 z" /></g><g
           transform="translate(173.5293,41.122)"
           id="g100"><path
             id="path102"
             style="fill:#d5e4f1;fill-opacity:1;fill-rule:nonzero;stroke:none"
             d="m 0,0 c 0,-2.415 -1.932,-4.348 -4.348,-4.348 -2.415,0 -4.348,1.933 -4.348,4.348 v 109.662 c 0,2.415 1.933,4.348 4.348,4.348 2.416,0 4.348,-1.933 4.348,-4.348 z" /></g><g
           transform="translate(128.4407,41.122)"
           id="g104"><path
             id="path106"
             style="fill:#d5e4f1;fill-opacity:1;fill-rule:nonzero;stroke:none"
             d="m 0,0 c 0,-2.415 -1.771,-4.348 -3.865,-4.348 -2.093,0 -3.864,1.933 -3.864,4.348 v 109.662 c 0,2.415 1.771,4.348 3.864,4.348 2.094,0 3.865,-1.933 3.865,-4.348 z" /></g><g
           transform="translate(114.7531,41.122)"
           id="g108"><path
             id="path110"
             style="fill:#d5e4f1;fill-opacity:1;fill-rule:nonzero;stroke:none"
             d="m 0,0 c 0,-2.415 -1.449,-4.348 -3.382,-4.348 -1.932,0 -3.381,1.933 -3.381,4.348 v 109.662 c 0,2.415 1.449,4.348 3.381,4.348 1.933,0 3.382,-1.933 3.382,-4.348 z" /></g><g
           id="g112"><g
             id="g114" /><g
             id="g126"><g
               style="opacity:0.80000299"
               id="g124"
               clip-path="url(#clipPath118)"><g
                 id="g122"
                 transform="translate(110.0832,167.8531)"><path
                   id="path120"
                   style="fill:#ffffff;fill-opacity:1;fill-rule:nonzero;stroke:none"
                   d="m 0,0 c 0,-0.805 -0.644,-1.449 -1.449,-1.449 h -6.28 c -0.806,0 -1.45,0.644 -1.45,1.449 0,0.805 0.644,1.449 1.45,1.449 h 6.28 C -0.644,1.449 0,0.805 0,0" /></g></g></g></g><g
           id="g128"><g
             id="g130" /><g
             id="g142"><g
               style="opacity:0.80000299"
               id="g140"
               clip-path="url(#clipPath134)"><g
                 id="g138"
                 transform="translate(152.9174,167.8531)"><path
                   id="path136"
                   style="fill:#ffffff;fill-opacity:1;fill-rule:nonzero;stroke:none"
                   d="M 0,0 C 0,-0.805 -0.644,-1.449 -1.449,-1.449 H -37.52 c -0.805,0 -1.449,0.644 -1.449,1.449 0,0.805 0.644,1.449 1.449,1.449 H -1.449 C -0.483,1.449 0,0.805 0,0" /></g></g></g></g><g
           transform="translate(143.0945,209.399)"
           id="g144"><path
             id="path146"
             style="fill:#41bc9a;fill-opacity:1;fill-rule:nonzero;stroke:none"
             d="m 0,0 v 9.018 c 0,0 5.636,-2.738 6.119,-2.094 0.483,0.805 2.738,1.933 3.221,3.382 0.483,1.449 4.831,2.576 4.831,2.576 0,0 5.314,-1.932 6.441,-2.898 1.127,-0.966 5.797,-6.602 5.797,-6.602 0,0 0.322,-6.281 0,-7.408 -0.322,-1.288 -3.865,-6.441 -4.992,-6.119 -0.966,0.322 -4.348,0.644 -6.28,0 -2.094,-0.644 -9.018,-2.254 -9.018,-2.254 L 3.06,-6.924 C 3.221,-6.924 -2.899,-6.28 0,0" /></g><g
           transform="translate(154.3666,217.1284)"
           id="g148"><path
             id="path150"
             style="fill:none;stroke:#ffffff;stroke-width:1.61000001;stroke-linecap:round;stroke-linejoin:round;stroke-miterlimit:10;stroke-dasharray:none;stroke-opacity:1"
             d="m 0,0 c 0,0 2.899,-0.644 3.221,-1.288 0.322,-0.644 0,-5.153 0,-5.153" /></g><g
           transform="translate(153.0784,204.5681)"
           id="g152"><path
             id="path154"
             style="fill:none;stroke:#ffffff;stroke-width:1.61000001;stroke-linecap:round;stroke-linejoin:round;stroke-miterlimit:10;stroke-dasharray:none;stroke-opacity:1"
             d="M 0,0 -2.415,5.153" /></g><g
           transform="translate(159.6806,204.5681)"
           id="g156"><path
             id="path158"
             style="fill:none;stroke:#ffffff;stroke-width:1.61000001;stroke-linecap:round;stroke-linejoin:round;stroke-miterlimit:10;stroke-dasharray:none;stroke-opacity:1"
             d="M 0,0 4.187,2.576 3.06,9.34" /></g><g
           transform="translate(129.5679,252.3942)"
           id="g160"><path
             id="path162"
             style="fill:none;stroke:#6f9dd3;stroke-width:1.61000001;stroke-linecap:round;stroke-linejoin:round;stroke-miterlimit:10;stroke-dasharray:none;stroke-opacity:1"
             d="M 0,0 21.578,5.958" /></g><g
           transform="translate(130.6951,252.5552)"
           id="g164"><path
             id="path166"
             style="fill:#fff5f2;fill-opacity:1;fill-rule:nonzero;stroke:none"
             d="m 0,0 10.789,-23.833 11.916,3.382 -3.22,25.926 z" /></g><g
           transform="translate(130.6951,252.5552)"
           id="g168"><path
             id="path170"
             style="fill:none;stroke:#6f9dd3;stroke-width:1.61000001;stroke-linecap:butt;stroke-linejoin:round;stroke-miterlimit:10;stroke-dasharray:none;stroke-opacity:1"
             d="m 0,0 10.789,-23.833 11.916,3.382 -3.22,25.926 z" /></g><g
           transform="translate(152.2732,241.4441)"
           id="g172"><path
             id="path174"
             style="fill:#41bc9a;fill-opacity:1;fill-rule:nonzero;stroke:none"
             d="m 0,0 -1.288,10.145 -17.553,-4.992 4.187,-9.179 z" /></g><g
           transform="translate(152.2732,241.4441)"
           id="g176"><path
             id="path178"
             style="fill:none;stroke:#6f9dd3;stroke-width:1.61000001;stroke-linecap:butt;stroke-linejoin:miter;stroke-miterlimit:10;stroke-dasharray:none;stroke-opacity:1"
             d="m 0,0 -1.288,10.145 -17.553,-4.992 4.187,-9.179 z" /></g><g
           transform="translate(169.423,192.9263)"
           id="g180"><path
             id="path182"
             style="fill:none;stroke:#6d9cd2;stroke-width:1.61000001;stroke-linecap:round;stroke-linejoin:round;stroke-miterlimit:10;stroke-dasharray:none;stroke-opacity:1"
             d="M 0,0 14.332,17.23" /></g><g
           transform="translate(170.4697,193.2959)"
           id="g184"><path
             id="path186"
             style="fill:#ffffff;fill-opacity:1;fill-rule:nonzero;stroke:none"
             d="m 0,0 14.493,-6.602 7.89,9.501 -9.34,12.721 z" /></g><g
           transform="translate(170.4697,193.2959)"
           id="g188"><path
             id="path190"
             style="fill:none;stroke:#6f9dd3;stroke-width:2;stroke-linecap:butt;stroke-linejoin:miter;stroke-miterlimit:10;stroke-dasharray:none;stroke-opacity:1"
             d="m 0,0 14.493,-6.602 7.89,9.501 -9.34,12.721 z" /></g><g
           transform="translate(176.5889,190.5584)"
           id="g192"><path
             id="path194"
             style="fill:#6f9dd3;fill-opacity:1;fill-rule:nonzero;stroke:none"
             d="m 0,0 8.374,-3.865 7.89,9.501 -5.475,7.246 z" /></g><g
           transform="translate(138.4246,189.1091)"
           id="g196"><path
             id="path198"
             style="fill:none;stroke:#6f9dd3;stroke-width:1.61000001;stroke-linecap:round;stroke-linejoin:round;stroke-miterlimit:10;stroke-dasharray:none;stroke-opacity:1"
             d="m 0,0 c 2.046,0 3.704,-1.658 3.704,-3.704 0,-2.045 -1.658,-3.703 -3.704,-3.703 -2.046,0 -3.704,1.658 -3.704,3.703 C -3.704,-1.658 -2.046,0 0,0 Z" /></g><g
           transform="translate(96.3956,233.2315)"
           id="g200"><path
             id="path202"
             style="fill:none;stroke:#6f9dd3;stroke-width:1.61000001;stroke-linecap:round;stroke-linejoin:round;stroke-miterlimit:10;stroke-dasharray:none;stroke-opacity:1"
             d="m 0,0 c 2.49,0 4.509,-2.019 4.509,-4.509 0,-2.49 -2.019,-4.509 -4.509,-4.509 -2.49,0 -4.509,2.019 -4.509,4.509 C -4.509,-2.019 -2.49,0 0,0 Z" /></g><g
           transform="translate(109.7612,246.7581)"
           id="g204"><path
             id="path206"
             style="fill:none;stroke:#6f9dd3;stroke-width:1.61000001;stroke-linecap:round;stroke-linejoin:round;stroke-miterlimit:10;stroke-dasharray:none;stroke-opacity:1"
             d="M 0,0 C 0.978,0 1.771,-0.793 1.771,-1.771 1.771,-2.75 0.978,-3.543 0,-3.543 c -0.978,0 -1.771,0.793 -1.771,1.772 C -1.771,-0.793 -0.978,0 0,0 Z" /></g><g
           transform="translate(162.9013,237.5793)"
           id="g208"><path
             id="path210"
             style="fill:none;stroke:#6f9dd3;stroke-width:1.61000001;stroke-linecap:round;stroke-linejoin:round;stroke-miterlimit:10;stroke-dasharray:none;stroke-opacity:1"
             d="m 0,0 c 1.868,0 3.382,-1.514 3.382,-3.382 0,-1.867 -1.514,-3.381 -3.382,-3.381 -1.868,0 -3.382,1.514 -3.382,3.381 C -3.382,-1.514 -1.868,0 0,0 Z" /></g><g
           transform="translate(203.481,193.94)"
           id="g212"><path
             id="path214"
             style="fill:none;stroke:#6f9dd3;stroke-width:1.61000001;stroke-linecap:round;stroke-linejoin:round;stroke-miterlimit:10;stroke-dasharray:none;stroke-opacity:1"
             d="M 0,0 C 0.978,0 1.771,-0.793 1.771,-1.771 1.771,-2.75 0.978,-3.543 0,-3.543 c -0.978,0 -1.771,0.793 -1.771,1.772 C -1.771,-0.793 -0.978,0 0,0 Z" /></g><g
           transform="translate(103.1589,189.1091)"
           id="g216"><path
             id="path218"
             style="fill:none;stroke:#6f9dd3;stroke-width:1.61000001;stroke-linecap:round;stroke-linejoin:round;stroke-miterlimit:10;stroke-dasharray:none;stroke-opacity:1"
             d="M 0,0 C 1.245,0 2.254,-1.009 2.254,-2.254 2.254,-3.5 1.245,-4.509 0,-4.509 c -1.245,0 -2.254,1.009 -2.254,2.255 C -2.254,-1.009 -1.245,0 0,0 Z" /></g><g
           transform="translate(127.1525,246.114)"
           id="g220"><path
             id="path222"
             style="fill:none;stroke:#6f9dd3;stroke-width:1.61000001;stroke-linecap:round;stroke-linejoin:round;stroke-miterlimit:10;stroke-dasharray:none;stroke-opacity:1"
             d="M 0,0 C 0.445,0 0.805,-0.36 0.805,-0.805 0.805,-1.25 0.445,-1.61 0,-1.61 c -0.445,0 -0.805,0.36 -0.805,0.805 C -0.805,-0.36 -0.445,0 0,0 Z" /></g></g></g></g></svg>