<?xml version="1.0" encoding="utf-8"?>
<!-- Generator: Adobe Illustrator 21.1.0, SVG Export Plug-In . SVG Version: 6.00 Build 0)  -->
<svg version="1.1" id="Layer_1" xmlns="http://www.w3.org/2000/svg" xmlns:xlink="http://www.w3.org/1999/xlink" x="0px" y="0px"
	 viewBox="0 0 50 50" style="enable-background:new 0 0 50 50;" xml:space="preserve">
<path d="M58.8,22.3"/>
<g>
	<path d="M46.4,12.6c-6.8-11.8-22-15.9-33.8-9.1c-11.8,6.8-15.9,22-9.1,33.8c6.8,11.8,22,15.9,33.8,9.1
		C49.2,39.6,53.3,24.5,46.4,12.6z M34.9,42.1c-9.5,5.5-21.6,2.2-27-7.2c-5.5-9.5-2.2-21.6,7.2-27c9.5-5.5,21.6-2.2,27,7.2
		C47.6,24.6,44.4,36.7,34.9,42.1z"/>
</g>
<path d="M33.4,23.8l-13-7.6c-1.2-0.7-2.1-0.1-2.1,1.2l0.1,15c0,1.4,1,1.9,2.2,1.2l12.9-7.4C34.6,25.6,34.6,24.5,33.4,23.8L33.4,23.8
	z"/>
</svg>
